<?xml version="1.0" encoding="UTF-8" standalone="no"?>
<!DOCTYPE svg PUBLIC "-//W3C//DTD SVG 1.1//EN"
 "http://www.w3.org/Graphics/SVG/1.1/DTD/svg11.dtd">
<!-- Generated by graphviz version 10.0.1 (20240210.2158)
 -->
<!-- Title: snakemake_dag Pages: 1 -->
<svg width="436pt" height="188pt"
 viewBox="0.00 0.00 436.00 188.00" xmlns="http://www.w3.org/2000/svg" xmlns:xlink="http://www.w3.org/1999/xlink">
<g id="graph0" class="graph" transform="scale(1 1) rotate(0) translate(4 184)">
<title>snakemake_dag</title>
<polygon fill="white" stroke="none" points="-4,4 -4,-184 432,-184 432,4 -4,4"/>
<!-- 0 -->
<g id="node1" class="node">
<title>0</title>
<path fill="none" stroke="#d85656" stroke-width="2" d="M239.5,-36C239.5,-36 209.5,-36 209.5,-36 203.5,-36 197.5,-30 197.5,-24 197.5,-24 197.5,-12 197.5,-12 197.5,-6 203.5,0 209.5,0 209.5,0 239.5,0 239.5,0 245.5,0 251.5,-6 251.5,-12 251.5,-12 251.5,-24 251.5,-24 251.5,-30 245.5,-36 239.5,-36"/>
<text text-anchor="middle" x="224.5" y="-14.12" font-family="sans" font-size="10.00">all</text>
</g>
<!-- 1 -->
<g id="node2" class="node">
<title>1</title>
<path fill="none" stroke="#56d87b" stroke-width="2" d="M193,-180C193,-180 12,-180 12,-180 6,-180 0,-174 0,-168 0,-168 0,-156 0,-156 0,-150 6,-144 12,-144 12,-144 193,-144 193,-144 199,-144 205,-150 205,-156 205,-156 205,-168 205,-168 205,-174 199,-180 193,-180"/>
<text text-anchor="middle" x="102.5" y="-163.75" font-family="sans" font-size="10.00">standardize_metal_heterogeneity_sumstats</text>
<text text-anchor="middle" x="102.5" y="-152.5" font-family="sans" font-size="10.00">seqid: METAL_output_seq.13125.45_1</text>
</g>
<!-- 1&#45;&gt;0 -->
<g id="edge1" class="edge">
<title>1&#45;&gt;0</title>
<path fill="none" stroke="grey" stroke-width="2" d="M91.19,-143.03C80.7,-123.84 68.75,-93.3 83.5,-72 105.97,-39.54 150.97,-26.94 184.12,-22.05"/>
<polygon fill="grey" stroke="grey" stroke-width="2" points="184.12,-25.58 193.6,-20.87 183.25,-18.63 184.12,-25.58"/>
</g>
<!-- 3 -->
<g id="node4" class="node">
<title>3</title>
<path fill="none" stroke="#56a2d8" stroke-width="2" d="M214.75,-108C214.75,-108 104.25,-108 104.25,-108 98.25,-108 92.25,-102 92.25,-96 92.25,-96 92.25,-84 92.25,-84 92.25,-78 98.25,-72 104.25,-72 104.25,-72 214.75,-72 214.75,-72 220.75,-72 226.75,-78 226.75,-84 226.75,-84 226.75,-96 226.75,-96 226.75,-102 220.75,-108 214.75,-108"/>
<text text-anchor="middle" x="159.5" y="-86.12" font-family="sans" font-size="10.00">generate_min_pvalue_table</text>
</g>
<!-- 1&#45;&gt;3 -->
<g id="edge5" class="edge">
<title>1&#45;&gt;3</title>
<path fill="none" stroke="grey" stroke-width="2" d="M116.88,-143.34C122.91,-135.93 130.07,-127.14 136.78,-118.9"/>
<polygon fill="grey" stroke="grey" stroke-width="2" points="139.41,-121.21 143.01,-111.25 133.98,-116.79 139.41,-121.21"/>
</g>
<!-- 4 -->
<g id="node5" class="node">
<title>4</title>
<path fill="none" stroke="#c6d856" stroke-width="2" d="M322.62,-108C322.62,-108 256.38,-108 256.38,-108 250.38,-108 244.38,-102 244.38,-96 244.38,-96 244.38,-84 244.38,-84 244.38,-78 250.38,-72 256.38,-72 256.38,-72 322.62,-72 322.62,-72 328.62,-72 334.62,-78 334.62,-84 334.62,-84 334.62,-96 334.62,-96 334.62,-102 328.62,-108 322.62,-108"/>
<text text-anchor="middle" x="289.5" y="-86.12" font-family="sans" font-size="10.00">generate_if_table</text>
</g>
<!-- 1&#45;&gt;4 -->
<g id="edge7" class="edge">
<title>1&#45;&gt;4</title>
<path fill="none" stroke="grey" stroke-width="2" d="M150.17,-143.15C174.93,-133.89 205.38,-122.49 231.49,-112.72"/>
<polygon fill="grey" stroke="grey" stroke-width="2" points="232.56,-116.05 240.69,-109.27 230.1,-109.5 232.56,-116.05"/>
</g>
<!-- 2 -->
<g id="node3" class="node">
<title>2</title>
<path fill="none" stroke="#56d87b" stroke-width="2" d="M416,-180C416,-180 235,-180 235,-180 229,-180 223,-174 223,-168 223,-168 223,-156 223,-156 223,-150 229,-144 235,-144 235,-144 416,-144 416,-144 422,-144 428,-150 428,-156 428,-156 428,-168 428,-168 428,-174 422,-180 416,-180"/>
<text text-anchor="middle" x="325.5" y="-163.75" font-family="sans" font-size="10.00">standardize_metal_heterogeneity_sumstats</text>
<text text-anchor="middle" x="325.5" y="-152.5" font-family="sans" font-size="10.00">seqid: METAL_output_seq.2843.13_1</text>
</g>
<!-- 2&#45;&gt;0 -->
<g id="edge2" class="edge">
<title>2&#45;&gt;0</title>
<path fill="none" stroke="grey" stroke-width="2" d="M336.26,-143.18C346.23,-124.11 357.58,-93.68 343.5,-72 326.17,-45.31 291.94,-31.95 264.62,-25.33"/>
<polygon fill="grey" stroke="grey" stroke-width="2" points="265.73,-21.98 255.21,-23.3 264.25,-28.83 265.73,-21.98"/>
</g>
<!-- 2&#45;&gt;3 -->
<g id="edge6" class="edge">
<title>2&#45;&gt;3</title>
<path fill="none" stroke="grey" stroke-width="2" d="M283.18,-143.15C262.09,-134.26 236.35,-123.41 213.82,-113.91"/>
<polygon fill="grey" stroke="grey" stroke-width="2" points="215.39,-110.77 204.82,-110.11 212.67,-117.22 215.39,-110.77"/>
</g>
<!-- 2&#45;&gt;4 -->
<g id="edge8" class="edge">
<title>2&#45;&gt;4</title>
<path fill="none" stroke="grey" stroke-width="2" d="M316.42,-143.34C312.82,-136.34 308.59,-128.12 304.56,-120.28"/>
<polygon fill="grey" stroke="grey" stroke-width="2" points="307.78,-118.89 300.09,-111.59 301.55,-122.09 307.78,-118.89"/>
</g>
<!-- 3&#45;&gt;0 -->
<g id="edge3" class="edge">
<title>3&#45;&gt;0</title>
<path fill="none" stroke="grey" stroke-width="2" d="M175.9,-71.34C182.93,-63.77 191.3,-54.75 199.1,-46.35"/>
<polygon fill="grey" stroke="grey" stroke-width="2" points="201.58,-48.83 205.82,-39.12 196.45,-44.07 201.58,-48.83"/>
</g>
<!-- 4&#45;&gt;0 -->
<g id="edge4" class="edge">
<title>4&#45;&gt;0</title>
<path fill="none" stroke="grey" stroke-width="2" d="M273.1,-71.34C266.07,-63.77 257.7,-54.75 249.9,-46.35"/>
<polygon fill="grey" stroke="grey" stroke-width="2" points="252.55,-44.07 243.18,-39.12 247.42,-48.83 252.55,-44.07"/>
</g>
</g>
</svg>
