<?xml version="1.0" encoding="UTF-8" standalone="no"?>
<!DOCTYPE svg PUBLIC "-//W3C//DTD SVG 1.1//EN"
 "http://www.w3.org/Graphics/SVG/1.1/DTD/svg11.dtd">
<!-- Generated by graphviz version 12.2.1 (20241206.2353)
 -->
<!-- Title: snakemake_dag Pages: 1 -->
<svg width="451pt" height="260pt"
 viewBox="0.00 0.00 450.87 260.00" xmlns="http://www.w3.org/2000/svg" xmlns:xlink="http://www.w3.org/1999/xlink">
<g id="graph0" class="graph" transform="scale(1 1) rotate(0) translate(4 256)">
<title>snakemake_dag</title>
<polygon fill="white" stroke="none" points="-4,4 -4,-256 446.87,-256 446.87,4 -4,4"/>
<!-- 0 -->
<g id="node1" class="node">
<title>0</title>
<path fill="none" stroke="#78d856" stroke-width="2" d="M169.75,-36C169.75,-36 139.75,-36 139.75,-36 133.75,-36 127.75,-30 127.75,-24 127.75,-24 127.75,-12 127.75,-12 127.75,-6 133.75,0 139.75,0 139.75,0 169.75,0 169.75,0 175.75,0 181.75,-6 181.75,-12 181.75,-12 181.75,-24 181.75,-24 181.75,-30 175.75,-36 169.75,-36"/>
<text text-anchor="middle" x="154.75" y="-14.12" font-family="sans" font-size="10.00">all</text>
</g>
<!-- 1 -->
<g id="node2" class="node">
<title>1</title>
<path fill="none" stroke="#56a2d8" stroke-width="2" d="M136.12,-252C136.12,-252 53.37,-252 53.37,-252 47.37,-252 41.37,-246 41.37,-240 41.37,-240 41.37,-228 41.37,-228 41.37,-222 47.37,-216 53.37,-216 53.37,-216 136.12,-216 136.12,-216 142.12,-216 148.12,-222 148.12,-228 148.12,-228 148.12,-240 148.12,-240 148.12,-246 142.12,-252 136.12,-252"/>
<text text-anchor="middle" x="94.75" y="-235.75" font-family="sans" font-size="10.00">harmonize_sumstats</text>
<text text-anchor="middle" x="94.75" y="-224.5" font-family="sans" font-size="10.00">seqid: seq.3007.7</text>
</g>
<!-- 1&#45;&gt;0 -->
<g id="edge1" class="edge">
<title>1&#45;&gt;0</title>
<path fill="none" stroke="grey" stroke-width="2" d="M65.53,-215.07C53.06,-206.01 39.42,-193.97 30.75,-180 5.12,-138.72 -13.91,-111.95 13.75,-72 36.22,-39.54 81.22,-26.94 114.37,-22.05"/>
<polygon fill="grey" stroke="grey" stroke-width="2" points="114.37,-25.58 123.85,-20.87 113.5,-18.63 114.37,-25.58"/>
</g>
<!-- 2 -->
<g id="node3" class="node">
<title>2</title>
<path fill="none" stroke="#d85656" stroke-width="2" d="M137.62,-180C137.62,-180 51.87,-180 51.87,-180 45.87,-180 39.87,-174 39.87,-168 39.87,-168 39.87,-156 39.87,-156 39.87,-150 45.87,-144 51.87,-144 51.87,-144 137.62,-144 137.62,-144 143.62,-144 149.62,-150 149.62,-156 149.62,-156 149.62,-168 149.62,-168 149.62,-174 143.62,-180 137.62,-180"/>
<text text-anchor="middle" x="94.75" y="-158.12" font-family="sans" font-size="10.00">summarize_sumstats</text>
</g>
<!-- 1&#45;&gt;2 -->
<g id="edge7" class="edge">
<title>1&#45;&gt;2</title>
<path fill="none" stroke="grey" stroke-width="2" d="M94.75,-215.34C94.75,-208.75 94.75,-201.08 94.75,-193.67"/>
<polygon fill="grey" stroke="grey" stroke-width="2" points="98.25,-193.93 94.75,-183.93 91.25,-193.93 98.25,-193.93"/>
</g>
<!-- 6 -->
<g id="node7" class="node">
<title>6</title>
<path fill="none" stroke="#56d8c9" stroke-width="2" d="M262.5,-180C262.5,-180 221,-180 221,-180 215,-180 209,-174 209,-168 209,-168 209,-156 209,-156 209,-150 215,-144 221,-144 221,-144 262.5,-144 262.5,-144 268.5,-144 274.5,-150 274.5,-156 274.5,-156 274.5,-168 274.5,-168 274.5,-174 268.5,-180 262.5,-180"/>
<text text-anchor="middle" x="241.75" y="-158.12" font-family="sans" font-size="10.00">bgzip_tabix</text>
</g>
<!-- 1&#45;&gt;6 -->
<g id="edge10" class="edge">
<title>1&#45;&gt;6</title>
<path fill="none" stroke="grey" stroke-width="2" d="M132.22,-215.15C151.85,-205.81 176.03,-194.3 196.67,-184.47"/>
<polygon fill="grey" stroke="grey" stroke-width="2" points="198.1,-187.66 205.62,-180.2 195.09,-181.34 198.1,-187.66"/>
</g>
<!-- 2&#45;&gt;0 -->
<g id="edge2" class="edge">
<title>2&#45;&gt;0</title>
<path fill="none" stroke="grey" stroke-width="2" d="M58.46,-143.23C45,-134.6 31.2,-122.85 23.75,-108 16.58,-93.7 14.81,-85.27 23.75,-72 43.76,-42.32 83.51,-29.25 114.01,-23.51"/>
<polygon fill="grey" stroke="grey" stroke-width="2" points="114.55,-26.96 123.85,-21.9 113.42,-20.06 114.55,-26.96"/>
</g>
<!-- 3 -->
<g id="node4" class="node">
<title>3</title>
<path fill="none" stroke="#56d87b" stroke-width="2" d="M144.75,-108C144.75,-108 44.75,-108 44.75,-108 38.75,-108 32.75,-102 32.75,-96 32.75,-96 32.75,-84 32.75,-84 32.75,-78 38.75,-72 44.75,-72 44.75,-72 144.75,-72 144.75,-72 150.75,-72 156.75,-78 156.75,-84 156.75,-84 156.75,-96 156.75,-96 156.75,-102 150.75,-108 144.75,-108"/>
<text text-anchor="middle" x="94.75" y="-86.12" font-family="sans" font-size="10.00">create_min_pvalue_table</text>
</g>
<!-- 2&#45;&gt;3 -->
<g id="edge8" class="edge">
<title>2&#45;&gt;3</title>
<path fill="none" stroke="grey" stroke-width="2" d="M94.75,-143.34C94.75,-136.75 94.75,-129.08 94.75,-121.67"/>
<polygon fill="grey" stroke="grey" stroke-width="2" points="98.25,-121.93 94.75,-111.93 91.25,-121.93 98.25,-121.93"/>
</g>
<!-- 4 -->
<g id="node5" class="node">
<title>4</title>
<path fill="none" stroke="#d8a456" stroke-width="2" d="M242.62,-108C242.62,-108 186.87,-108 186.87,-108 180.87,-108 174.87,-102 174.87,-96 174.87,-96 174.87,-84 174.87,-84 174.87,-78 180.87,-72 186.87,-72 186.87,-72 242.62,-72 242.62,-72 248.62,-72 254.62,-78 254.62,-84 254.62,-84 254.62,-96 254.62,-96 254.62,-102 248.62,-108 242.62,-108"/>
<text text-anchor="middle" x="214.75" y="-86.12" font-family="sans" font-size="10.00">create_if_table</text>
</g>
<!-- 2&#45;&gt;4 -->
<g id="edge9" class="edge">
<title>2&#45;&gt;4</title>
<path fill="none" stroke="grey" stroke-width="2" d="M125.34,-143.15C139.87,-134.68 157.45,-124.42 173.17,-115.25"/>
<polygon fill="grey" stroke="grey" stroke-width="2" points="174.72,-118.4 181.6,-110.34 171.2,-112.35 174.72,-118.4"/>
</g>
<!-- 3&#45;&gt;0 -->
<g id="edge3" class="edge">
<title>3&#45;&gt;0</title>
<path fill="none" stroke="grey" stroke-width="2" d="M109.89,-71.34C116.31,-63.85 123.94,-54.95 131.07,-46.63"/>
<polygon fill="grey" stroke="grey" stroke-width="2" points="133.58,-49.07 137.43,-39.2 128.27,-44.51 133.58,-49.07"/>
</g>
<!-- 4&#45;&gt;0 -->
<g id="edge4" class="edge">
<title>4&#45;&gt;0</title>
<path fill="none" stroke="grey" stroke-width="2" d="M199.61,-71.34C193.19,-63.85 185.56,-54.95 178.43,-46.63"/>
<polygon fill="grey" stroke="grey" stroke-width="2" points="181.23,-44.51 172.06,-39.2 175.91,-49.07 181.23,-44.51"/>
</g>
<!-- 5 -->
<g id="node6" class="node">
<title>5</title>
<path fill="none" stroke="#c6d856" stroke-width="2" d="M430.87,-108C430.87,-108 322.62,-108 322.62,-108 316.62,-108 310.62,-102 310.62,-96 310.62,-96 310.62,-84 310.62,-84 310.62,-78 316.62,-72 322.62,-72 322.62,-72 430.87,-72 430.87,-72 436.87,-72 442.87,-78 442.87,-84 442.87,-84 442.87,-96 442.87,-96 442.87,-102 436.87,-108 430.87,-108"/>
<text text-anchor="middle" x="376.75" y="-86.12" font-family="sans" font-size="10.00">create_snp_mapping_table</text>
</g>
<!-- 5&#45;&gt;0 -->
<g id="edge5" class="edge">
<title>5&#45;&gt;0</title>
<path fill="none" stroke="grey" stroke-width="2" d="M319.87,-71.06C280.74,-58.73 229.73,-42.64 194.82,-31.63"/>
<polygon fill="grey" stroke="grey" stroke-width="2" points="196.22,-28.41 185.63,-28.74 194.11,-35.08 196.22,-28.41"/>
</g>
<!-- 6&#45;&gt;0 -->
<g id="edge6" class="edge">
<title>6&#45;&gt;0</title>
<path fill="none" stroke="grey" stroke-width="2" d="M253.8,-143C264.83,-124.06 277.51,-93.99 263.75,-72 248.73,-48 219.39,-34.59 194.93,-27.26"/>
<polygon fill="grey" stroke="grey" stroke-width="2" points="196.18,-23.97 185.61,-24.75 194.35,-30.73 196.18,-23.97"/>
</g>
</g>
</svg>
