<?xml version="1.0" encoding="UTF-8" standalone="no"?>
<!DOCTYPE svg PUBLIC "-//W3C//DTD SVG 1.1//EN"
 "http://www.w3.org/Graphics/SVG/1.1/DTD/svg11.dtd">
<!-- Generated by graphviz version 12.2.1 (20241206.2353)
 -->
<!-- Title: snakemake_dag Pages: 1 -->
<svg width="440pt" height="332pt"
 viewBox="0.00 0.00 440.13 332.00" xmlns="http://www.w3.org/2000/svg" xmlns:xlink="http://www.w3.org/1999/xlink">
<g id="graph0" class="graph" transform="scale(1 1) rotate(0) translate(4 328)">
<title>snakemake_dag</title>
<polygon fill="white" stroke="none" points="-4,4 -4,-328 436.13,-328 436.13,4 -4,4"/>
<!-- 0 -->
<g id="node1" class="node">
<title>0</title>
<path fill="none" stroke="#59d856" stroke-width="2" d="M219.01,-36C219.01,-36 189.01,-36 189.01,-36 183.01,-36 177.01,-30 177.01,-24 177.01,-24 177.01,-12 177.01,-12 177.01,-6 183.01,0 189.01,0 189.01,0 219.01,0 219.01,0 225.01,0 231.01,-6 231.01,-12 231.01,-12 231.01,-24 231.01,-24 231.01,-30 225.01,-36 219.01,-36"/>
<text text-anchor="middle" x="204.01" y="-14.12" font-family="sans" font-size="10.00">all</text>
</g>
<!-- 1 -->
<g id="node2" class="node">
<title>1</title>
<path fill="none" stroke="#56d8d8" stroke-width="2" d="M134.01,-108C134.01,-108 34.01,-108 34.01,-108 28.01,-108 22.01,-102 22.01,-96 22.01,-96 22.01,-84 22.01,-84 22.01,-78 28.01,-72 34.01,-72 34.01,-72 134.01,-72 134.01,-72 140.01,-72 146.01,-78 146.01,-84 146.01,-84 146.01,-96 146.01,-96 146.01,-102 140.01,-108 134.01,-108"/>
<text text-anchor="middle" x="84.01" y="-86.12" font-family="sans" font-size="10.00">create_min_pvalue_table</text>
</g>
<!-- 1&#45;&gt;0 -->
<g id="edge1" class="edge">
<title>1&#45;&gt;0</title>
<path fill="none" stroke="grey" stroke-width="2" d="M114.6,-71.15C130.06,-62.14 148.98,-51.1 165.43,-41.51"/>
<polygon fill="grey" stroke="grey" stroke-width="2" points="166.86,-44.72 173.73,-36.66 163.33,-38.68 166.86,-44.72"/>
</g>
<!-- 2 -->
<g id="node3" class="node">
<title>2</title>
<path fill="none" stroke="#d6d856" stroke-width="2" d="M146.88,-180C146.88,-180 61.13,-180 61.13,-180 55.13,-180 49.13,-174 49.13,-168 49.13,-168 49.13,-156 49.13,-156 49.13,-150 55.13,-144 61.13,-144 61.13,-144 146.88,-144 146.88,-144 152.88,-144 158.88,-150 158.88,-156 158.88,-156 158.88,-168 158.88,-168 158.88,-174 152.88,-180 146.88,-180"/>
<text text-anchor="middle" x="104.01" y="-158.12" font-family="sans" font-size="10.00">summarize_sumstats</text>
</g>
<!-- 2&#45;&gt;1 -->
<g id="edge6" class="edge">
<title>2&#45;&gt;1</title>
<path fill="none" stroke="grey" stroke-width="2" d="M98.96,-143.34C97.06,-136.67 94.83,-128.89 92.69,-121.39"/>
<polygon fill="grey" stroke="grey" stroke-width="2" points="96.07,-120.47 89.96,-111.81 89.34,-122.39 96.07,-120.47"/>
</g>
<!-- 5 -->
<g id="node6" class="node">
<title>5</title>
<path fill="none" stroke="#97d856" stroke-width="2" d="M231.88,-108C231.88,-108 176.13,-108 176.13,-108 170.13,-108 164.13,-102 164.13,-96 164.13,-96 164.13,-84 164.13,-84 164.13,-78 170.13,-72 176.13,-72 176.13,-72 231.88,-72 231.88,-72 237.88,-72 243.88,-78 243.88,-84 243.88,-84 243.88,-96 243.88,-96 243.88,-102 237.88,-108 231.88,-108"/>
<text text-anchor="middle" x="204.01" y="-86.12" font-family="sans" font-size="10.00">create_if_table</text>
</g>
<!-- 2&#45;&gt;5 -->
<g id="edge9" class="edge">
<title>2&#45;&gt;5</title>
<path fill="none" stroke="grey" stroke-width="2" d="M129.5,-143.15C141.26,-134.93 155.41,-125.02 168.21,-116.06"/>
<polygon fill="grey" stroke="grey" stroke-width="2" points="169.9,-119.15 176.08,-110.55 165.88,-113.42 169.9,-119.15"/>
</g>
<!-- 3 -->
<g id="node4" class="node">
<title>3</title>
<path fill="none" stroke="#56d89a" stroke-width="2" d="M127.76,-252C127.76,-252 80.26,-252 80.26,-252 74.26,-252 68.26,-246 68.26,-240 68.26,-240 68.26,-228 68.26,-228 68.26,-222 74.26,-216 80.26,-216 80.26,-216 127.76,-216 127.76,-216 133.76,-216 139.76,-222 139.76,-228 139.76,-228 139.76,-240 139.76,-240 139.76,-246 133.76,-252 127.76,-252"/>
<text text-anchor="middle" x="104.01" y="-230.12" font-family="sans" font-size="10.00">post_filtering</text>
</g>
<!-- 3&#45;&gt;0 -->
<g id="edge4" class="edge">
<title>3&#45;&gt;0</title>
<path fill="none" stroke="grey" stroke-width="2" d="M76.23,-215.01C63.77,-205.79 49.72,-193.63 40.01,-180 11.3,-139.7 -16.94,-111.39 13.01,-72 31.12,-48.17 112.81,-32.26 163.31,-24.5"/>
<polygon fill="grey" stroke="grey" stroke-width="2" points="163.66,-27.99 173.04,-23.06 162.64,-21.06 163.66,-27.99"/>
</g>
<!-- 3&#45;&gt;2 -->
<g id="edge7" class="edge">
<title>3&#45;&gt;2</title>
<path fill="none" stroke="grey" stroke-width="2" d="M104.01,-215.34C104.01,-208.75 104.01,-201.08 104.01,-193.67"/>
<polygon fill="grey" stroke="grey" stroke-width="2" points="107.51,-193.93 104.01,-183.93 100.51,-193.93 107.51,-193.93"/>
</g>
<!-- 7 -->
<g id="node8" class="node">
<title>7</title>
<path fill="none" stroke="#d85656" stroke-width="2" d="M271.76,-180C271.76,-180 230.26,-180 230.26,-180 224.26,-180 218.26,-174 218.26,-168 218.26,-168 218.26,-156 218.26,-156 218.26,-150 224.26,-144 230.26,-144 230.26,-144 271.76,-144 271.76,-144 277.76,-144 283.76,-150 283.76,-156 283.76,-156 283.76,-168 283.76,-168 283.76,-174 277.76,-180 271.76,-180"/>
<text text-anchor="middle" x="251.01" y="-158.12" font-family="sans" font-size="10.00">bgzip_tabix</text>
</g>
<!-- 3&#45;&gt;7 -->
<g id="edge10" class="edge">
<title>3&#45;&gt;7</title>
<path fill="none" stroke="grey" stroke-width="2" d="M140.72,-215.52C160.44,-206.13 184.9,-194.48 205.78,-184.54"/>
<polygon fill="grey" stroke="grey" stroke-width="2" points="207.02,-187.82 214.54,-180.36 204.01,-181.5 207.02,-187.82"/>
</g>
<!-- 4 -->
<g id="node5" class="node">
<title>4</title>
<path fill="none" stroke="#569ad8" stroke-width="2" d="M145.38,-324C145.38,-324 62.63,-324 62.63,-324 56.63,-324 50.63,-318 50.63,-312 50.63,-312 50.63,-300 50.63,-300 50.63,-294 56.63,-288 62.63,-288 62.63,-288 145.38,-288 145.38,-288 151.38,-288 157.38,-294 157.38,-300 157.38,-300 157.38,-312 157.38,-312 157.38,-318 151.38,-324 145.38,-324"/>
<text text-anchor="middle" x="104.01" y="-307.75" font-family="sans" font-size="10.00">harmonize_sumstats</text>
<text text-anchor="middle" x="104.01" y="-296.5" font-family="sans" font-size="10.00">seqid: seq.3007.7</text>
</g>
<!-- 4&#45;&gt;3 -->
<g id="edge8" class="edge">
<title>4&#45;&gt;3</title>
<path fill="none" stroke="grey" stroke-width="2" d="M104.01,-287.34C104.01,-280.75 104.01,-273.08 104.01,-265.67"/>
<polygon fill="grey" stroke="grey" stroke-width="2" points="107.51,-265.93 104.01,-255.93 100.51,-265.93 107.51,-265.93"/>
</g>
<!-- 5&#45;&gt;0 -->
<g id="edge2" class="edge">
<title>5&#45;&gt;0</title>
<path fill="none" stroke="grey" stroke-width="2" d="M204.01,-71.34C204.01,-64.75 204.01,-57.08 204.01,-49.67"/>
<polygon fill="grey" stroke="grey" stroke-width="2" points="207.51,-49.93 204.01,-39.93 200.51,-49.93 207.51,-49.93"/>
</g>
<!-- 6 -->
<g id="node7" class="node">
<title>6</title>
<path fill="none" stroke="#d89556" stroke-width="2" d="M420.13,-108C420.13,-108 311.88,-108 311.88,-108 305.88,-108 299.88,-102 299.88,-96 299.88,-96 299.88,-84 299.88,-84 299.88,-78 305.88,-72 311.88,-72 311.88,-72 420.13,-72 420.13,-72 426.13,-72 432.13,-78 432.13,-84 432.13,-84 432.13,-96 432.13,-96 432.13,-102 426.13,-108 420.13,-108"/>
<text text-anchor="middle" x="366.01" y="-86.12" font-family="sans" font-size="10.00">create_snp_mapping_table</text>
</g>
<!-- 6&#45;&gt;0 -->
<g id="edge3" class="edge">
<title>6&#45;&gt;0</title>
<path fill="none" stroke="grey" stroke-width="2" d="M324.71,-71.15C299.85,-60.41 268.36,-46.81 243.78,-36.18"/>
<polygon fill="grey" stroke="grey" stroke-width="2" points="245.32,-33.04 234.76,-32.29 242.55,-39.47 245.32,-33.04"/>
</g>
<!-- 7&#45;&gt;0 -->
<g id="edge5" class="edge">
<title>7&#45;&gt;0</title>
<path fill="none" stroke="grey" stroke-width="2" d="M255.31,-143.24C258.91,-124.76 262.14,-95.32 253.01,-72 249.25,-62.4 242.85,-53.5 235.89,-45.83"/>
<polygon fill="grey" stroke="grey" stroke-width="2" points="238.6,-43.6 229.07,-38.98 233.64,-48.54 238.6,-43.6"/>
</g>
</g>
</svg>
