<?xml version="1.0" encoding="UTF-8" standalone="no"?>
<!DOCTYPE svg PUBLIC "-//W3C//DTD SVG 1.1//EN"
 "http://www.w3.org/Graphics/SVG/1.1/DTD/svg11.dtd">
<!-- Generated by graphviz version 12.2.0 (20241103.1931)
 -->
<!-- Title: snakemake_dag Pages: 1 -->
<svg width="700pt" height="260pt"
 viewBox="0.00 0.00 699.50 260.00" xmlns="http://www.w3.org/2000/svg" xmlns:xlink="http://www.w3.org/1999/xlink">
<g id="graph0" class="graph" transform="scale(1 1) rotate(0) translate(4 256)">
<title>snakemake_dag</title>
<polygon fill="white" stroke="none" points="-4,4 -4,-256 695.5,-256 695.5,4 -4,4"/>
<!-- 0 -->
<g id="node1" class="node">
<title>0</title>
<path fill="none" stroke="#78d856" stroke-width="2" d="M334.75,-36C334.75,-36 304.75,-36 304.75,-36 298.75,-36 292.75,-30 292.75,-24 292.75,-24 292.75,-12 292.75,-12 292.75,-6 298.75,0 304.75,0 304.75,0 334.75,0 334.75,0 340.75,0 346.75,-6 346.75,-12 346.75,-12 346.75,-24 346.75,-24 346.75,-30 340.75,-36 334.75,-36"/>
<text text-anchor="middle" x="319.75" y="-14.12" font-family="sans" font-size="10.00">all</text>
</g>
<!-- 1 -->
<g id="node2" class="node">
<title>1</title>
<path fill="none" stroke="#d8a456" stroke-width="2" d="M135.12,-252C135.12,-252 52.38,-252 52.38,-252 46.37,-252 40.38,-246 40.38,-240 40.38,-240 40.38,-228 40.38,-228 40.38,-222 46.38,-216 52.38,-216 52.38,-216 135.12,-216 135.12,-216 141.12,-216 147.12,-222 147.12,-228 147.12,-228 147.12,-240 147.12,-240 147.12,-246 141.12,-252 135.12,-252"/>
<text text-anchor="middle" x="93.75" y="-235.75" font-family="sans" font-size="10.00">harmonize_sumstats</text>
<text text-anchor="middle" x="93.75" y="-224.5" font-family="sans" font-size="10.00">seqid: seq.13104.32</text>
</g>
<!-- 1&#45;&gt;0 -->
<g id="edge1" class="edge">
<title>1&#45;&gt;0</title>
<path fill="none" stroke="grey" stroke-width="2" d="M93.7,-215.01C94.62,-182 101.4,-111.5 140.75,-72 177.54,-35.07 238.74,-23.63 279.17,-20.22"/>
<polygon fill="grey" stroke="grey" stroke-width="2" points="279.26,-23.72 289,-19.55 278.79,-16.74 279.26,-23.72"/>
</g>
<!-- 3 -->
<g id="node4" class="node">
<title>3</title>
<path fill="none" stroke="#56d87b" stroke-width="2" d="M231.62,-180C231.62,-180 145.88,-180 145.88,-180 139.88,-180 133.88,-174 133.88,-168 133.88,-168 133.88,-156 133.88,-156 133.88,-150 139.88,-144 145.88,-144 145.88,-144 231.62,-144 231.62,-144 237.62,-144 243.62,-150 243.62,-156 243.62,-156 243.62,-168 243.62,-168 243.62,-174 237.62,-180 231.62,-180"/>
<text text-anchor="middle" x="188.75" y="-158.12" font-family="sans" font-size="10.00">summarize_sumstats</text>
</g>
<!-- 1&#45;&gt;3 -->
<g id="edge10" class="edge">
<title>1&#45;&gt;3</title>
<path fill="none" stroke="grey" stroke-width="2" d="M117.72,-215.34C128.78,-207.19 142.1,-197.37 154.21,-188.45"/>
<polygon fill="grey" stroke="grey" stroke-width="2" points="156.04,-191.45 162.02,-182.7 151.89,-185.81 156.04,-191.45"/>
</g>
<!-- 8 -->
<g id="node9" class="node">
<title>8</title>
<path fill="none" stroke="#56d8c9" stroke-width="2" d="M53.5,-180C53.5,-180 12,-180 12,-180 6,-180 0,-174 0,-168 0,-168 0,-156 0,-156 0,-150 6,-144 12,-144 12,-144 53.5,-144 53.5,-144 59.5,-144 65.5,-150 65.5,-156 65.5,-156 65.5,-168 65.5,-168 65.5,-174 59.5,-180 53.5,-180"/>
<text text-anchor="middle" x="32.75" y="-158.12" font-family="sans" font-size="10.00">bgzip_tabix</text>
</g>
<!-- 1&#45;&gt;8 -->
<g id="edge16" class="edge">
<title>1&#45;&gt;8</title>
<path fill="none" stroke="grey" stroke-width="2" d="M78.36,-215.34C71.83,-207.85 64.08,-198.95 56.83,-190.63"/>
<polygon fill="grey" stroke="grey" stroke-width="2" points="59.55,-188.42 50.34,-183.18 54.27,-193.02 59.55,-188.42"/>
</g>
<!-- 2 -->
<g id="node3" class="node">
<title>2</title>
<path fill="none" stroke="#d8a456" stroke-width="2" d="M639.12,-252C639.12,-252 556.38,-252 556.38,-252 550.38,-252 544.38,-246 544.38,-240 544.38,-240 544.38,-228 544.38,-228 544.38,-222 550.38,-216 556.38,-216 556.38,-216 639.12,-216 639.12,-216 645.12,-216 651.12,-222 651.12,-228 651.12,-228 651.12,-240 651.12,-240 651.12,-246 645.12,-252 639.12,-252"/>
<text text-anchor="middle" x="597.75" y="-235.75" font-family="sans" font-size="10.00">harmonize_sumstats</text>
<text text-anchor="middle" x="597.75" y="-224.5" font-family="sans" font-size="10.00">seqid: seq.13105.7</text>
</g>
<!-- 2&#45;&gt;0 -->
<g id="edge2" class="edge">
<title>2&#45;&gt;0</title>
<path fill="none" stroke="grey" stroke-width="2" d="M601.68,-215.05C607.76,-182.09 615.22,-111.69 578.75,-72 549.77,-40.46 425.38,-26.74 360.1,-21.62"/>
<polygon fill="grey" stroke="grey" stroke-width="2" points="360.75,-18.16 350.52,-20.9 360.23,-25.14 360.75,-18.16"/>
</g>
<!-- 4 -->
<g id="node5" class="node">
<title>4</title>
<path fill="none" stroke="#56d87b" stroke-width="2" d="M407.62,-180C407.62,-180 321.88,-180 321.88,-180 315.88,-180 309.88,-174 309.88,-168 309.88,-168 309.88,-156 309.88,-156 309.88,-150 315.88,-144 321.88,-144 321.88,-144 407.62,-144 407.62,-144 413.62,-144 419.62,-150 419.62,-156 419.62,-156 419.62,-168 419.62,-168 419.62,-174 413.62,-180 407.62,-180"/>
<text text-anchor="middle" x="364.75" y="-158.12" font-family="sans" font-size="10.00">summarize_sumstats</text>
</g>
<!-- 2&#45;&gt;4 -->
<g id="edge11" class="edge">
<title>2&#45;&gt;4</title>
<path fill="none" stroke="grey" stroke-width="2" d="M543.42,-216.68C510.34,-206.74 467.8,-193.96 432.53,-183.36"/>
<polygon fill="grey" stroke="grey" stroke-width="2" points="433.87,-180.11 423.28,-180.59 431.85,-186.81 433.87,-180.11"/>
</g>
<!-- 9 -->
<g id="node10" class="node">
<title>9</title>
<path fill="none" stroke="#56d8c9" stroke-width="2" d="M679.5,-108C679.5,-108 638,-108 638,-108 632,-108 626,-102 626,-96 626,-96 626,-84 626,-84 626,-78 632,-72 638,-72 638,-72 679.5,-72 679.5,-72 685.5,-72 691.5,-78 691.5,-84 691.5,-84 691.5,-96 691.5,-96 691.5,-102 685.5,-108 679.5,-108"/>
<text text-anchor="middle" x="658.75" y="-86.12" font-family="sans" font-size="10.00">bgzip_tabix</text>
</g>
<!-- 2&#45;&gt;9 -->
<g id="edge17" class="edge">
<title>2&#45;&gt;9</title>
<path fill="none" stroke="grey" stroke-width="2" d="M605.48,-215.02C615.7,-191.22 633.85,-148.97 646.09,-120.48"/>
<polygon fill="grey" stroke="grey" stroke-width="2" points="649.16,-122.19 649.89,-111.62 642.73,-119.43 649.16,-122.19"/>
</g>
<!-- 3&#45;&gt;0 -->
<g id="edge3" class="edge">
<title>3&#45;&gt;0</title>
<path fill="none" stroke="grey" stroke-width="2" d="M170.93,-143.04C154.38,-124.12 134.54,-94.07 150.75,-72 179.96,-32.23 238.95,-21.49 278.92,-19.02"/>
<polygon fill="grey" stroke="grey" stroke-width="2" points="279.06,-22.52 288.9,-18.59 278.76,-15.52 279.06,-22.52"/>
</g>
<!-- 5 -->
<g id="node6" class="node">
<title>5</title>
<path fill="none" stroke="#c6d856" stroke-width="2" d="M369.75,-108C369.75,-108 269.75,-108 269.75,-108 263.75,-108 257.75,-102 257.75,-96 257.75,-96 257.75,-84 257.75,-84 257.75,-78 263.75,-72 269.75,-72 269.75,-72 369.75,-72 369.75,-72 375.75,-72 381.75,-78 381.75,-84 381.75,-84 381.75,-96 381.75,-96 381.75,-102 375.75,-108 369.75,-108"/>
<text text-anchor="middle" x="319.75" y="-86.12" font-family="sans" font-size="10.00">create_min_pvalue_table</text>
</g>
<!-- 3&#45;&gt;5 -->
<g id="edge12" class="edge">
<title>3&#45;&gt;5</title>
<path fill="none" stroke="grey" stroke-width="2" d="M222.15,-143.15C238.31,-134.52 257.95,-124.02 275.36,-114.72"/>
<polygon fill="grey" stroke="grey" stroke-width="2" points="276.58,-118.04 283.75,-110.24 273.28,-111.87 276.58,-118.04"/>
</g>
<!-- 6 -->
<g id="node7" class="node">
<title>6</title>
<path fill="none" stroke="#56a2d8" stroke-width="2" d="M227.62,-108C227.62,-108 171.88,-108 171.88,-108 165.88,-108 159.88,-102 159.88,-96 159.88,-96 159.88,-84 159.88,-84 159.88,-78 165.88,-72 171.88,-72 171.88,-72 227.62,-72 227.62,-72 233.62,-72 239.62,-78 239.62,-84 239.62,-84 239.62,-96 239.62,-96 239.62,-102 233.62,-108 227.62,-108"/>
<text text-anchor="middle" x="199.75" y="-86.12" font-family="sans" font-size="10.00">create_if_table</text>
</g>
<!-- 3&#45;&gt;6 -->
<g id="edge14" class="edge">
<title>3&#45;&gt;6</title>
<path fill="none" stroke="grey" stroke-width="2" d="M191.53,-143.34C192.56,-136.75 193.77,-129.08 194.93,-121.67"/>
<polygon fill="grey" stroke="grey" stroke-width="2" points="198.37,-122.31 196.47,-111.89 191.46,-121.23 198.37,-122.31"/>
</g>
<!-- 4&#45;&gt;0 -->
<g id="edge4" class="edge">
<title>4&#45;&gt;0</title>
<path fill="none" stroke="grey" stroke-width="2" d="M377.42,-143.24C388.92,-124.76 402.44,-95.31 390.75,-72 383.76,-58.07 371.19,-46.86 358.54,-38.41"/>
<polygon fill="grey" stroke="grey" stroke-width="2" points="360.48,-35.49 350.12,-33.26 356.83,-41.47 360.48,-35.49"/>
</g>
<!-- 4&#45;&gt;5 -->
<g id="edge13" class="edge">
<title>4&#45;&gt;5</title>
<path fill="none" stroke="grey" stroke-width="2" d="M353.39,-143.34C348.79,-136.18 343.36,-127.73 338.22,-119.73"/>
<polygon fill="grey" stroke="grey" stroke-width="2" points="341.25,-117.97 332.9,-111.45 335.36,-121.75 341.25,-117.97"/>
</g>
<!-- 4&#45;&gt;6 -->
<g id="edge15" class="edge">
<title>4&#45;&gt;6</title>
<path fill="none" stroke="grey" stroke-width="2" d="M322.69,-143.15C301.32,-134.09 275.15,-122.99 252.45,-113.36"/>
<polygon fill="grey" stroke="grey" stroke-width="2" points="253.96,-110.19 243.38,-109.51 251.22,-116.64 253.96,-110.19"/>
</g>
<!-- 5&#45;&gt;0 -->
<g id="edge5" class="edge">
<title>5&#45;&gt;0</title>
<path fill="none" stroke="grey" stroke-width="2" d="M319.75,-71.34C319.75,-64.75 319.75,-57.08 319.75,-49.67"/>
<polygon fill="grey" stroke="grey" stroke-width="2" points="323.25,-49.93 319.75,-39.93 316.25,-49.93 323.25,-49.93"/>
</g>
<!-- 6&#45;&gt;0 -->
<g id="edge6" class="edge">
<title>6&#45;&gt;0</title>
<path fill="none" stroke="grey" stroke-width="2" d="M230.34,-71.15C245.8,-62.14 264.72,-51.1 281.17,-41.51"/>
<polygon fill="grey" stroke="grey" stroke-width="2" points="282.6,-44.72 289.47,-36.66 279.07,-38.68 282.6,-44.72"/>
</g>
<!-- 7 -->
<g id="node8" class="node">
<title>7</title>
<path fill="none" stroke="#d85656" stroke-width="2" d="M557.88,-108C557.88,-108 449.62,-108 449.62,-108 443.62,-108 437.62,-102 437.62,-96 437.62,-96 437.62,-84 437.62,-84 437.62,-78 443.62,-72 449.62,-72 449.62,-72 557.88,-72 557.88,-72 563.88,-72 569.88,-78 569.88,-84 569.88,-84 569.88,-96 569.88,-96 569.88,-102 563.88,-108 557.88,-108"/>
<text text-anchor="middle" x="503.75" y="-86.12" font-family="sans" font-size="10.00">create_snp_mapping_table</text>
</g>
<!-- 7&#45;&gt;0 -->
<g id="edge7" class="edge">
<title>7&#45;&gt;0</title>
<path fill="none" stroke="grey" stroke-width="2" d="M456.84,-71.15C426.79,-59.72 388.21,-45.05 359.64,-34.18"/>
<polygon fill="grey" stroke="grey" stroke-width="2" points="361.09,-30.98 350.5,-30.7 358.6,-37.53 361.09,-30.98"/>
</g>
<!-- 8&#45;&gt;0 -->
<g id="edge8" class="edge">
<title>8&#45;&gt;0</title>
<path fill="none" stroke="grey" stroke-width="2" d="M37.21,-143.35C43.3,-122.95 56.26,-89.9 79.75,-72 110.67,-48.44 219.17,-31.57 279.14,-23.8"/>
<polygon fill="grey" stroke="grey" stroke-width="2" points="279.37,-27.3 288.86,-22.57 278.5,-20.35 279.37,-27.3"/>
</g>
<!-- 9&#45;&gt;0 -->
<g id="edge9" class="edge">
<title>9&#45;&gt;0</title>
<path fill="none" stroke="grey" stroke-width="2" d="M625.08,-76.06C620.63,-74.57 616.11,-73.17 611.75,-72 523.32,-48.16 416.92,-31.88 360.13,-24.15"/>
<polygon fill="grey" stroke="grey" stroke-width="2" points="360.84,-20.71 350.47,-22.85 359.91,-27.65 360.84,-20.71"/>
</g>
</g>
</svg>
