<?xml version="1.0" encoding="UTF-8" standalone="no"?>
<!DOCTYPE svg PUBLIC "-//W3C//DTD SVG 1.1//EN"
 "http://www.w3.org/Graphics/SVG/1.1/DTD/svg11.dtd">
<!-- Generated by graphviz version 10.0.1 (20240210.2158)
 -->
<!-- Title: snakemake_dag Pages: 1 -->
<svg width="772pt" height="260pt"
 viewBox="0.00 0.00 771.75 260.00" xmlns="http://www.w3.org/2000/svg" xmlns:xlink="http://www.w3.org/1999/xlink">
<g id="graph0" class="graph" transform="scale(1 1) rotate(0) translate(4 256)">
<title>snakemake_dag</title>
<polygon fill="white" stroke="none" points="-4,4 -4,-256 767.75,-256 767.75,4 -4,4"/>
<!-- 0 -->
<g id="node1" class="node">
<title>0</title>
<path fill="none" stroke="#97d856" stroke-width="2" d="M390.62,-36C390.62,-36 360.62,-36 360.62,-36 354.62,-36 348.62,-30 348.62,-24 348.62,-24 348.62,-12 348.62,-12 348.62,-6 354.62,0 360.62,0 360.62,0 390.62,0 390.62,0 396.62,0 402.62,-6 402.62,-12 402.62,-12 402.62,-24 402.62,-24 402.62,-30 396.62,-36 390.62,-36"/>
<text text-anchor="middle" x="375.62" y="-14.12" font-family="sans" font-size="10.00">all</text>
</g>
<!-- 1 -->
<g id="node2" class="node">
<title>1</title>
<path fill="none" stroke="#d85656" stroke-width="2" d="M169,-252C169,-252 86.25,-252 86.25,-252 80.25,-252 74.25,-246 74.25,-240 74.25,-240 74.25,-228 74.25,-228 74.25,-222 80.25,-216 86.25,-216 86.25,-216 169,-216 169,-216 175,-216 181,-222 181,-228 181,-228 181,-240 181,-240 181,-246 175,-252 169,-252"/>
<text text-anchor="middle" x="127.62" y="-235.75" font-family="sans" font-size="10.00">harmonize_sumstats</text>
<text text-anchor="middle" x="127.62" y="-224.5" font-family="sans" font-size="10.00">seqid: seq.13104.32</text>
</g>
<!-- 1&#45;&gt;0 -->
<g id="edge1" class="edge">
<title>1&#45;&gt;0</title>
<path fill="none" stroke="grey" stroke-width="2" d="M127.59,-215.15C128.52,-182.06 135.42,-110.99 175.62,-72 218.51,-30.41 290.07,-20.49 334.96,-18.64"/>
<polygon fill="grey" stroke="grey" stroke-width="2" points="335.04,-22.14 344.95,-18.38 334.86,-15.15 335.04,-22.14"/>
</g>
<!-- 3 -->
<g id="node4" class="node">
<title>3</title>
<path fill="none" stroke="#56d8d8" stroke-width="2" d="M276.5,-180C276.5,-180 190.75,-180 190.75,-180 184.75,-180 178.75,-174 178.75,-168 178.75,-168 178.75,-156 178.75,-156 178.75,-150 184.75,-144 190.75,-144 190.75,-144 276.5,-144 276.5,-144 282.5,-144 288.5,-150 288.5,-156 288.5,-156 288.5,-168 288.5,-168 288.5,-174 282.5,-180 276.5,-180"/>
<text text-anchor="middle" x="233.62" y="-158.12" font-family="sans" font-size="10.00">summarize_sumstats</text>
</g>
<!-- 1&#45;&gt;3 -->
<g id="edge12" class="edge">
<title>1&#45;&gt;3</title>
<path fill="none" stroke="grey" stroke-width="2" d="M154.65,-215.15C167.23,-206.84 182.41,-196.82 196.09,-187.79"/>
<polygon fill="grey" stroke="grey" stroke-width="2" points="197.71,-190.91 204.13,-182.48 193.85,-185.07 197.71,-190.91"/>
</g>
<!-- 8 -->
<g id="node9" class="node">
<title>8</title>
<path fill="none" stroke="#59d856" stroke-width="2" d="M87.25,-180C87.25,-180 12,-180 12,-180 6,-180 0,-174 0,-168 0,-168 0,-156 0,-156 0,-150 6,-144 12,-144 12,-144 87.25,-144 87.25,-144 93.25,-144 99.25,-150 99.25,-156 99.25,-156 99.25,-168 99.25,-168 99.25,-174 93.25,-180 87.25,-180"/>
<text text-anchor="middle" x="49.62" y="-158.12" font-family="sans" font-size="10.00">annotate_sumstats</text>
</g>
<!-- 1&#45;&gt;8 -->
<g id="edge18" class="edge">
<title>1&#45;&gt;8</title>
<path fill="none" stroke="grey" stroke-width="2" d="M107.94,-215.34C99.23,-207.52 88.81,-198.16 79.19,-189.53"/>
<polygon fill="grey" stroke="grey" stroke-width="2" points="81.61,-187 71.83,-182.92 76.93,-192.21 81.61,-187"/>
</g>
<!-- 2 -->
<g id="node3" class="node">
<title>2</title>
<path fill="none" stroke="#d85656" stroke-width="2" d="M523,-252C523,-252 440.25,-252 440.25,-252 434.25,-252 428.25,-246 428.25,-240 428.25,-240 428.25,-228 428.25,-228 428.25,-222 434.25,-216 440.25,-216 440.25,-216 523,-216 523,-216 529,-216 535,-222 535,-228 535,-228 535,-240 535,-240 535,-246 529,-252 523,-252"/>
<text text-anchor="middle" x="481.62" y="-235.75" font-family="sans" font-size="10.00">harmonize_sumstats</text>
<text text-anchor="middle" x="481.62" y="-224.5" font-family="sans" font-size="10.00">seqid: seq.13105.7</text>
</g>
<!-- 2&#45;&gt;0 -->
<g id="edge2" class="edge">
<title>2&#45;&gt;0</title>
<path fill="none" stroke="grey" stroke-width="2" d="M480.7,-215.13C478.32,-183.81 469.95,-117.95 440.62,-72 433.71,-61.16 423.83,-51.49 413.85,-43.48"/>
<polygon fill="grey" stroke="grey" stroke-width="2" points="416.06,-40.76 405.96,-37.56 411.86,-46.36 416.06,-40.76"/>
</g>
<!-- 4 -->
<g id="node5" class="node">
<title>4</title>
<path fill="none" stroke="#56d8d8" stroke-width="2" d="M434.5,-180C434.5,-180 348.75,-180 348.75,-180 342.75,-180 336.75,-174 336.75,-168 336.75,-168 336.75,-156 336.75,-156 336.75,-150 342.75,-144 348.75,-144 348.75,-144 434.5,-144 434.5,-144 440.5,-144 446.5,-150 446.5,-156 446.5,-156 446.5,-168 446.5,-168 446.5,-174 440.5,-180 434.5,-180"/>
<text text-anchor="middle" x="391.62" y="-158.12" font-family="sans" font-size="10.00">summarize_sumstats</text>
</g>
<!-- 2&#45;&gt;4 -->
<g id="edge13" class="edge">
<title>2&#45;&gt;4</title>
<path fill="none" stroke="grey" stroke-width="2" d="M458.91,-215.34C448.55,-207.27 436.07,-197.57 424.69,-188.72"/>
<polygon fill="grey" stroke="grey" stroke-width="2" points="427.07,-186.14 417.03,-182.76 422.78,-191.66 427.07,-186.14"/>
</g>
<!-- 9 -->
<g id="node10" class="node">
<title>9</title>
<path fill="none" stroke="#59d856" stroke-width="2" d="M597.25,-180C597.25,-180 522,-180 522,-180 516,-180 510,-174 510,-168 510,-168 510,-156 510,-156 510,-150 516,-144 522,-144 522,-144 597.25,-144 597.25,-144 603.25,-144 609.25,-150 609.25,-156 609.25,-156 609.25,-168 609.25,-168 609.25,-174 603.25,-180 597.25,-180"/>
<text text-anchor="middle" x="559.62" y="-158.12" font-family="sans" font-size="10.00">annotate_sumstats</text>
</g>
<!-- 2&#45;&gt;9 -->
<g id="edge19" class="edge">
<title>2&#45;&gt;9</title>
<path fill="none" stroke="grey" stroke-width="2" d="M501.31,-215.34C510.02,-207.52 520.44,-198.16 530.06,-189.53"/>
<polygon fill="grey" stroke="grey" stroke-width="2" points="532.32,-192.21 537.42,-182.92 527.64,-187 532.32,-192.21"/>
</g>
<!-- 3&#45;&gt;0 -->
<g id="edge3" class="edge">
<title>3&#45;&gt;0</title>
<path fill="none" stroke="grey" stroke-width="2" d="M211.66,-143.01C191.55,-124.34 167.33,-94.75 184.62,-72 202.74,-48.17 284.43,-32.26 334.93,-24.5"/>
<polygon fill="grey" stroke="grey" stroke-width="2" points="335.28,-27.99 344.66,-23.06 334.25,-21.06 335.28,-27.99"/>
</g>
<!-- 5 -->
<g id="node6" class="node">
<title>5</title>
<path fill="none" stroke="#d6d856" stroke-width="2" d="M305.62,-108C305.62,-108 205.62,-108 205.62,-108 199.62,-108 193.62,-102 193.62,-96 193.62,-96 193.62,-84 193.62,-84 193.62,-78 199.62,-72 205.62,-72 205.62,-72 305.62,-72 305.62,-72 311.62,-72 317.62,-78 317.62,-84 317.62,-84 317.62,-96 317.62,-96 317.62,-102 311.62,-108 305.62,-108"/>
<text text-anchor="middle" x="255.62" y="-86.12" font-family="sans" font-size="10.00">create_min_pvalue_table</text>
</g>
<!-- 3&#45;&gt;5 -->
<g id="edge14" class="edge">
<title>3&#45;&gt;5</title>
<path fill="none" stroke="grey" stroke-width="2" d="M239.18,-143.34C241.3,-136.59 243.78,-128.69 246.16,-121.11"/>
<polygon fill="grey" stroke="grey" stroke-width="2" points="249.43,-122.38 249.09,-111.79 242.75,-120.28 249.43,-122.38"/>
</g>
<!-- 6 -->
<g id="node7" class="node">
<title>6</title>
<path fill="none" stroke="#d89556" stroke-width="2" d="M403.5,-108C403.5,-108 347.75,-108 347.75,-108 341.75,-108 335.75,-102 335.75,-96 335.75,-96 335.75,-84 335.75,-84 335.75,-78 341.75,-72 347.75,-72 347.75,-72 403.5,-72 403.5,-72 409.5,-72 415.5,-78 415.5,-84 415.5,-84 415.5,-96 415.5,-96 415.5,-102 409.5,-108 403.5,-108"/>
<text text-anchor="middle" x="375.62" y="-86.12" font-family="sans" font-size="10.00">create_if_table</text>
</g>
<!-- 3&#45;&gt;6 -->
<g id="edge16" class="edge">
<title>3&#45;&gt;6</title>
<path fill="none" stroke="grey" stroke-width="2" d="M269.83,-143.15C287.52,-134.43 309.04,-123.82 328.04,-114.46"/>
<polygon fill="grey" stroke="grey" stroke-width="2" points="329.35,-117.71 336.78,-110.15 326.26,-111.43 329.35,-117.71"/>
</g>
<!-- 4&#45;&gt;0 -->
<g id="edge4" class="edge">
<title>4&#45;&gt;0</title>
<path fill="none" stroke="grey" stroke-width="2" d="M406.3,-143.09C413.33,-133.35 420.99,-120.71 424.62,-108 429.02,-92.62 430.46,-86.9 424.62,-72 420.87,-62.4 414.46,-53.5 407.51,-45.83"/>
<polygon fill="grey" stroke="grey" stroke-width="2" points="410.22,-43.6 400.68,-38.98 405.26,-48.54 410.22,-43.6"/>
</g>
<!-- 4&#45;&gt;5 -->
<g id="edge15" class="edge">
<title>4&#45;&gt;5</title>
<path fill="none" stroke="grey" stroke-width="2" d="M356.95,-143.15C340.17,-134.52 319.79,-124.02 301.71,-114.72"/>
<polygon fill="grey" stroke="grey" stroke-width="2" points="303.42,-111.66 292.92,-110.2 300.21,-117.89 303.42,-111.66"/>
</g>
<!-- 4&#45;&gt;6 -->
<g id="edge17" class="edge">
<title>4&#45;&gt;6</title>
<path fill="none" stroke="grey" stroke-width="2" d="M387.59,-143.34C386.06,-136.67 384.28,-128.89 382.57,-121.39"/>
<polygon fill="grey" stroke="grey" stroke-width="2" points="386.03,-120.82 380.39,-111.85 379.21,-122.38 386.03,-120.82"/>
</g>
<!-- 5&#45;&gt;0 -->
<g id="edge5" class="edge">
<title>5&#45;&gt;0</title>
<path fill="none" stroke="grey" stroke-width="2" d="M286.22,-71.15C301.68,-62.14 320.59,-51.1 337.04,-41.51"/>
<polygon fill="grey" stroke="grey" stroke-width="2" points="338.47,-44.72 345.35,-36.66 334.95,-38.68 338.47,-44.72"/>
</g>
<!-- 6&#45;&gt;0 -->
<g id="edge6" class="edge">
<title>6&#45;&gt;0</title>
<path fill="none" stroke="grey" stroke-width="2" d="M375.62,-71.34C375.62,-64.75 375.62,-57.08 375.62,-49.67"/>
<polygon fill="grey" stroke="grey" stroke-width="2" points="379.13,-49.93 375.63,-39.93 372.13,-49.93 379.13,-49.93"/>
</g>
<!-- 7 -->
<g id="node8" class="node">
<title>7</title>
<path fill="none" stroke="#56d89a" stroke-width="2" d="M751.75,-108C751.75,-108 643.5,-108 643.5,-108 637.5,-108 631.5,-102 631.5,-96 631.5,-96 631.5,-84 631.5,-84 631.5,-78 637.5,-72 643.5,-72 643.5,-72 751.75,-72 751.75,-72 757.75,-72 763.75,-78 763.75,-84 763.75,-84 763.75,-96 763.75,-96 763.75,-102 757.75,-108 751.75,-108"/>
<text text-anchor="middle" x="697.62" y="-86.12" font-family="sans" font-size="10.00">create_snp_mapping_table</text>
</g>
<!-- 7&#45;&gt;0 -->
<g id="edge7" class="edge">
<title>7&#45;&gt;0</title>
<path fill="none" stroke="grey" stroke-width="2" d="M630.52,-74.41C565.64,-60.31 469.5,-39.41 415.75,-27.72"/>
<polygon fill="grey" stroke="grey" stroke-width="2" points="416.83,-24.38 406.31,-25.67 415.34,-31.22 416.83,-24.38"/>
</g>
<!-- 8&#45;&gt;0 -->
<g id="edge8" class="edge">
<title>8&#45;&gt;0</title>
<path fill="none" stroke="grey" stroke-width="2" d="M36.09,-143.22C22.92,-123.62 7.25,-92.2 24.62,-72 64.22,-25.98 250.79,-19.4 334.64,-18.81"/>
<polygon fill="grey" stroke="grey" stroke-width="2" points="334.63,-22.31 344.61,-18.78 334.6,-15.32 334.63,-22.31"/>
</g>
<!-- 10 -->
<g id="node11" class="node">
<title>10</title>
<path fill="none" stroke="#569ad8" stroke-width="2" d="M87.38,-108C87.38,-108 45.88,-108 45.88,-108 39.88,-108 33.88,-102 33.88,-96 33.88,-96 33.88,-84 33.88,-84 33.88,-78 39.88,-72 45.88,-72 45.88,-72 87.38,-72 87.38,-72 93.38,-72 99.38,-78 99.38,-84 99.38,-84 99.38,-96 99.38,-96 99.38,-102 93.38,-108 87.38,-108"/>
<text text-anchor="middle" x="66.62" y="-86.12" font-family="sans" font-size="10.00">bgzip_tabix</text>
</g>
<!-- 8&#45;&gt;10 -->
<g id="edge20" class="edge">
<title>8&#45;&gt;10</title>
<path fill="none" stroke="grey" stroke-width="2" d="M53.91,-143.34C55.53,-136.67 57.42,-128.89 59.24,-121.39"/>
<polygon fill="grey" stroke="grey" stroke-width="2" points="62.6,-122.39 61.56,-111.84 55.8,-120.73 62.6,-122.39"/>
</g>
<!-- 9&#45;&gt;0 -->
<g id="edge9" class="edge">
<title>9&#45;&gt;0</title>
<path fill="none" stroke="grey" stroke-width="2" d="M573.02,-143.18C585.8,-123.83 600.89,-92.9 584.62,-72 564.13,-45.66 470.8,-30.3 416.04,-23.4"/>
<polygon fill="grey" stroke="grey" stroke-width="2" points="416.69,-19.96 406.34,-22.23 415.85,-26.91 416.69,-19.96"/>
</g>
<!-- 11 -->
<g id="node12" class="node">
<title>11</title>
<path fill="none" stroke="#569ad8" stroke-width="2" d="M563.38,-108C563.38,-108 521.88,-108 521.88,-108 515.88,-108 509.88,-102 509.88,-96 509.88,-96 509.88,-84 509.88,-84 509.88,-78 515.88,-72 521.88,-72 521.88,-72 563.38,-72 563.38,-72 569.38,-72 575.38,-78 575.38,-84 575.38,-84 575.38,-96 575.38,-96 575.38,-102 569.38,-108 563.38,-108"/>
<text text-anchor="middle" x="542.62" y="-86.12" font-family="sans" font-size="10.00">bgzip_tabix</text>
</g>
<!-- 9&#45;&gt;11 -->
<g id="edge21" class="edge">
<title>9&#45;&gt;11</title>
<path fill="none" stroke="grey" stroke-width="2" d="M555.34,-143.34C553.72,-136.67 551.83,-128.89 550.01,-121.39"/>
<polygon fill="grey" stroke="grey" stroke-width="2" points="553.45,-120.73 547.69,-111.84 546.65,-122.39 553.45,-120.73"/>
</g>
<!-- 10&#45;&gt;0 -->
<g id="edge10" class="edge">
<title>10&#45;&gt;0</title>
<path fill="none" stroke="grey" stroke-width="2" d="M100.32,-76.14C104.76,-74.64 109.28,-73.22 113.62,-72 190.91,-50.33 283.34,-33.75 335.19,-25.27"/>
<polygon fill="grey" stroke="grey" stroke-width="2" points="335.47,-28.78 344.78,-23.73 334.35,-21.86 335.47,-28.78"/>
</g>
<!-- 11&#45;&gt;0 -->
<g id="edge11" class="edge">
<title>11&#45;&gt;0</title>
<path fill="none" stroke="grey" stroke-width="2" d="M509.23,-75C482.2,-63.67 444.05,-47.68 415.44,-35.69"/>
<polygon fill="grey" stroke="grey" stroke-width="2" points="416.79,-32.46 406.22,-31.82 414.09,-38.92 416.79,-32.46"/>
</g>
</g>
</svg>
