<?xml version="1.0" encoding="UTF-8" standalone="no"?>
<!DOCTYPE svg PUBLIC "-//W3C//DTD SVG 1.1//EN"
 "http://www.w3.org/Graphics/SVG/1.1/DTD/svg11.dtd">
<!-- Generated by graphviz version 12.2.1 (20241206.2353)
 -->
<!-- Title: snakemake_dag Pages: 1 -->
<svg width="642pt" height="332pt"
 viewBox="0.00 0.00 642.12 332.00" xmlns="http://www.w3.org/2000/svg" xmlns:xlink="http://www.w3.org/1999/xlink">
<g id="graph0" class="graph" transform="scale(1 1) rotate(0) translate(4 328)">
<title>snakemake_dag</title>
<polygon fill="white" stroke="none" points="-4,4 -4,-328 638.12,-328 638.12,4 -4,4"/>
<!-- 0 -->
<g id="node1" class="node">
<title>0</title>
<path fill="none" stroke="#569ad8" stroke-width="2" d="M323,-36C323,-36 293,-36 293,-36 287,-36 281,-30 281,-24 281,-24 281,-12 281,-12 281,-6 287,0 293,0 293,0 323,0 323,0 329,0 335,-6 335,-12 335,-12 335,-24 335,-24 335,-30 329,-36 323,-36"/>
<text text-anchor="middle" x="308" y="-14.12" font-family="sans" font-size="10.00">all</text>
</g>
<!-- 1 -->
<g id="node2" class="node">
<title>1</title>
<path fill="none" stroke="#56d8d8" stroke-width="2" d="M477.38,-252C477.38,-252 394.62,-252 394.62,-252 388.62,-252 382.62,-246 382.62,-240 382.62,-240 382.62,-228 382.62,-228 382.62,-222 388.62,-216 394.62,-216 394.62,-216 477.38,-216 477.38,-216 483.38,-216 489.38,-222 489.38,-228 489.38,-228 489.38,-240 489.38,-240 489.38,-246 483.38,-252 477.38,-252"/>
<text text-anchor="middle" x="436" y="-230.12" font-family="sans" font-size="10.00">harmonize_sumstats</text>
</g>
<!-- 1&#45;&gt;0 -->
<g id="edge1" class="edge">
<title>1&#45;&gt;0</title>
<path fill="none" stroke="grey" stroke-width="2" d="M435.72,-215.2C434.38,-183.41 427.57,-116.07 395,-72 382.96,-55.71 364.27,-43.38 347.3,-34.74"/>
<polygon fill="grey" stroke="grey" stroke-width="2" points="349.19,-31.76 338.66,-30.63 346.19,-38.09 349.19,-31.76"/>
</g>
<!-- 5 -->
<g id="node6" class="node">
<title>5</title>
<path fill="none" stroke="#56d89a" stroke-width="2" d="M517.75,-180C517.75,-180 476.25,-180 476.25,-180 470.25,-180 464.25,-174 464.25,-168 464.25,-168 464.25,-156 464.25,-156 464.25,-150 470.25,-144 476.25,-144 476.25,-144 517.75,-144 517.75,-144 523.75,-144 529.75,-150 529.75,-156 529.75,-156 529.75,-168 529.75,-168 529.75,-174 523.75,-180 517.75,-180"/>
<text text-anchor="middle" x="497" y="-158.12" font-family="sans" font-size="10.00">bgzip_tabix</text>
</g>
<!-- 1&#45;&gt;5 -->
<g id="edge12" class="edge">
<title>1&#45;&gt;5</title>
<path fill="none" stroke="grey" stroke-width="2" d="M451.39,-215.34C457.92,-207.85 465.67,-198.95 472.92,-190.63"/>
<polygon fill="grey" stroke="grey" stroke-width="2" points="475.48,-193.02 479.41,-183.18 470.2,-188.42 475.48,-193.02"/>
</g>
<!-- 8 -->
<g id="node9" class="node">
<title>8</title>
<path fill="none" stroke="#d89556" stroke-width="2" d="M377.88,-180C377.88,-180 292.12,-180 292.12,-180 286.12,-180 280.12,-174 280.12,-168 280.12,-168 280.12,-156 280.12,-156 280.12,-150 286.12,-144 292.12,-144 292.12,-144 377.88,-144 377.88,-144 383.88,-144 389.88,-150 389.88,-156 389.88,-156 389.88,-168 389.88,-168 389.88,-174 383.88,-180 377.88,-180"/>
<text text-anchor="middle" x="335" y="-158.12" font-family="sans" font-size="10.00">summarize_sumstats</text>
</g>
<!-- 1&#45;&gt;8 -->
<g id="edge16" class="edge">
<title>1&#45;&gt;8</title>
<path fill="none" stroke="grey" stroke-width="2" d="M410.25,-215.15C398.38,-206.93 384.08,-197.02 371.16,-188.06"/>
<polygon fill="grey" stroke="grey" stroke-width="2" points="373.4,-185.36 363.19,-182.54 369.41,-191.11 373.4,-185.36"/>
</g>
<!-- 2 -->
<g id="node3" class="node">
<title>2</title>
<path fill="none" stroke="#d6d856" stroke-width="2" d="M483,-324C483,-324 389,-324 389,-324 383,-324 377,-318 377,-312 377,-312 377,-300 377,-300 377,-294 383,-288 389,-288 389,-288 483,-288 483,-288 489,-288 495,-294 495,-300 495,-300 495,-312 495,-312 495,-318 489,-324 483,-324"/>
<text text-anchor="middle" x="436" y="-307.75" font-family="sans" font-size="10.00">pre_filtering</text>
<text text-anchor="middle" x="436" y="-296.5" font-family="sans" font-size="10.00">sumstat_id: seq.3007.7</text>
</g>
<!-- 2&#45;&gt;1 -->
<g id="edge10" class="edge">
<title>2&#45;&gt;1</title>
<path fill="none" stroke="grey" stroke-width="2" d="M436,-287.34C436,-280.75 436,-273.08 436,-265.67"/>
<polygon fill="grey" stroke="grey" stroke-width="2" points="439.5,-265.93 436,-255.93 432.5,-265.93 439.5,-265.93"/>
</g>
<!-- 3 -->
<g id="node4" class="node">
<title>3</title>
<path fill="none" stroke="#56d8d8" stroke-width="2" d="M100.38,-252C100.38,-252 17.62,-252 17.62,-252 11.62,-252 5.63,-246 5.63,-240 5.63,-240 5.63,-228 5.63,-228 5.63,-222 11.63,-216 17.63,-216 17.63,-216 100.38,-216 100.38,-216 106.38,-216 112.38,-222 112.38,-228 112.38,-228 112.38,-240 112.38,-240 112.38,-246 106.38,-252 100.38,-252"/>
<text text-anchor="middle" x="59" y="-230.12" font-family="sans" font-size="10.00">harmonize_sumstats</text>
</g>
<!-- 3&#45;&gt;0 -->
<g id="edge2" class="edge">
<title>3&#45;&gt;0</title>
<path fill="none" stroke="grey" stroke-width="2" d="M45.23,-215.07C22.22,-182.78 -18.25,-114.25 17,-72 48.43,-34.32 195.1,-23.36 267.44,-20.23"/>
<polygon fill="grey" stroke="grey" stroke-width="2" points="267.16,-23.74 277.01,-19.85 266.88,-16.75 267.16,-23.74"/>
</g>
<!-- 6 -->
<g id="node7" class="node">
<title>6</title>
<path fill="none" stroke="#56d89a" stroke-width="2" d="M79.75,-108C79.75,-108 38.25,-108 38.25,-108 32.25,-108 26.25,-102 26.25,-96 26.25,-96 26.25,-84 26.25,-84 26.25,-78 32.25,-72 38.25,-72 38.25,-72 79.75,-72 79.75,-72 85.75,-72 91.75,-78 91.75,-84 91.75,-84 91.75,-96 91.75,-96 91.75,-102 85.75,-108 79.75,-108"/>
<text text-anchor="middle" x="59" y="-86.12" font-family="sans" font-size="10.00">bgzip_tabix</text>
</g>
<!-- 3&#45;&gt;6 -->
<g id="edge13" class="edge">
<title>3&#45;&gt;6</title>
<path fill="none" stroke="grey" stroke-width="2" d="M59,-215.02C59,-191.54 59,-150.11 59,-121.64"/>
<polygon fill="grey" stroke="grey" stroke-width="2" points="62.5,-121.87 59,-111.87 55.5,-121.87 62.5,-121.87"/>
</g>
<!-- 9 -->
<g id="node10" class="node">
<title>9</title>
<path fill="none" stroke="#d89556" stroke-width="2" d="M207.88,-180C207.88,-180 122.12,-180 122.12,-180 116.12,-180 110.12,-174 110.12,-168 110.12,-168 110.12,-156 110.12,-156 110.12,-150 116.12,-144 122.12,-144 122.12,-144 207.88,-144 207.88,-144 213.88,-144 219.88,-150 219.88,-156 219.88,-156 219.88,-168 219.88,-168 219.88,-174 213.88,-180 207.88,-180"/>
<text text-anchor="middle" x="165" y="-158.12" font-family="sans" font-size="10.00">summarize_sumstats</text>
</g>
<!-- 3&#45;&gt;9 -->
<g id="edge17" class="edge">
<title>3&#45;&gt;9</title>
<path fill="none" stroke="grey" stroke-width="2" d="M86.02,-215.15C98.61,-206.84 113.79,-196.82 127.46,-187.79"/>
<polygon fill="grey" stroke="grey" stroke-width="2" points="129.08,-190.91 135.5,-182.48 125.23,-185.07 129.08,-190.91"/>
</g>
<!-- 4 -->
<g id="node5" class="node">
<title>4</title>
<path fill="none" stroke="#d6d856" stroke-width="2" d="M106,-324C106,-324 12,-324 12,-324 6,-324 0,-318 0,-312 0,-312 0,-300 0,-300 0,-294 6,-288 12,-288 12,-288 106,-288 106,-288 112,-288 118,-294 118,-300 118,-300 118,-312 118,-312 118,-318 112,-324 106,-324"/>
<text text-anchor="middle" x="59" y="-307.75" font-family="sans" font-size="10.00">pre_filtering</text>
<text text-anchor="middle" x="59" y="-296.5" font-family="sans" font-size="10.00">sumstat_id: seq.9267.2</text>
</g>
<!-- 4&#45;&gt;3 -->
<g id="edge11" class="edge">
<title>4&#45;&gt;3</title>
<path fill="none" stroke="grey" stroke-width="2" d="M59,-287.34C59,-280.75 59,-273.08 59,-265.67"/>
<polygon fill="grey" stroke="grey" stroke-width="2" points="62.5,-265.93 59,-255.93 55.5,-265.93 62.5,-265.93"/>
</g>
<!-- 5&#45;&gt;0 -->
<g id="edge3" class="edge">
<title>5&#45;&gt;0</title>
<path fill="none" stroke="grey" stroke-width="2" d="M491.86,-143.19C485.24,-123.27 471.92,-91.27 450,-72 421.21,-46.69 379.2,-33.02 348.34,-25.94"/>
<polygon fill="grey" stroke="grey" stroke-width="2" points="349.34,-22.58 338.83,-23.93 347.88,-29.43 349.34,-22.58"/>
</g>
<!-- 6&#45;&gt;0 -->
<g id="edge4" class="edge">
<title>6&#45;&gt;0</title>
<path fill="none" stroke="grey" stroke-width="2" d="M92.51,-76.46C97.02,-74.9 101.61,-73.37 106,-72 161.45,-54.74 226.58,-38.33 267.58,-28.46"/>
<polygon fill="grey" stroke="grey" stroke-width="2" points="268.14,-31.93 277.06,-26.2 266.52,-25.12 268.14,-31.93"/>
</g>
<!-- 7 -->
<g id="node8" class="node">
<title>7</title>
<path fill="none" stroke="#97d856" stroke-width="2" d="M358,-108C358,-108 258,-108 258,-108 252,-108 246,-102 246,-96 246,-96 246,-84 246,-84 246,-78 252,-72 258,-72 258,-72 358,-72 358,-72 364,-72 370,-78 370,-84 370,-84 370,-96 370,-96 370,-102 364,-108 358,-108"/>
<text text-anchor="middle" x="308" y="-86.12" font-family="sans" font-size="10.00">create_min_pvalue_table</text>
</g>
<!-- 7&#45;&gt;0 -->
<g id="edge5" class="edge">
<title>7&#45;&gt;0</title>
<path fill="none" stroke="grey" stroke-width="2" d="M308,-71.34C308,-64.75 308,-57.08 308,-49.67"/>
<polygon fill="grey" stroke="grey" stroke-width="2" points="311.5,-49.93 308,-39.93 304.5,-49.93 311.5,-49.93"/>
</g>
<!-- 8&#45;&gt;0 -->
<g id="edge8" class="edge">
<title>8&#45;&gt;0</title>
<path fill="none" stroke="grey" stroke-width="2" d="M354.93,-143.45C364.15,-133.99 374.13,-121.5 379,-108 384.43,-92.95 386.17,-86.3 379,-72 372.01,-58.07 359.44,-46.86 346.79,-38.41"/>
<polygon fill="grey" stroke="grey" stroke-width="2" points="348.73,-35.49 338.37,-33.26 345.08,-41.47 348.73,-35.49"/>
</g>
<!-- 8&#45;&gt;7 -->
<g id="edge14" class="edge">
<title>8&#45;&gt;7</title>
<path fill="none" stroke="grey" stroke-width="2" d="M328.19,-143.34C325.55,-136.51 322.46,-128.5 319.51,-120.83"/>
<polygon fill="grey" stroke="grey" stroke-width="2" points="322.86,-119.8 315.99,-111.73 316.33,-122.32 322.86,-119.8"/>
</g>
<!-- 10 -->
<g id="node11" class="node">
<title>10</title>
<path fill="none" stroke="#d85656" stroke-width="2" d="M215.88,-108C215.88,-108 160.12,-108 160.12,-108 154.12,-108 148.12,-102 148.12,-96 148.12,-96 148.12,-84 148.12,-84 148.12,-78 154.12,-72 160.12,-72 160.12,-72 215.88,-72 215.88,-72 221.88,-72 227.88,-78 227.88,-84 227.88,-84 227.88,-96 227.88,-96 227.88,-102 221.88,-108 215.88,-108"/>
<text text-anchor="middle" x="188" y="-86.12" font-family="sans" font-size="10.00">create_if_table</text>
</g>
<!-- 8&#45;&gt;10 -->
<g id="edge18" class="edge">
<title>8&#45;&gt;10</title>
<path fill="none" stroke="grey" stroke-width="2" d="M297.53,-143.15C279.19,-134.43 256.89,-123.81 237.21,-114.43"/>
<polygon fill="grey" stroke="grey" stroke-width="2" points="238.93,-111.37 228.39,-110.24 235.92,-117.69 238.93,-111.37"/>
</g>
<!-- 9&#45;&gt;0 -->
<g id="edge9" class="edge">
<title>9&#45;&gt;0</title>
<path fill="none" stroke="grey" stroke-width="2" d="M151.29,-143.02C138.44,-123.82 123.37,-93.28 139,-72 168.21,-32.23 227.2,-21.49 267.17,-19.02"/>
<polygon fill="grey" stroke="grey" stroke-width="2" points="267.31,-22.52 277.15,-18.59 267.01,-15.52 267.31,-22.52"/>
</g>
<!-- 9&#45;&gt;7 -->
<g id="edge15" class="edge">
<title>9&#45;&gt;7</title>
<path fill="none" stroke="grey" stroke-width="2" d="M201.45,-143.15C219.27,-134.43 240.95,-123.82 260.08,-114.46"/>
<polygon fill="grey" stroke="grey" stroke-width="2" points="261.45,-117.68 268.89,-110.14 258.37,-111.4 261.45,-117.68"/>
</g>
<!-- 9&#45;&gt;10 -->
<g id="edge19" class="edge">
<title>9&#45;&gt;10</title>
<path fill="none" stroke="grey" stroke-width="2" d="M170.8,-143.34C173.02,-136.59 175.61,-128.69 178.11,-121.11"/>
<polygon fill="grey" stroke="grey" stroke-width="2" points="181.38,-122.37 181.17,-111.78 174.73,-120.19 181.38,-122.37"/>
</g>
<!-- 10&#45;&gt;0 -->
<g id="edge6" class="edge">
<title>10&#45;&gt;0</title>
<path fill="none" stroke="grey" stroke-width="2" d="M218.59,-71.15C234.05,-62.14 252.97,-51.1 269.42,-41.51"/>
<polygon fill="grey" stroke="grey" stroke-width="2" points="270.85,-44.72 277.72,-36.66 267.32,-38.68 270.85,-44.72"/>
</g>
<!-- 11 -->
<g id="node12" class="node">
<title>11</title>
<path fill="none" stroke="#59d856" stroke-width="2" d="M622.12,-108C622.12,-108 513.88,-108 513.88,-108 507.88,-108 501.88,-102 501.88,-96 501.88,-96 501.88,-84 501.88,-84 501.88,-78 507.88,-72 513.88,-72 513.88,-72 622.12,-72 622.12,-72 628.12,-72 634.12,-78 634.12,-84 634.12,-84 634.12,-96 634.12,-96 634.12,-102 628.12,-108 622.12,-108"/>
<text text-anchor="middle" x="568" y="-86.12" font-family="sans" font-size="10.00">create_snp_mapping_table</text>
</g>
<!-- 11&#45;&gt;0 -->
<g id="edge7" class="edge">
<title>11&#45;&gt;0</title>
<path fill="none" stroke="grey" stroke-width="2" d="M501.38,-71.06C452.91,-58.02 388.88,-40.78 348.06,-29.79"/>
<polygon fill="grey" stroke="grey" stroke-width="2" points="349.16,-26.46 338.59,-27.24 347.34,-33.22 349.16,-26.46"/>
</g>
</g>
</svg>
