<?xml version="1.0" encoding="UTF-8" standalone="no"?>
<!DOCTYPE svg PUBLIC "-//W3C//DTD SVG 1.1//EN"
 "http://www.w3.org/Graphics/SVG/1.1/DTD/svg11.dtd">
<!-- Generated by graphviz version 12.2.1 (20241206.2353)
 -->
<!-- Title: snakemake_dag Pages: 1 -->
<svg width="808pt" height="332pt"
 viewBox="0.00 0.00 807.79 332.00" xmlns="http://www.w3.org/2000/svg" xmlns:xlink="http://www.w3.org/1999/xlink">
<g id="graph0" class="graph" transform="scale(1 1) rotate(0) translate(4 328)">
<title>snakemake_dag</title>
<polygon fill="white" stroke="none" points="-4,4 -4,-328 803.79,-328 803.79,4 -4,4"/>
<!-- 0 -->
<g id="node1" class="node">
<title>0</title>
<path fill="none" stroke="#88d856" stroke-width="2" d="M446.75,-36C446.75,-36 416.75,-36 416.75,-36 410.75,-36 404.75,-30 404.75,-24 404.75,-24 404.75,-12 404.75,-12 404.75,-6 410.75,0 416.75,0 416.75,0 446.75,0 446.75,0 452.75,0 458.75,-6 458.75,-12 458.75,-12 458.75,-24 458.75,-24 458.75,-30 452.75,-36 446.75,-36"/>
<text text-anchor="middle" x="431.75" y="-14.12" font-family="sans" font-size="10.00">all</text>
</g>
<!-- 1 -->
<g id="node2" class="node">
<title>1</title>
<path fill="none" stroke="#56d8c1" stroke-width="2" d="M211.5,-252C211.5,-252 164,-252 164,-252 158,-252 152,-246 152,-240 152,-240 152,-228 152,-228 152,-222 158,-216 164,-216 164,-216 211.5,-216 211.5,-216 217.5,-216 223.5,-222 223.5,-228 223.5,-228 223.5,-240 223.5,-240 223.5,-246 217.5,-252 211.5,-252"/>
<text text-anchor="middle" x="187.75" y="-230.12" font-family="sans" font-size="10.00">post_filtering</text>
</g>
<!-- 1&#45;&gt;0 -->
<g id="edge1" class="edge">
<title>1&#45;&gt;0</title>
<path fill="none" stroke="grey" stroke-width="2" d="M167.55,-215.08C134.22,-183.38 74.97,-116.58 112.75,-72 148.01,-30.4 313.45,-21.42 391.19,-19.5"/>
<polygon fill="grey" stroke="grey" stroke-width="2" points="390.81,-23.01 400.73,-19.3 390.66,-16.01 390.81,-23.01"/>
</g>
<!-- 5 -->
<g id="node6" class="node">
<title>5</title>
<path fill="none" stroke="#56c1d8" stroke-width="2" d="M53.5,-108C53.5,-108 12,-108 12,-108 6,-108 0,-102 0,-96 0,-96 0,-84 0,-84 0,-78 6,-72 12,-72 12,-72 53.5,-72 53.5,-72 59.5,-72 65.5,-78 65.5,-84 65.5,-84 65.5,-96 65.5,-96 65.5,-102 59.5,-108 53.5,-108"/>
<text text-anchor="middle" x="32.75" y="-86.12" font-family="sans" font-size="10.00">bgzip_tabix</text>
</g>
<!-- 1&#45;&gt;5 -->
<g id="edge13" class="edge">
<title>1&#45;&gt;5</title>
<path fill="none" stroke="grey" stroke-width="2" d="M151.23,-221.64C128.48,-213.1 99.83,-199.49 79.75,-180 62.84,-163.58 50.7,-139.76 43,-120.89"/>
<polygon fill="grey" stroke="grey" stroke-width="2" points="46.29,-119.7 39.46,-111.6 39.75,-122.19 46.29,-119.7"/>
</g>
<!-- 8 -->
<g id="node9" class="node">
<title>8</title>
<path fill="none" stroke="#d88d56" stroke-width="2" d="M344.62,-180C344.62,-180 258.88,-180 258.88,-180 252.88,-180 246.88,-174 246.88,-168 246.88,-168 246.88,-156 246.88,-156 246.88,-150 252.88,-144 258.88,-144 258.88,-144 344.62,-144 344.62,-144 350.62,-144 356.62,-150 356.62,-156 356.62,-156 356.62,-168 356.62,-168 356.62,-174 350.62,-180 344.62,-180"/>
<text text-anchor="middle" x="301.75" y="-158.12" font-family="sans" font-size="10.00">summarize_sumstats</text>
</g>
<!-- 1&#45;&gt;8 -->
<g id="edge17" class="edge">
<title>1&#45;&gt;8</title>
<path fill="none" stroke="grey" stroke-width="2" d="M216.81,-215.15C230.48,-206.76 246.99,-196.62 261.81,-187.52"/>
<polygon fill="grey" stroke="grey" stroke-width="2" points="263.47,-190.61 270.16,-182.4 259.81,-184.65 263.47,-190.61"/>
</g>
<!-- 12 -->
<g id="node13" class="node">
<title>12</title>
<path fill="none" stroke="#bed856" stroke-width="2" d="M589.75,-180C589.75,-180 537.75,-180 537.75,-180 531.75,-180 525.75,-174 525.75,-168 525.75,-168 525.75,-156 525.75,-156 525.75,-150 531.75,-144 537.75,-144 537.75,-144 589.75,-144 589.75,-144 595.75,-144 601.75,-150 601.75,-156 601.75,-156 601.75,-168 601.75,-168 601.75,-174 595.75,-180 589.75,-180"/>
<text text-anchor="middle" x="563.75" y="-158.12" font-family="sans" font-size="10.00">quality_check</text>
</g>
<!-- 1&#45;&gt;12 -->
<g id="edge23" class="edge">
<title>1&#45;&gt;12</title>
<path fill="none" stroke="grey" stroke-width="2" d="M224.23,-229.38C283.15,-223.06 402.97,-208.21 512.35,-180.89"/>
<polygon fill="grey" stroke="grey" stroke-width="2" points="513.19,-184.28 522.01,-178.42 511.46,-177.5 513.19,-184.28"/>
</g>
<!-- 14 -->
<g id="node15" class="node">
<title>14</title>
<path fill="none" stroke="#56d88a" stroke-width="2" d="M241.88,-108C241.88,-108 133.62,-108 133.62,-108 127.62,-108 121.62,-102 121.62,-96 121.62,-96 121.62,-84 121.62,-84 121.62,-78 127.62,-72 133.62,-72 133.62,-72 241.88,-72 241.88,-72 247.88,-72 253.88,-78 253.88,-84 253.88,-84 253.88,-96 253.88,-96 253.88,-102 247.88,-108 241.88,-108"/>
<text text-anchor="middle" x="187.75" y="-86.12" font-family="sans" font-size="10.00">create_snp_mapping_table</text>
</g>
<!-- 1&#45;&gt;14 -->
<g id="edge25" class="edge">
<title>1&#45;&gt;14</title>
<path fill="none" stroke="grey" stroke-width="2" d="M187.75,-215.02C187.75,-191.54 187.75,-150.11 187.75,-121.64"/>
<polygon fill="grey" stroke="grey" stroke-width="2" points="191.25,-121.87 187.75,-111.87 184.25,-121.87 191.25,-121.87"/>
</g>
<!-- 2 -->
<g id="node3" class="node">
<title>2</title>
<path fill="none" stroke="#59d856" stroke-width="2" d="M234.75,-324C234.75,-324 140.75,-324 140.75,-324 134.75,-324 128.75,-318 128.75,-312 128.75,-312 128.75,-300 128.75,-300 128.75,-294 134.75,-288 140.75,-288 140.75,-288 234.75,-288 234.75,-288 240.75,-288 246.75,-294 246.75,-300 246.75,-300 246.75,-312 246.75,-312 246.75,-318 240.75,-324 234.75,-324"/>
<text text-anchor="middle" x="187.75" y="-307.75" font-family="sans" font-size="10.00">harmonize_sumstats</text>
<text text-anchor="middle" x="187.75" y="-296.5" font-family="sans" font-size="10.00">sumstat_id: seq.3007.7</text>
</g>
<!-- 2&#45;&gt;1 -->
<g id="edge11" class="edge">
<title>2&#45;&gt;1</title>
<path fill="none" stroke="grey" stroke-width="2" d="M187.75,-287.34C187.75,-280.75 187.75,-273.08 187.75,-265.67"/>
<polygon fill="grey" stroke="grey" stroke-width="2" points="191.25,-265.93 187.75,-255.93 184.25,-265.93 191.25,-265.93"/>
</g>
<!-- 3 -->
<g id="node4" class="node">
<title>3</title>
<path fill="none" stroke="#56d8c1" stroke-width="2" d="M725.5,-252C725.5,-252 678,-252 678,-252 672,-252 666,-246 666,-240 666,-240 666,-228 666,-228 666,-222 672,-216 678,-216 678,-216 725.5,-216 725.5,-216 731.5,-216 737.5,-222 737.5,-228 737.5,-228 737.5,-240 737.5,-240 737.5,-246 731.5,-252 725.5,-252"/>
<text text-anchor="middle" x="701.75" y="-230.12" font-family="sans" font-size="10.00">post_filtering</text>
</g>
<!-- 3&#45;&gt;0 -->
<g id="edge2" class="edge">
<title>3&#45;&gt;0</title>
<path fill="none" stroke="grey" stroke-width="2" d="M738.27,-220.71C756.93,-212.36 777.92,-199.27 788.75,-180 813.53,-135.89 793.47,-102.03 752.75,-72 708.85,-39.63 548.46,-25.93 472.35,-21.16"/>
<polygon fill="grey" stroke="grey" stroke-width="2" points="472.81,-17.68 462.62,-20.58 472.39,-24.67 472.81,-17.68"/>
</g>
<!-- 6 -->
<g id="node7" class="node">
<title>6</title>
<path fill="none" stroke="#56c1d8" stroke-width="2" d="M767.5,-180C767.5,-180 726,-180 726,-180 720,-180 714,-174 714,-168 714,-168 714,-156 714,-156 714,-150 720,-144 726,-144 726,-144 767.5,-144 767.5,-144 773.5,-144 779.5,-150 779.5,-156 779.5,-156 779.5,-168 779.5,-168 779.5,-174 773.5,-180 767.5,-180"/>
<text text-anchor="middle" x="746.75" y="-158.12" font-family="sans" font-size="10.00">bgzip_tabix</text>
</g>
<!-- 3&#45;&gt;6 -->
<g id="edge14" class="edge">
<title>3&#45;&gt;6</title>
<path fill="none" stroke="grey" stroke-width="2" d="M713.11,-215.34C717.71,-208.18 723.14,-199.73 728.28,-191.73"/>
<polygon fill="grey" stroke="grey" stroke-width="2" points="731.14,-193.75 733.6,-183.45 725.25,-189.97 731.14,-193.75"/>
</g>
<!-- 9 -->
<g id="node10" class="node">
<title>9</title>
<path fill="none" stroke="#d88d56" stroke-width="2" d="M495.62,-180C495.62,-180 409.88,-180 409.88,-180 403.88,-180 397.88,-174 397.88,-168 397.88,-168 397.88,-156 397.88,-156 397.88,-150 403.88,-144 409.88,-144 409.88,-144 495.62,-144 495.62,-144 501.62,-144 507.62,-150 507.62,-156 507.62,-156 507.62,-168 507.62,-168 507.62,-174 501.62,-180 495.62,-180"/>
<text text-anchor="middle" x="452.75" y="-158.12" font-family="sans" font-size="10.00">summarize_sumstats</text>
</g>
<!-- 3&#45;&gt;9 -->
<g id="edge18" class="edge">
<title>3&#45;&gt;9</title>
<path fill="none" stroke="grey" stroke-width="2" d="M665.01,-222.67C627.21,-212.05 567.46,-195.25 520.97,-182.18"/>
<polygon fill="grey" stroke="grey" stroke-width="2" points="522.04,-178.84 511.46,-179.51 520.14,-185.58 522.04,-178.84"/>
</g>
<!-- 13 -->
<g id="node14" class="node">
<title>13</title>
<path fill="none" stroke="#bed856" stroke-width="2" d="M683.75,-180C683.75,-180 631.75,-180 631.75,-180 625.75,-180 619.75,-174 619.75,-168 619.75,-168 619.75,-156 619.75,-156 619.75,-150 625.75,-144 631.75,-144 631.75,-144 683.75,-144 683.75,-144 689.75,-144 695.75,-150 695.75,-156 695.75,-156 695.75,-168 695.75,-168 695.75,-174 689.75,-180 683.75,-180"/>
<text text-anchor="middle" x="657.75" y="-158.12" font-family="sans" font-size="10.00">quality_check</text>
</g>
<!-- 3&#45;&gt;13 -->
<g id="edge24" class="edge">
<title>3&#45;&gt;13</title>
<path fill="none" stroke="grey" stroke-width="2" d="M690.65,-215.34C686.15,-208.18 680.84,-199.73 675.81,-191.73"/>
<polygon fill="grey" stroke="grey" stroke-width="2" points="678.9,-190.07 670.61,-183.46 672.97,-193.79 678.9,-190.07"/>
</g>
<!-- 4 -->
<g id="node5" class="node">
<title>4</title>
<path fill="none" stroke="#59d856" stroke-width="2" d="M748.75,-324C748.75,-324 654.75,-324 654.75,-324 648.75,-324 642.75,-318 642.75,-312 642.75,-312 642.75,-300 642.75,-300 642.75,-294 648.75,-288 654.75,-288 654.75,-288 748.75,-288 748.75,-288 754.75,-288 760.75,-294 760.75,-300 760.75,-300 760.75,-312 760.75,-312 760.75,-318 754.75,-324 748.75,-324"/>
<text text-anchor="middle" x="701.75" y="-307.75" font-family="sans" font-size="10.00">harmonize_sumstats</text>
<text text-anchor="middle" x="701.75" y="-296.5" font-family="sans" font-size="10.00">sumstat_id: seq.9267.2</text>
</g>
<!-- 4&#45;&gt;3 -->
<g id="edge12" class="edge">
<title>4&#45;&gt;3</title>
<path fill="none" stroke="grey" stroke-width="2" d="M701.75,-287.34C701.75,-280.75 701.75,-273.08 701.75,-265.67"/>
<polygon fill="grey" stroke="grey" stroke-width="2" points="705.25,-265.93 701.75,-255.93 698.25,-265.93 705.25,-265.93"/>
</g>
<!-- 5&#45;&gt;0 -->
<g id="edge3" class="edge">
<title>5&#45;&gt;0</title>
<path fill="none" stroke="grey" stroke-width="2" d="M66.39,-75.93C70.84,-74.47 75.38,-73.11 79.75,-72 190.72,-43.87 325.4,-28.7 391.37,-22.46"/>
<polygon fill="grey" stroke="grey" stroke-width="2" points="391.35,-25.98 400.98,-21.58 390.7,-19.01 391.35,-25.98"/>
</g>
<!-- 6&#45;&gt;0 -->
<g id="edge4" class="edge">
<title>6&#45;&gt;0</title>
<path fill="none" stroke="grey" stroke-width="2" d="M749,-143.28C750.48,-123.14 749.42,-90.63 730.75,-72 695,-36.34 545.31,-24.37 472.23,-20.6"/>
<polygon fill="grey" stroke="grey" stroke-width="2" points="472.71,-17.12 462.55,-20.14 472.37,-24.11 472.71,-17.12"/>
</g>
<!-- 7 -->
<g id="node8" class="node">
<title>7</title>
<path fill="none" stroke="#d8bc56" stroke-width="2" d="M421.75,-108C421.75,-108 321.75,-108 321.75,-108 315.75,-108 309.75,-102 309.75,-96 309.75,-96 309.75,-84 309.75,-84 309.75,-78 315.75,-72 321.75,-72 321.75,-72 421.75,-72 421.75,-72 427.75,-72 433.75,-78 433.75,-84 433.75,-84 433.75,-96 433.75,-96 433.75,-102 427.75,-108 421.75,-108"/>
<text text-anchor="middle" x="371.75" y="-86.12" font-family="sans" font-size="10.00">create_min_pvalue_table</text>
</g>
<!-- 7&#45;&gt;0 -->
<g id="edge5" class="edge">
<title>7&#45;&gt;0</title>
<path fill="none" stroke="grey" stroke-width="2" d="M386.89,-71.34C393.31,-63.85 400.94,-54.95 408.07,-46.63"/>
<polygon fill="grey" stroke="grey" stroke-width="2" points="410.59,-49.07 414.44,-39.2 405.27,-44.51 410.59,-49.07"/>
</g>
<!-- 8&#45;&gt;0 -->
<g id="edge9" class="edge">
<title>8&#45;&gt;0</title>
<path fill="none" stroke="grey" stroke-width="2" d="M296.06,-143.27C291.03,-124 286.5,-93.14 300.75,-72 320.76,-42.32 360.52,-29.25 391.01,-23.51"/>
<polygon fill="grey" stroke="grey" stroke-width="2" points="391.55,-26.96 400.86,-21.9 390.42,-20.06 391.55,-26.96"/>
</g>
<!-- 8&#45;&gt;7 -->
<g id="edge15" class="edge">
<title>8&#45;&gt;7</title>
<path fill="none" stroke="grey" stroke-width="2" d="M319.41,-143.34C327.06,-135.69 336.19,-126.56 344.67,-118.08"/>
<polygon fill="grey" stroke="grey" stroke-width="2" points="347.11,-120.59 351.71,-111.04 342.16,-115.64 347.11,-120.59"/>
</g>
<!-- 10 -->
<g id="node11" class="node">
<title>10</title>
<path fill="none" stroke="#d85656" stroke-width="2" d="M519.62,-108C519.62,-108 463.88,-108 463.88,-108 457.88,-108 451.88,-102 451.88,-96 451.88,-96 451.88,-84 451.88,-84 451.88,-78 457.88,-72 463.88,-72 463.88,-72 519.62,-72 519.62,-72 525.62,-72 531.62,-78 531.62,-84 531.62,-84 531.62,-96 531.62,-96 531.62,-102 525.62,-108 519.62,-108"/>
<text text-anchor="middle" x="491.75" y="-86.12" font-family="sans" font-size="10.00">create_if_table</text>
</g>
<!-- 8&#45;&gt;10 -->
<g id="edge19" class="edge">
<title>8&#45;&gt;10</title>
<path fill="none" stroke="grey" stroke-width="2" d="M350.19,-143.15C377.39,-133.13 411.35,-120.62 439.19,-110.36"/>
<polygon fill="grey" stroke="grey" stroke-width="2" points="440.1,-113.76 448.27,-107.02 437.68,-107.19 440.1,-113.76"/>
</g>
<!-- 9&#45;&gt;0 -->
<g id="edge10" class="edge">
<title>9&#45;&gt;0</title>
<path fill="none" stroke="grey" stroke-width="2" d="M501.18,-143.24C516.63,-135.01 531.98,-123.53 540.75,-108 548.62,-94.07 549.24,-85.56 540.75,-72 525.73,-48 496.39,-34.59 471.93,-27.26"/>
<polygon fill="grey" stroke="grey" stroke-width="2" points="473.18,-23.97 462.61,-24.75 471.36,-30.73 473.18,-23.97"/>
</g>
<!-- 9&#45;&gt;7 -->
<g id="edge16" class="edge">
<title>9&#45;&gt;7</title>
<path fill="none" stroke="grey" stroke-width="2" d="M432.31,-143.34C423.17,-135.44 412.21,-125.96 402.14,-117.26"/>
<polygon fill="grey" stroke="grey" stroke-width="2" points="404.61,-114.77 394.76,-110.88 400.03,-120.07 404.61,-114.77"/>
</g>
<!-- 9&#45;&gt;10 -->
<g id="edge20" class="edge">
<title>9&#45;&gt;10</title>
<path fill="none" stroke="grey" stroke-width="2" d="M462.59,-143.34C466.49,-136.34 471.07,-128.12 475.44,-120.28"/>
<polygon fill="grey" stroke="grey" stroke-width="2" points="478.49,-121.99 480.3,-111.55 472.38,-118.58 478.49,-121.99"/>
</g>
<!-- 10&#45;&gt;0 -->
<g id="edge6" class="edge">
<title>10&#45;&gt;0</title>
<path fill="none" stroke="grey" stroke-width="2" d="M476.61,-71.34C470.19,-63.85 462.56,-54.95 455.43,-46.63"/>
<polygon fill="grey" stroke="grey" stroke-width="2" points="458.23,-44.51 449.06,-39.2 452.91,-49.07 458.23,-44.51"/>
</g>
<!-- 11 -->
<g id="node12" class="node">
<title>11</title>
<path fill="none" stroke="#568ad8" stroke-width="2" d="M710,-108C710,-108 599.5,-108 599.5,-108 593.5,-108 587.5,-102 587.5,-96 587.5,-96 587.5,-84 587.5,-84 587.5,-78 593.5,-72 599.5,-72 599.5,-72 710,-72 710,-72 716,-72 722,-78 722,-84 722,-84 722,-96 722,-96 722,-102 716,-108 710,-108"/>
<text text-anchor="middle" x="654.75" y="-86.12" font-family="sans" font-size="10.00">create_quality_check_table</text>
</g>
<!-- 11&#45;&gt;0 -->
<g id="edge7" class="edge">
<title>11&#45;&gt;0</title>
<path fill="none" stroke="grey" stroke-width="2" d="M597.61,-71.06C558.19,-58.69 506.76,-42.55 471.69,-31.54"/>
<polygon fill="grey" stroke="grey" stroke-width="2" points="473.04,-28.29 462.45,-28.64 470.95,-34.97 473.04,-28.29"/>
</g>
<!-- 12&#45;&gt;11 -->
<g id="edge21" class="edge">
<title>12&#45;&gt;11</title>
<path fill="none" stroke="grey" stroke-width="2" d="M586.71,-143.34C597.19,-135.27 609.81,-125.57 621.32,-116.72"/>
<polygon fill="grey" stroke="grey" stroke-width="2" points="623.29,-119.62 629.08,-110.75 619.02,-114.07 623.29,-119.62"/>
</g>
<!-- 13&#45;&gt;11 -->
<g id="edge22" class="edge">
<title>13&#45;&gt;11</title>
<path fill="none" stroke="grey" stroke-width="2" d="M656.99,-143.34C656.71,-136.75 656.38,-129.08 656.06,-121.67"/>
<polygon fill="grey" stroke="grey" stroke-width="2" points="659.57,-121.77 655.65,-111.93 652.58,-122.07 659.57,-121.77"/>
</g>
<!-- 14&#45;&gt;0 -->
<g id="edge8" class="edge">
<title>14&#45;&gt;0</title>
<path fill="none" stroke="grey" stroke-width="2" d="M250.27,-71.06C294.7,-58.32 353.07,-41.57 391.46,-30.56"/>
<polygon fill="grey" stroke="grey" stroke-width="2" points="392.35,-33.95 400.99,-27.82 390.42,-27.22 392.35,-33.95"/>
</g>
</g>
</svg>
