<?xml version="1.0" encoding="UTF-8" standalone="no"?>
<!DOCTYPE svg PUBLIC "-//W3C//DTD SVG 1.1//EN"
 "http://www.w3.org/Graphics/SVG/1.1/DTD/svg11.dtd">
<!-- Generated by graphviz version 12.2.1 (20241206.2353)
 -->
<!-- Title: snakemake_dag Pages: 1 -->
<svg width="609pt" height="332pt"
 viewBox="0.00 0.00 608.55 332.00" xmlns="http://www.w3.org/2000/svg" xmlns:xlink="http://www.w3.org/1999/xlink">
<g id="graph0" class="graph" transform="scale(1 1) rotate(0) translate(4 328)">
<title>snakemake_dag</title>
<polygon fill="white" stroke="none" points="-4,4 -4,-328 604.55,-328 604.55,4 -4,4"/>
<!-- 0 -->
<g id="node1" class="node">
<title>0</title>
<path fill="none" stroke="#56d8d8" stroke-width="2" d="M281.8,-36C281.8,-36 251.8,-36 251.8,-36 245.8,-36 239.8,-30 239.8,-24 239.8,-24 239.8,-12 239.8,-12 239.8,-6 245.8,0 251.8,0 251.8,0 281.8,0 281.8,0 287.8,0 293.8,-6 293.8,-12 293.8,-12 293.8,-24 293.8,-24 293.8,-30 287.8,-36 281.8,-36"/>
<text text-anchor="middle" x="266.8" y="-14.12" font-family="sans" font-size="10.00">all</text>
</g>
<!-- 1 -->
<g id="node2" class="node">
<title>1</title>
<path fill="none" stroke="#59d856" stroke-width="2" d="M316.8,-108C316.8,-108 216.8,-108 216.8,-108 210.8,-108 204.8,-102 204.8,-96 204.8,-96 204.8,-84 204.8,-84 204.8,-78 210.8,-72 216.8,-72 216.8,-72 316.8,-72 316.8,-72 322.8,-72 328.8,-78 328.8,-84 328.8,-84 328.8,-96 328.8,-96 328.8,-102 322.8,-108 316.8,-108"/>
<text text-anchor="middle" x="266.8" y="-86.12" font-family="sans" font-size="10.00">create_min_pvalue_table</text>
</g>
<!-- 1&#45;&gt;0 -->
<g id="edge1" class="edge">
<title>1&#45;&gt;0</title>
<path fill="none" stroke="grey" stroke-width="2" d="M266.8,-71.34C266.8,-64.75 266.8,-57.08 266.8,-49.67"/>
<polygon fill="grey" stroke="grey" stroke-width="2" points="270.3,-49.93 266.8,-39.93 263.3,-49.93 270.3,-49.93"/>
</g>
<!-- 2 -->
<g id="node3" class="node">
<title>2</title>
<path fill="none" stroke="#569ad8" stroke-width="2" d="M185.67,-180C185.67,-180 99.92,-180 99.92,-180 93.92,-180 87.92,-174 87.92,-168 87.92,-168 87.92,-156 87.92,-156 87.92,-150 93.92,-144 99.92,-144 99.92,-144 185.67,-144 185.67,-144 191.67,-144 197.67,-150 197.67,-156 197.67,-156 197.67,-168 197.67,-168 197.67,-174 191.67,-180 185.67,-180"/>
<text text-anchor="middle" x="142.8" y="-158.12" font-family="sans" font-size="10.00">summarize_sumstats</text>
</g>
<!-- 2&#45;&gt;1 -->
<g id="edge8" class="edge">
<title>2&#45;&gt;1</title>
<path fill="none" stroke="grey" stroke-width="2" d="M174.41,-143.15C189.57,-134.6 207.94,-124.22 224.3,-114.99"/>
<polygon fill="grey" stroke="grey" stroke-width="2" points="225.62,-118.26 232.61,-110.3 222.18,-112.17 225.62,-118.26"/>
</g>
<!-- 8 -->
<g id="node9" class="node">
<title>8</title>
<path fill="none" stroke="#d89556" stroke-width="2" d="M174.67,-108C174.67,-108 118.92,-108 118.92,-108 112.92,-108 106.92,-102 106.92,-96 106.92,-96 106.92,-84 106.92,-84 106.92,-78 112.92,-72 118.92,-72 118.92,-72 174.67,-72 174.67,-72 180.67,-72 186.67,-78 186.67,-84 186.67,-84 186.67,-96 186.67,-96 186.67,-102 180.67,-108 174.67,-108"/>
<text text-anchor="middle" x="146.8" y="-86.12" font-family="sans" font-size="10.00">create_if_table</text>
</g>
<!-- 2&#45;&gt;8 -->
<g id="edge14" class="edge">
<title>2&#45;&gt;8</title>
<path fill="none" stroke="grey" stroke-width="2" d="M143.81,-143.34C144.18,-136.75 144.62,-129.08 145.04,-121.67"/>
<polygon fill="grey" stroke="grey" stroke-width="2" points="148.52,-122.11 145.6,-111.92 141.54,-121.71 148.52,-122.11"/>
</g>
<!-- 3 -->
<g id="node4" class="node">
<title>3</title>
<path fill="none" stroke="#d6d856" stroke-width="2" d="M97.17,-252C97.17,-252 14.42,-252 14.42,-252 8.42,-252 2.42,-246 2.42,-240 2.42,-240 2.42,-228 2.42,-228 2.42,-222 8.42,-216 14.42,-216 14.42,-216 97.17,-216 97.17,-216 103.17,-216 109.17,-222 109.17,-228 109.17,-228 109.17,-240 109.17,-240 109.17,-246 103.17,-252 97.17,-252"/>
<text text-anchor="middle" x="55.8" y="-230.12" font-family="sans" font-size="10.00">harmonize_sumstats</text>
</g>
<!-- 3&#45;&gt;0 -->
<g id="edge4" class="edge">
<title>3&#45;&gt;0</title>
<path fill="none" stroke="grey" stroke-width="2" d="M42.14,-215.16C19.3,-183.01 -20.9,-114.71 13.8,-72 40.08,-39.64 161.46,-26.34 226.07,-21.47"/>
<polygon fill="grey" stroke="grey" stroke-width="2" points="226.19,-24.97 235.92,-20.77 225.7,-17.99 226.19,-24.97"/>
</g>
<!-- 3&#45;&gt;2 -->
<g id="edge10" class="edge">
<title>3&#45;&gt;2</title>
<path fill="none" stroke="grey" stroke-width="2" d="M77.75,-215.34C87.67,-207.36 99.59,-197.77 110.49,-188.99"/>
<polygon fill="grey" stroke="grey" stroke-width="2" points="112.59,-191.8 118.19,-182.8 108.2,-186.34 112.59,-191.8"/>
</g>
<!-- 10 -->
<g id="node11" class="node">
<title>10</title>
<path fill="none" stroke="#97d856" stroke-width="2" d="M76.55,-108C76.55,-108 35.05,-108 35.05,-108 29.05,-108 23.05,-102 23.05,-96 23.05,-96 23.05,-84 23.05,-84 23.05,-78 29.05,-72 35.05,-72 35.05,-72 76.55,-72 76.55,-72 82.55,-72 88.55,-78 88.55,-84 88.55,-84 88.55,-96 88.55,-96 88.55,-102 82.55,-108 76.55,-108"/>
<text text-anchor="middle" x="55.8" y="-86.12" font-family="sans" font-size="10.00">bgzip_tabix</text>
</g>
<!-- 3&#45;&gt;10 -->
<g id="edge16" class="edge">
<title>3&#45;&gt;10</title>
<path fill="none" stroke="grey" stroke-width="2" d="M55.8,-215.02C55.8,-191.54 55.8,-150.11 55.8,-121.64"/>
<polygon fill="grey" stroke="grey" stroke-width="2" points="59.3,-121.87 55.8,-111.87 52.3,-121.87 59.3,-121.87"/>
</g>
<!-- 4 -->
<g id="node5" class="node">
<title>4</title>
<path fill="none" stroke="#d85656" stroke-width="2" d="M90.42,-324C90.42,-324 21.17,-324 21.17,-324 15.17,-324 9.17,-318 9.17,-312 9.17,-312 9.17,-300 9.17,-300 9.17,-294 15.17,-288 21.17,-288 21.17,-288 90.42,-288 90.42,-288 96.42,-288 102.42,-294 102.42,-300 102.42,-300 102.42,-312 102.42,-312 102.42,-318 96.42,-324 90.42,-324"/>
<text text-anchor="middle" x="55.8" y="-307.75" font-family="sans" font-size="10.00">pre_filtering</text>
<text text-anchor="middle" x="55.8" y="-296.5" font-family="sans" font-size="10.00">seqid: seq.3007.7</text>
</g>
<!-- 4&#45;&gt;3 -->
<g id="edge11" class="edge">
<title>4&#45;&gt;3</title>
<path fill="none" stroke="grey" stroke-width="2" d="M55.8,-287.34C55.8,-280.75 55.8,-273.08 55.8,-265.67"/>
<polygon fill="grey" stroke="grey" stroke-width="2" points="59.3,-265.93 55.8,-255.93 52.3,-265.93 59.3,-265.93"/>
</g>
<!-- 5 -->
<g id="node6" class="node">
<title>5</title>
<path fill="none" stroke="#569ad8" stroke-width="2" d="M313.67,-180C313.67,-180 227.92,-180 227.92,-180 221.92,-180 215.92,-174 215.92,-168 215.92,-168 215.92,-156 215.92,-156 215.92,-150 221.92,-144 227.92,-144 227.92,-144 313.67,-144 313.67,-144 319.67,-144 325.67,-150 325.67,-156 325.67,-156 325.67,-168 325.67,-168 325.67,-174 319.67,-180 313.67,-180"/>
<text text-anchor="middle" x="270.8" y="-158.12" font-family="sans" font-size="10.00">summarize_sumstats</text>
</g>
<!-- 5&#45;&gt;1 -->
<g id="edge9" class="edge">
<title>5&#45;&gt;1</title>
<path fill="none" stroke="grey" stroke-width="2" d="M269.79,-143.34C269.41,-136.75 268.97,-129.08 268.55,-121.67"/>
<polygon fill="grey" stroke="grey" stroke-width="2" points="272.06,-121.71 267.99,-111.92 265.07,-122.11 272.06,-121.71"/>
</g>
<!-- 5&#45;&gt;8 -->
<g id="edge15" class="edge">
<title>5&#45;&gt;8</title>
<path fill="none" stroke="grey" stroke-width="2" d="M239.19,-143.15C224.03,-134.6 205.65,-124.22 189.29,-114.99"/>
<polygon fill="grey" stroke="grey" stroke-width="2" points="191.41,-112.17 180.99,-110.3 187.97,-118.26 191.41,-112.17"/>
</g>
<!-- 6 -->
<g id="node7" class="node">
<title>6</title>
<path fill="none" stroke="#d6d856" stroke-width="2" d="M548.17,-252C548.17,-252 465.42,-252 465.42,-252 459.42,-252 453.42,-246 453.42,-240 453.42,-240 453.42,-228 453.42,-228 453.42,-222 459.42,-216 465.42,-216 465.42,-216 548.17,-216 548.17,-216 554.17,-216 560.17,-222 560.17,-228 560.17,-228 560.17,-240 560.17,-240 560.17,-246 554.17,-252 548.17,-252"/>
<text text-anchor="middle" x="506.8" y="-230.12" font-family="sans" font-size="10.00">harmonize_sumstats</text>
</g>
<!-- 6&#45;&gt;0 -->
<g id="edge5" class="edge">
<title>6&#45;&gt;0</title>
<path fill="none" stroke="grey" stroke-width="2" d="M510.6,-215.16C516.47,-182.39 523.6,-112.29 487.8,-72 464.2,-45.45 364.46,-30.03 307.37,-23.21"/>
<polygon fill="grey" stroke="grey" stroke-width="2" points="307.86,-19.75 297.53,-22.09 307.06,-26.7 307.86,-19.75"/>
</g>
<!-- 6&#45;&gt;5 -->
<g id="edge12" class="edge">
<title>6&#45;&gt;5</title>
<path fill="none" stroke="grey" stroke-width="2" d="M452.65,-216.94C418.81,-206.9 374.94,-193.89 338.77,-183.16"/>
<polygon fill="grey" stroke="grey" stroke-width="2" points="339.81,-179.82 329.23,-180.33 337.82,-186.53 339.81,-179.82"/>
</g>
<!-- 11 -->
<g id="node12" class="node">
<title>11</title>
<path fill="none" stroke="#97d856" stroke-width="2" d="M588.55,-180C588.55,-180 547.05,-180 547.05,-180 541.05,-180 535.05,-174 535.05,-168 535.05,-168 535.05,-156 535.05,-156 535.05,-150 541.05,-144 547.05,-144 547.05,-144 588.55,-144 588.55,-144 594.55,-144 600.55,-150 600.55,-156 600.55,-156 600.55,-168 600.55,-168 600.55,-174 594.55,-180 588.55,-180"/>
<text text-anchor="middle" x="567.8" y="-158.12" font-family="sans" font-size="10.00">bgzip_tabix</text>
</g>
<!-- 6&#45;&gt;11 -->
<g id="edge17" class="edge">
<title>6&#45;&gt;11</title>
<path fill="none" stroke="grey" stroke-width="2" d="M522.19,-215.34C528.71,-207.85 536.47,-198.95 543.72,-190.63"/>
<polygon fill="grey" stroke="grey" stroke-width="2" points="546.28,-193.02 550.21,-183.18 541,-188.42 546.28,-193.02"/>
</g>
<!-- 7 -->
<g id="node8" class="node">
<title>7</title>
<path fill="none" stroke="#d85656" stroke-width="2" d="M541.42,-324C541.42,-324 472.17,-324 472.17,-324 466.17,-324 460.17,-318 460.17,-312 460.17,-312 460.17,-300 460.17,-300 460.17,-294 466.17,-288 472.17,-288 472.17,-288 541.42,-288 541.42,-288 547.42,-288 553.42,-294 553.42,-300 553.42,-300 553.42,-312 553.42,-312 553.42,-318 547.42,-324 541.42,-324"/>
<text text-anchor="middle" x="506.8" y="-307.75" font-family="sans" font-size="10.00">pre_filtering</text>
<text text-anchor="middle" x="506.8" y="-296.5" font-family="sans" font-size="10.00">seqid: seq.9267.2</text>
</g>
<!-- 7&#45;&gt;6 -->
<g id="edge13" class="edge">
<title>7&#45;&gt;6</title>
<path fill="none" stroke="grey" stroke-width="2" d="M506.8,-287.34C506.8,-280.75 506.8,-273.08 506.8,-265.67"/>
<polygon fill="grey" stroke="grey" stroke-width="2" points="510.3,-265.93 506.8,-255.93 503.3,-265.93 510.3,-265.93"/>
</g>
<!-- 8&#45;&gt;0 -->
<g id="edge2" class="edge">
<title>8&#45;&gt;0</title>
<path fill="none" stroke="grey" stroke-width="2" d="M177.39,-71.15C192.85,-62.14 211.77,-51.1 228.21,-41.51"/>
<polygon fill="grey" stroke="grey" stroke-width="2" points="229.64,-44.72 236.52,-36.66 226.12,-38.68 229.64,-44.72"/>
</g>
<!-- 9 -->
<g id="node10" class="node">
<title>9</title>
<path fill="none" stroke="#56d89a" stroke-width="2" d="M466.92,-108C466.92,-108 358.67,-108 358.67,-108 352.67,-108 346.67,-102 346.67,-96 346.67,-96 346.67,-84 346.67,-84 346.67,-78 352.67,-72 358.67,-72 358.67,-72 466.92,-72 466.92,-72 472.92,-72 478.92,-78 478.92,-84 478.92,-84 478.92,-96 478.92,-96 478.92,-102 472.92,-108 466.92,-108"/>
<text text-anchor="middle" x="412.8" y="-86.12" font-family="sans" font-size="10.00">create_snp_mapping_table</text>
</g>
<!-- 9&#45;&gt;0 -->
<g id="edge3" class="edge">
<title>9&#45;&gt;0</title>
<path fill="none" stroke="grey" stroke-width="2" d="M375.58,-71.15C354.43,-61.02 327.97,-48.33 306.44,-38.01"/>
<polygon fill="grey" stroke="grey" stroke-width="2" points="307.99,-34.87 297.46,-33.7 304.96,-41.18 307.99,-34.87"/>
</g>
<!-- 10&#45;&gt;0 -->
<g id="edge6" class="edge">
<title>10&#45;&gt;0</title>
<path fill="none" stroke="grey" stroke-width="2" d="M89.17,-75.21C92.08,-74.09 94.98,-73.01 97.8,-72 141.43,-56.36 192.27,-40.76 226.71,-30.58"/>
<polygon fill="grey" stroke="grey" stroke-width="2" points="227.54,-33.98 236.15,-27.81 225.57,-27.27 227.54,-33.98"/>
</g>
<!-- 11&#45;&gt;0 -->
<g id="edge7" class="edge">
<title>11&#45;&gt;0</title>
<path fill="none" stroke="grey" stroke-width="2" d="M563.38,-143.3C557.31,-122.86 544.39,-89.76 520.8,-72 487.6,-47.01 370.37,-30.52 307.44,-23.25"/>
<polygon fill="grey" stroke="grey" stroke-width="2" points="307.85,-19.77 297.52,-22.14 307.07,-26.73 307.85,-19.77"/>
</g>
</g>
</svg>
