<?xml version="1.0" encoding="UTF-8" standalone="no"?>
<!DOCTYPE svg PUBLIC "-//W3C//DTD SVG 1.1//EN"
 "http://www.w3.org/Graphics/SVG/1.1/DTD/svg11.dtd">
<!-- Generated by graphviz version 12.2.1 (20241206.2353)
 -->
<!-- Title: snakemake_dag Pages: 1 -->
<svg width="780pt" height="404pt"
 viewBox="0.00 0.00 779.82 404.00" xmlns="http://www.w3.org/2000/svg" xmlns:xlink="http://www.w3.org/1999/xlink">
<g id="graph0" class="graph" transform="scale(1 1) rotate(0) translate(4 400)">
<title>snakemake_dag</title>
<polygon fill="white" stroke="none" points="-4,4 -4,-400 775.82,-400 775.82,4 -4,4"/>
<!-- 0 -->
<g id="node1" class="node">
<title>0</title>
<path fill="none" stroke="#56d86b" stroke-width="2" d="M369.12,-36C369.12,-36 339.12,-36 339.12,-36 333.12,-36 327.12,-30 327.12,-24 327.12,-24 327.12,-12 327.12,-12 327.12,-6 333.12,0 339.12,0 339.12,0 369.12,0 369.12,0 375.12,0 381.12,-6 381.12,-12 381.12,-12 381.12,-24 381.12,-24 381.12,-30 375.12,-36 369.12,-36"/>
<text text-anchor="middle" x="354.12" y="-14.12" font-family="sans" font-size="10.00">all</text>
</g>
<!-- 1 -->
<g id="node2" class="node">
<title>1</title>
<path fill="none" stroke="#d8b456" stroke-width="2" d="M245.5,-252C245.5,-252 162.75,-252 162.75,-252 156.75,-252 150.75,-246 150.75,-240 150.75,-240 150.75,-228 150.75,-228 150.75,-222 156.75,-216 162.75,-216 162.75,-216 245.5,-216 245.5,-216 251.5,-216 257.5,-222 257.5,-228 257.5,-228 257.5,-240 257.5,-240 257.5,-246 251.5,-252 245.5,-252"/>
<text text-anchor="middle" x="204.12" y="-230.12" font-family="sans" font-size="10.00">harmonize_sumstats</text>
</g>
<!-- 1&#45;&gt;0 -->
<g id="edge1" class="edge">
<title>1&#45;&gt;0</title>
<path fill="none" stroke="grey" stroke-width="2" d="M182.81,-215.19C147.99,-183.97 86.28,-118.26 123.12,-72 146.48,-42.68 253.62,-28.25 313.44,-22.36"/>
<polygon fill="grey" stroke="grey" stroke-width="2" points="313.5,-25.87 323.13,-21.45 312.85,-18.9 313.5,-25.87"/>
</g>
<!-- 7 -->
<g id="node8" class="node">
<title>7</title>
<path fill="none" stroke="#5682d8" stroke-width="2" d="M185.88,-108C185.88,-108 144.38,-108 144.38,-108 138.38,-108 132.38,-102 132.38,-96 132.38,-96 132.38,-84 132.38,-84 132.38,-78 138.38,-72 144.38,-72 144.38,-72 185.88,-72 185.88,-72 191.88,-72 197.88,-78 197.88,-84 197.88,-84 197.88,-96 197.88,-96 197.88,-102 191.88,-108 185.88,-108"/>
<text text-anchor="middle" x="165.12" y="-86.12" font-family="sans" font-size="10.00">bgzip_tabix</text>
</g>
<!-- 1&#45;&gt;7 -->
<g id="edge15" class="edge">
<title>1&#45;&gt;7</title>
<path fill="none" stroke="grey" stroke-width="2" d="M199.19,-215.02C192.71,-191.44 181.26,-149.73 173.43,-121.25"/>
<polygon fill="grey" stroke="grey" stroke-width="2" points="176.85,-120.47 170.83,-111.76 170.1,-122.33 176.85,-120.47"/>
</g>
<!-- 10 -->
<g id="node11" class="node">
<title>10</title>
<path fill="none" stroke="#56d8c9" stroke-width="2" d="M312,-180C312,-180 226.25,-180 226.25,-180 220.25,-180 214.25,-174 214.25,-168 214.25,-168 214.25,-156 214.25,-156 214.25,-150 220.25,-144 226.25,-144 226.25,-144 312,-144 312,-144 318,-144 324,-150 324,-156 324,-156 324,-168 324,-168 324,-174 318,-180 312,-180"/>
<text text-anchor="middle" x="269.12" y="-158.12" font-family="sans" font-size="10.00">summarize_sumstats</text>
</g>
<!-- 1&#45;&gt;10 -->
<g id="edge19" class="edge">
<title>1&#45;&gt;10</title>
<path fill="none" stroke="grey" stroke-width="2" d="M220.53,-215.34C227.56,-207.77 235.93,-198.75 243.73,-190.35"/>
<polygon fill="grey" stroke="grey" stroke-width="2" points="246.2,-192.83 250.44,-183.12 241.07,-188.07 246.2,-192.83"/>
</g>
<!-- 14 -->
<g id="node15" class="node">
<title>14</title>
<path fill="none" stroke="#ced856" stroke-width="2" d="M569.12,-180C569.12,-180 517.12,-180 517.12,-180 511.12,-180 505.12,-174 505.12,-168 505.12,-168 505.12,-156 505.12,-156 505.12,-150 511.12,-144 517.12,-144 517.12,-144 569.12,-144 569.12,-144 575.12,-144 581.12,-150 581.12,-156 581.12,-156 581.12,-168 581.12,-168 581.12,-174 575.12,-180 569.12,-180"/>
<text text-anchor="middle" x="543.12" y="-158.12" font-family="sans" font-size="10.00">quality_check</text>
</g>
<!-- 1&#45;&gt;14 -->
<g id="edge25" class="edge">
<title>1&#45;&gt;14</title>
<path fill="none" stroke="grey" stroke-width="2" d="M258.32,-223.81C314.15,-214.06 403.58,-197.65 480.12,-180 483.92,-179.12 487.83,-178.18 491.77,-177.19"/>
<polygon fill="grey" stroke="grey" stroke-width="2" points="492.51,-180.62 501.32,-174.73 490.77,-173.84 492.51,-180.62"/>
</g>
<!-- 2 -->
<g id="node3" class="node">
<title>2</title>
<path fill="none" stroke="#70d856" stroke-width="2" d="M165.62,-324C165.62,-324 104.62,-324 104.62,-324 98.62,-324 92.62,-318 92.62,-312 92.62,-312 92.62,-300 92.62,-300 92.62,-294 98.62,-288 104.62,-288 104.62,-288 165.62,-288 165.62,-288 171.62,-288 177.62,-294 177.62,-300 177.62,-300 177.62,-312 177.62,-312 177.62,-318 171.62,-324 165.62,-324"/>
<text text-anchor="middle" x="135.12" y="-302.12" font-family="sans" font-size="10.00">liftover_bcftools</text>
</g>
<!-- 2&#45;&gt;1 -->
<g id="edge11" class="edge">
<title>2&#45;&gt;1</title>
<path fill="none" stroke="grey" stroke-width="2" d="M152.54,-287.34C160.08,-279.69 169.08,-270.56 177.43,-262.08"/>
<polygon fill="grey" stroke="grey" stroke-width="2" points="179.83,-264.64 184.35,-255.06 174.84,-259.72 179.83,-264.64"/>
</g>
<!-- 16 -->
<g id="node17" class="node">
<title>16</title>
<path fill="none" stroke="#9fd856" stroke-width="2" d="M120.25,-252C120.25,-252 12,-252 12,-252 6,-252 0,-246 0,-240 0,-240 0,-228 0,-228 0,-222 6,-216 12,-216 12,-216 120.25,-216 120.25,-216 126.25,-216 132.25,-222 132.25,-228 132.25,-228 132.25,-240 132.25,-240 132.25,-246 126.25,-252 120.25,-252"/>
<text text-anchor="middle" x="66.12" y="-230.12" font-family="sans" font-size="10.00">create_snp_mapping_table</text>
</g>
<!-- 2&#45;&gt;16 -->
<g id="edge27" class="edge">
<title>2&#45;&gt;16</title>
<path fill="none" stroke="grey" stroke-width="2" d="M117.71,-287.34C110.17,-279.69 101.17,-270.56 92.82,-262.08"/>
<polygon fill="grey" stroke="grey" stroke-width="2" points="95.41,-259.72 85.9,-255.06 90.42,-264.64 95.41,-259.72"/>
</g>
<!-- 3 -->
<g id="node4" class="node">
<title>3</title>
<path fill="none" stroke="#d88556" stroke-width="2" d="M182.12,-396C182.12,-396 88.12,-396 88.12,-396 82.12,-396 76.12,-390 76.12,-384 76.12,-384 76.12,-372 76.12,-372 76.12,-366 82.12,-360 88.12,-360 88.12,-360 182.12,-360 182.12,-360 188.12,-360 194.12,-366 194.12,-372 194.12,-372 194.12,-384 194.12,-384 194.12,-390 188.12,-396 182.12,-396"/>
<text text-anchor="middle" x="135.12" y="-379.75" font-family="sans" font-size="10.00">convert_to_vcf</text>
<text text-anchor="middle" x="135.12" y="-368.5" font-family="sans" font-size="10.00">sumstat_id: seq.3007.7</text>
</g>
<!-- 3&#45;&gt;2 -->
<g id="edge12" class="edge">
<title>3&#45;&gt;2</title>
<path fill="none" stroke="grey" stroke-width="2" d="M135.12,-359.34C135.12,-352.75 135.12,-345.08 135.12,-337.67"/>
<polygon fill="grey" stroke="grey" stroke-width="2" points="138.63,-337.93 135.13,-327.93 131.63,-337.93 138.63,-337.93"/>
</g>
<!-- 4 -->
<g id="node5" class="node">
<title>4</title>
<path fill="none" stroke="#d8b456" stroke-width="2" d="M720.5,-252C720.5,-252 637.75,-252 637.75,-252 631.75,-252 625.75,-246 625.75,-240 625.75,-240 625.75,-228 625.75,-228 625.75,-222 631.75,-216 637.75,-216 637.75,-216 720.5,-216 720.5,-216 726.5,-216 732.5,-222 732.5,-228 732.5,-228 732.5,-240 732.5,-240 732.5,-246 726.5,-252 720.5,-252"/>
<text text-anchor="middle" x="679.12" y="-230.12" font-family="sans" font-size="10.00">harmonize_sumstats</text>
</g>
<!-- 4&#45;&gt;0 -->
<g id="edge2" class="edge">
<title>4&#45;&gt;0</title>
<path fill="none" stroke="grey" stroke-width="2" d="M700.41,-215.05C735.56,-183.31 798.14,-116.45 759.12,-72 735.28,-44.83 492.47,-27.32 394.64,-21.32"/>
<polygon fill="grey" stroke="grey" stroke-width="2" points="395.06,-17.83 384.86,-20.73 394.63,-24.82 395.06,-17.83"/>
</g>
<!-- 8 -->
<g id="node9" class="node">
<title>8</title>
<path fill="none" stroke="#5682d8" stroke-width="2" d="M737.88,-108C737.88,-108 696.38,-108 696.38,-108 690.38,-108 684.38,-102 684.38,-96 684.38,-96 684.38,-84 684.38,-84 684.38,-78 690.38,-72 696.38,-72 696.38,-72 737.88,-72 737.88,-72 743.88,-72 749.88,-78 749.88,-84 749.88,-84 749.88,-96 749.88,-96 749.88,-102 743.88,-108 737.88,-108"/>
<text text-anchor="middle" x="717.12" y="-86.12" font-family="sans" font-size="10.00">bgzip_tabix</text>
</g>
<!-- 4&#45;&gt;8 -->
<g id="edge16" class="edge">
<title>4&#45;&gt;8</title>
<path fill="none" stroke="grey" stroke-width="2" d="M683.94,-215.02C690.25,-191.44 701.41,-149.73 709.03,-121.25"/>
<polygon fill="grey" stroke="grey" stroke-width="2" points="712.36,-122.33 711.57,-111.76 705.6,-120.52 712.36,-122.33"/>
</g>
<!-- 11 -->
<g id="node12" class="node">
<title>11</title>
<path fill="none" stroke="#56d8c9" stroke-width="2" d="M459,-180C459,-180 373.25,-180 373.25,-180 367.25,-180 361.25,-174 361.25,-168 361.25,-168 361.25,-156 361.25,-156 361.25,-150 367.25,-144 373.25,-144 373.25,-144 459,-144 459,-144 465,-144 471,-150 471,-156 471,-156 471,-168 471,-168 471,-174 465,-180 459,-180"/>
<text text-anchor="middle" x="416.12" y="-158.12" font-family="sans" font-size="10.00">summarize_sumstats</text>
</g>
<!-- 4&#45;&gt;11 -->
<g id="edge20" class="edge">
<title>4&#45;&gt;11</title>
<path fill="none" stroke="grey" stroke-width="2" d="M624.95,-218.58C584.17,-207.73 527.99,-192.77 484.18,-181.11"/>
<polygon fill="grey" stroke="grey" stroke-width="2" points="485.08,-177.73 474.51,-178.54 483.28,-184.49 485.08,-177.73"/>
</g>
<!-- 15 -->
<g id="node16" class="node">
<title>15</title>
<path fill="none" stroke="#ced856" stroke-width="2" d="M671.12,-180C671.12,-180 619.12,-180 619.12,-180 613.12,-180 607.12,-174 607.12,-168 607.12,-168 607.12,-156 607.12,-156 607.12,-150 613.12,-144 619.12,-144 619.12,-144 671.12,-144 671.12,-144 677.12,-144 683.12,-150 683.12,-156 683.12,-156 683.12,-168 683.12,-168 683.12,-174 677.12,-180 671.12,-180"/>
<text text-anchor="middle" x="645.12" y="-158.12" font-family="sans" font-size="10.00">quality_check</text>
</g>
<!-- 4&#45;&gt;15 -->
<g id="edge26" class="edge">
<title>4&#45;&gt;15</title>
<path fill="none" stroke="grey" stroke-width="2" d="M670.55,-215.34C667.19,-208.43 663.25,-200.31 659.48,-192.56"/>
<polygon fill="grey" stroke="grey" stroke-width="2" points="662.66,-191.09 655.14,-183.62 656.36,-194.15 662.66,-191.09"/>
</g>
<!-- 5 -->
<g id="node6" class="node">
<title>5</title>
<path fill="none" stroke="#70d856" stroke-width="2" d="M709.62,-324C709.62,-324 648.62,-324 648.62,-324 642.62,-324 636.62,-318 636.62,-312 636.62,-312 636.62,-300 636.62,-300 636.62,-294 642.62,-288 648.62,-288 648.62,-288 709.62,-288 709.62,-288 715.62,-288 721.62,-294 721.62,-300 721.62,-300 721.62,-312 721.62,-312 721.62,-318 715.62,-324 709.62,-324"/>
<text text-anchor="middle" x="679.12" y="-302.12" font-family="sans" font-size="10.00">liftover_bcftools</text>
</g>
<!-- 5&#45;&gt;4 -->
<g id="edge13" class="edge">
<title>5&#45;&gt;4</title>
<path fill="none" stroke="grey" stroke-width="2" d="M679.12,-287.34C679.12,-280.75 679.12,-273.08 679.12,-265.67"/>
<polygon fill="grey" stroke="grey" stroke-width="2" points="682.63,-265.93 679.13,-255.93 675.63,-265.93 682.63,-265.93"/>
</g>
<!-- 6 -->
<g id="node7" class="node">
<title>6</title>
<path fill="none" stroke="#d88556" stroke-width="2" d="M726.12,-396C726.12,-396 632.12,-396 632.12,-396 626.12,-396 620.12,-390 620.12,-384 620.12,-384 620.12,-372 620.12,-372 620.12,-366 626.12,-360 632.12,-360 632.12,-360 726.12,-360 726.12,-360 732.12,-360 738.12,-366 738.12,-372 738.12,-372 738.12,-384 738.12,-384 738.12,-390 732.12,-396 726.12,-396"/>
<text text-anchor="middle" x="679.12" y="-379.75" font-family="sans" font-size="10.00">convert_to_vcf</text>
<text text-anchor="middle" x="679.12" y="-368.5" font-family="sans" font-size="10.00">sumstat_id: seq.9267.2</text>
</g>
<!-- 6&#45;&gt;5 -->
<g id="edge14" class="edge">
<title>6&#45;&gt;5</title>
<path fill="none" stroke="grey" stroke-width="2" d="M679.12,-359.34C679.12,-352.75 679.12,-345.08 679.12,-337.67"/>
<polygon fill="grey" stroke="grey" stroke-width="2" points="682.63,-337.93 679.13,-327.93 675.63,-337.93 682.63,-337.93"/>
</g>
<!-- 7&#45;&gt;0 -->
<g id="edge3" class="edge">
<title>7&#45;&gt;0</title>
<path fill="none" stroke="grey" stroke-width="2" d="M198.48,-76.65C230.85,-64.66 280,-46.45 314.39,-33.72"/>
<polygon fill="grey" stroke="grey" stroke-width="2" points="315.33,-37.1 323.49,-30.35 312.9,-30.54 315.33,-37.1"/>
</g>
<!-- 8&#45;&gt;0 -->
<g id="edge4" class="edge">
<title>8&#45;&gt;0</title>
<path fill="none" stroke="grey" stroke-width="2" d="M683.42,-74.61C680.64,-73.65 677.85,-72.77 675.12,-72 576.55,-44.28 456.61,-29.24 395,-22.82"/>
<polygon fill="grey" stroke="grey" stroke-width="2" points="395.37,-19.34 385.07,-21.82 394.66,-26.31 395.37,-19.34"/>
</g>
<!-- 9 -->
<g id="node10" class="node">
<title>9</title>
<path fill="none" stroke="#56d89a" stroke-width="2" d="M464.12,-108C464.12,-108 364.12,-108 364.12,-108 358.12,-108 352.12,-102 352.12,-96 352.12,-96 352.12,-84 352.12,-84 352.12,-78 358.12,-72 364.12,-72 364.12,-72 464.12,-72 464.12,-72 470.12,-72 476.12,-78 476.12,-84 476.12,-84 476.12,-96 476.12,-96 476.12,-102 470.12,-108 464.12,-108"/>
<text text-anchor="middle" x="414.12" y="-86.12" font-family="sans" font-size="10.00">create_min_pvalue_table</text>
</g>
<!-- 9&#45;&gt;0 -->
<g id="edge5" class="edge">
<title>9&#45;&gt;0</title>
<path fill="none" stroke="grey" stroke-width="2" d="M398.98,-71.34C392.57,-63.85 384.94,-54.95 377.81,-46.63"/>
<polygon fill="grey" stroke="grey" stroke-width="2" points="380.6,-44.51 371.44,-39.2 375.29,-49.07 380.6,-44.51"/>
</g>
<!-- 10&#45;&gt;0 -->
<g id="edge9" class="edge">
<title>10&#45;&gt;0</title>
<path fill="none" stroke="grey" stroke-width="2" d="M256.45,-143.05C244.8,-124.15 231.29,-94.11 245.12,-72 260.14,-48 289.48,-34.59 313.94,-27.26"/>
<polygon fill="grey" stroke="grey" stroke-width="2" points="314.52,-30.73 323.26,-24.75 312.7,-23.97 314.52,-30.73"/>
</g>
<!-- 10&#45;&gt;9 -->
<g id="edge17" class="edge">
<title>10&#45;&gt;9</title>
<path fill="none" stroke="grey" stroke-width="2" d="M306.09,-143.15C324.09,-134.47 345.96,-123.91 365.31,-114.56"/>
<polygon fill="grey" stroke="grey" stroke-width="2" points="366.77,-117.75 374.25,-110.25 363.72,-111.45 366.77,-117.75"/>
</g>
<!-- 12 -->
<g id="node13" class="node">
<title>12</title>
<path fill="none" stroke="#d85656" stroke-width="2" d="M322,-108C322,-108 266.25,-108 266.25,-108 260.25,-108 254.25,-102 254.25,-96 254.25,-96 254.25,-84 254.25,-84 254.25,-78 260.25,-72 266.25,-72 266.25,-72 322,-72 322,-72 328,-72 334,-78 334,-84 334,-84 334,-96 334,-96 334,-102 328,-108 322,-108"/>
<text text-anchor="middle" x="294.12" y="-86.12" font-family="sans" font-size="10.00">create_if_table</text>
</g>
<!-- 10&#45;&gt;12 -->
<g id="edge21" class="edge">
<title>10&#45;&gt;12</title>
<path fill="none" stroke="grey" stroke-width="2" d="M275.43,-143.34C277.84,-136.59 280.66,-128.69 283.37,-121.11"/>
<polygon fill="grey" stroke="grey" stroke-width="2" points="286.65,-122.35 286.71,-111.75 280.05,-119.99 286.65,-122.35"/>
</g>
<!-- 11&#45;&gt;0 -->
<g id="edge10" class="edge">
<title>11&#45;&gt;0</title>
<path fill="none" stroke="grey" stroke-width="2" d="M451.41,-143.01C464.51,-134.35 477.91,-122.63 485.12,-108 492.2,-93.65 494.07,-85.27 485.12,-72 465.11,-42.32 425.36,-29.25 394.87,-23.51"/>
<polygon fill="grey" stroke="grey" stroke-width="2" points="395.45,-20.06 385.02,-21.9 394.32,-26.96 395.45,-20.06"/>
</g>
<!-- 11&#45;&gt;9 -->
<g id="edge18" class="edge">
<title>11&#45;&gt;9</title>
<path fill="none" stroke="grey" stroke-width="2" d="M415.62,-143.34C415.43,-136.75 415.21,-129.08 415,-121.67"/>
<polygon fill="grey" stroke="grey" stroke-width="2" points="418.51,-121.82 414.72,-111.93 411.51,-122.02 418.51,-121.82"/>
</g>
<!-- 11&#45;&gt;12 -->
<g id="edge22" class="edge">
<title>11&#45;&gt;12</title>
<path fill="none" stroke="grey" stroke-width="2" d="M385.02,-143.15C370.25,-134.68 352.38,-124.42 336.4,-115.25"/>
<polygon fill="grey" stroke="grey" stroke-width="2" points="338.21,-112.26 327.8,-110.32 334.73,-118.33 338.21,-112.26"/>
</g>
<!-- 12&#45;&gt;0 -->
<g id="edge6" class="edge">
<title>12&#45;&gt;0</title>
<path fill="none" stroke="grey" stroke-width="2" d="M309.27,-71.34C315.68,-63.85 323.31,-54.95 330.44,-46.63"/>
<polygon fill="grey" stroke="grey" stroke-width="2" points="332.96,-49.07 336.81,-39.2 327.65,-44.51 332.96,-49.07"/>
</g>
<!-- 13 -->
<g id="node14" class="node">
<title>13</title>
<path fill="none" stroke="#56b1d8" stroke-width="2" d="M654.38,-108C654.38,-108 543.88,-108 543.88,-108 537.88,-108 531.88,-102 531.88,-96 531.88,-96 531.88,-84 531.88,-84 531.88,-78 537.88,-72 543.88,-72 543.88,-72 654.38,-72 654.38,-72 660.38,-72 666.38,-78 666.38,-84 666.38,-84 666.38,-96 666.38,-96 666.38,-102 660.38,-108 654.38,-108"/>
<text text-anchor="middle" x="599.12" y="-86.12" font-family="sans" font-size="10.00">create_quality_check_table</text>
</g>
<!-- 13&#45;&gt;0 -->
<g id="edge7" class="edge">
<title>13&#45;&gt;0</title>
<path fill="none" stroke="grey" stroke-width="2" d="M536.35,-71.06C491.74,-58.32 433.13,-41.57 394.58,-30.56"/>
<polygon fill="grey" stroke="grey" stroke-width="2" points="395.57,-27.2 385,-27.82 393.65,-33.93 395.57,-27.2"/>
</g>
<!-- 14&#45;&gt;13 -->
<g id="edge23" class="edge">
<title>14&#45;&gt;13</title>
<path fill="none" stroke="grey" stroke-width="2" d="M557.26,-143.34C563.18,-135.93 570.21,-127.14 576.8,-118.9"/>
<polygon fill="grey" stroke="grey" stroke-width="2" points="579.4,-121.26 582.91,-111.27 573.93,-116.89 579.4,-121.26"/>
</g>
<!-- 15&#45;&gt;13 -->
<g id="edge24" class="edge">
<title>15&#45;&gt;13</title>
<path fill="none" stroke="grey" stroke-width="2" d="M633.52,-143.34C628.81,-136.18 623.26,-127.73 618,-119.73"/>
<polygon fill="grey" stroke="grey" stroke-width="2" points="620.97,-117.87 612.55,-111.43 615.12,-121.71 620.97,-117.87"/>
</g>
<!-- 16&#45;&gt;0 -->
<g id="edge8" class="edge">
<title>16&#45;&gt;0</title>
<path fill="none" stroke="grey" stroke-width="2" d="M65.18,-215.04C64.47,-181.75 68.07,-110.37 108.12,-72 137.15,-44.2 251.53,-28.98 313.58,-22.62"/>
<polygon fill="grey" stroke="grey" stroke-width="2" points="313.72,-26.12 323.33,-21.66 313.03,-19.16 313.72,-26.12"/>
</g>
</g>
</svg>
