<?xml version="1.0" encoding="UTF-8" standalone="no"?>
<!DOCTYPE svg PUBLIC "-//W3C//DTD SVG 1.1//EN"
 "http://www.w3.org/Graphics/SVG/1.1/DTD/svg11.dtd">
<!-- Generated by graphviz version 12.2.1 (20241206.2353)
 -->
<!-- Title: snakemake_dag Pages: 1 -->
<svg width="892pt" height="332pt"
 viewBox="0.00 0.00 892.25 332.00" xmlns="http://www.w3.org/2000/svg" xmlns:xlink="http://www.w3.org/1999/xlink">
<g id="graph0" class="graph" transform="scale(1 1) rotate(0) translate(4 328)">
<title>snakemake_dag</title>
<polygon fill="white" stroke="none" points="-4,4 -4,-328 888.25,-328 888.25,4 -4,4"/>
<!-- 0 -->
<g id="node1" class="node">
<title>0</title>
<path fill="none" stroke="#88d856" stroke-width="2" d="M501.12,-36C501.12,-36 471.12,-36 471.12,-36 465.12,-36 459.12,-30 459.12,-24 459.12,-24 459.12,-12 459.12,-12 459.12,-6 465.12,0 471.12,0 471.12,0 501.12,0 501.12,0 507.12,0 513.12,-6 513.12,-12 513.12,-12 513.12,-24 513.12,-24 513.12,-30 507.12,-36 501.12,-36"/>
<text text-anchor="middle" x="486.12" y="-14.12" font-family="sans" font-size="10.00">all</text>
</g>
<!-- 1 -->
<g id="node2" class="node">
<title>1</title>
<path fill="none" stroke="#56d88a" stroke-width="2" d="M264.5,-252C264.5,-252 181.75,-252 181.75,-252 175.75,-252 169.75,-246 169.75,-240 169.75,-240 169.75,-228 169.75,-228 169.75,-222 175.75,-216 181.75,-216 181.75,-216 264.5,-216 264.5,-216 270.5,-216 276.5,-222 276.5,-228 276.5,-228 276.5,-240 276.5,-240 276.5,-246 270.5,-252 264.5,-252"/>
<text text-anchor="middle" x="223.12" y="-230.12" font-family="sans" font-size="10.00">harmonize_sumstats</text>
</g>
<!-- 1&#45;&gt;0 -->
<g id="edge1" class="edge">
<title>1&#45;&gt;0</title>
<path fill="none" stroke="grey" stroke-width="2" d="M203.19,-215.45C193.97,-205.99 184,-193.5 179.12,-180 162.21,-133.14 170.47,-103.42 209.12,-72 244.92,-42.9 378.1,-27.92 445.91,-22.05"/>
<polygon fill="grey" stroke="grey" stroke-width="2" points="445.86,-25.56 455.53,-21.24 445.28,-18.59 445.86,-25.56"/>
</g>
<!-- 5 -->
<g id="node6" class="node">
<title>5</title>
<path fill="none" stroke="#bed856" stroke-width="2" d="M241.88,-180C241.88,-180 200.38,-180 200.38,-180 194.38,-180 188.38,-174 188.38,-168 188.38,-168 188.38,-156 188.38,-156 188.38,-150 194.38,-144 200.38,-144 200.38,-144 241.88,-144 241.88,-144 247.88,-144 253.88,-150 253.88,-156 253.88,-156 253.88,-168 253.88,-168 253.88,-174 247.88,-180 241.88,-180"/>
<text text-anchor="middle" x="221.12" y="-158.12" font-family="sans" font-size="10.00">bgzip_tabix</text>
</g>
<!-- 1&#45;&gt;5 -->
<g id="edge14" class="edge">
<title>1&#45;&gt;5</title>
<path fill="none" stroke="grey" stroke-width="2" d="M222.62,-215.34C222.43,-208.75 222.21,-201.08 222,-193.67"/>
<polygon fill="grey" stroke="grey" stroke-width="2" points="225.51,-193.82 221.72,-183.93 218.51,-194.02 225.51,-193.82"/>
</g>
<!-- 8 -->
<g id="node9" class="node">
<title>8</title>
<path fill="none" stroke="#d85656" stroke-width="2" d="M558,-180C558,-180 472.25,-180 472.25,-180 466.25,-180 460.25,-174 460.25,-168 460.25,-168 460.25,-156 460.25,-156 460.25,-150 466.25,-144 472.25,-144 472.25,-144 558,-144 558,-144 564,-144 570,-150 570,-156 570,-156 570,-168 570,-168 570,-174 564,-180 558,-180"/>
<text text-anchor="middle" x="515.12" y="-158.12" font-family="sans" font-size="10.00">summarize_sumstats</text>
</g>
<!-- 1&#45;&gt;8 -->
<g id="edge18" class="edge">
<title>1&#45;&gt;8</title>
<path fill="none" stroke="grey" stroke-width="2" d="M277.14,-220.94C320.61,-211.13 383.58,-196.66 447.03,-180.98"/>
<polygon fill="grey" stroke="grey" stroke-width="2" points="447.5,-184.47 456.37,-178.67 445.82,-177.68 447.5,-184.47"/>
</g>
<!-- 12 -->
<g id="node13" class="node">
<title>12</title>
<path fill="none" stroke="#56c1d8" stroke-width="2" d="M336.12,-180C336.12,-180 284.12,-180 284.12,-180 278.12,-180 272.12,-174 272.12,-168 272.12,-168 272.12,-156 272.12,-156 272.12,-150 278.12,-144 284.12,-144 284.12,-144 336.12,-144 336.12,-144 342.12,-144 348.12,-150 348.12,-156 348.12,-156 348.12,-168 348.12,-168 348.12,-174 342.12,-180 336.12,-180"/>
<text text-anchor="middle" x="310.12" y="-158.12" font-family="sans" font-size="10.00">quality_check</text>
</g>
<!-- 1&#45;&gt;12 -->
<g id="edge25" class="edge">
<title>1&#45;&gt;12</title>
<path fill="none" stroke="grey" stroke-width="2" d="M245.08,-215.34C255,-207.36 266.91,-197.77 277.82,-188.99"/>
<polygon fill="grey" stroke="grey" stroke-width="2" points="279.92,-191.8 285.52,-182.8 275.53,-186.34 279.92,-191.8"/>
</g>
<!-- 2 -->
<g id="node3" class="node">
<title>2</title>
<path fill="none" stroke="#d8bc56" stroke-width="2" d="M275.75,-324C275.75,-324 170.5,-324 170.5,-324 164.5,-324 158.5,-318 158.5,-312 158.5,-312 158.5,-300 158.5,-300 158.5,-294 164.5,-288 170.5,-288 170.5,-288 275.75,-288 275.75,-288 281.75,-288 287.75,-294 287.75,-300 287.75,-300 287.75,-312 287.75,-312 287.75,-318 281.75,-324 275.75,-324"/>
<text text-anchor="middle" x="223.12" y="-307.75" font-family="sans" font-size="10.00">gwascatalog_wget</text>
<text text-anchor="middle" x="223.12" y="-296.5" font-family="sans" font-size="10.00">sumstat_id: GCST004770</text>
</g>
<!-- 2&#45;&gt;1 -->
<g id="edge12" class="edge">
<title>2&#45;&gt;1</title>
<path fill="none" stroke="grey" stroke-width="2" d="M223.12,-287.34C223.12,-280.75 223.12,-273.08 223.12,-265.67"/>
<polygon fill="grey" stroke="grey" stroke-width="2" points="226.63,-265.93 223.13,-255.93 219.63,-265.93 226.63,-265.93"/>
</g>
<!-- 2&#45;&gt;12 -->
<g id="edge24" class="edge">
<title>2&#45;&gt;12</title>
<path fill="none" stroke="grey" stroke-width="2" d="M250.53,-287.2C262.72,-278.02 276.28,-265.84 285.12,-252 296.35,-234.43 302.62,-211.78 306.07,-193.73"/>
<polygon fill="grey" stroke="grey" stroke-width="2" points="309.51,-194.4 307.7,-183.96 302.61,-193.25 309.51,-194.4"/>
</g>
<!-- 14 -->
<g id="node15" class="node">
<title>14</title>
<path fill="none" stroke="#d88d56" stroke-width="2" d="M120.25,-108C120.25,-108 12,-108 12,-108 6,-108 0,-102 0,-96 0,-96 0,-84 0,-84 0,-78 6,-72 12,-72 12,-72 120.25,-72 120.25,-72 126.25,-72 132.25,-78 132.25,-84 132.25,-84 132.25,-96 132.25,-96 132.25,-102 126.25,-108 120.25,-108"/>
<text text-anchor="middle" x="66.12" y="-86.12" font-family="sans" font-size="10.00">create_snp_mapping_table</text>
</g>
<!-- 2&#45;&gt;14 -->
<g id="edge28" class="edge">
<title>2&#45;&gt;14</title>
<path fill="none" stroke="grey" stroke-width="2" d="M198.47,-287.04C186.36,-277.47 172.05,-265.02 161.12,-252 126,-210.16 96,-153.73 79.56,-119.99"/>
<polygon fill="grey" stroke="grey" stroke-width="2" points="82.92,-118.9 75.44,-111.39 76.6,-121.92 82.92,-118.9"/>
</g>
<!-- 3 -->
<g id="node4" class="node">
<title>3</title>
<path fill="none" stroke="#56d88a" stroke-width="2" d="M699.5,-252C699.5,-252 616.75,-252 616.75,-252 610.75,-252 604.75,-246 604.75,-240 604.75,-240 604.75,-228 604.75,-228 604.75,-222 610.75,-216 616.75,-216 616.75,-216 699.5,-216 699.5,-216 705.5,-216 711.5,-222 711.5,-228 711.5,-228 711.5,-240 711.5,-240 711.5,-246 705.5,-252 699.5,-252"/>
<text text-anchor="middle" x="658.12" y="-230.12" font-family="sans" font-size="10.00">harmonize_sumstats</text>
</g>
<!-- 3&#45;&gt;0 -->
<g id="edge2" class="edge">
<title>3&#45;&gt;0</title>
<path fill="none" stroke="grey" stroke-width="2" d="M688.47,-215.09C736.07,-184.81 818.76,-121.91 777.12,-72 745.69,-34.32 599.02,-23.36 526.68,-20.23"/>
<polygon fill="grey" stroke="grey" stroke-width="2" points="527.24,-16.75 517.11,-19.85 526.96,-23.74 527.24,-16.75"/>
</g>
<!-- 6 -->
<g id="node7" class="node">
<title>6</title>
<path fill="none" stroke="#bed856" stroke-width="2" d="M755.88,-108C755.88,-108 714.38,-108 714.38,-108 708.38,-108 702.38,-102 702.38,-96 702.38,-96 702.38,-84 702.38,-84 702.38,-78 708.38,-72 714.38,-72 714.38,-72 755.88,-72 755.88,-72 761.88,-72 767.88,-78 767.88,-84 767.88,-84 767.88,-96 767.88,-96 767.88,-102 761.88,-108 755.88,-108"/>
<text text-anchor="middle" x="735.12" y="-86.12" font-family="sans" font-size="10.00">bgzip_tabix</text>
</g>
<!-- 3&#45;&gt;6 -->
<g id="edge15" class="edge">
<title>3&#45;&gt;6</title>
<path fill="none" stroke="grey" stroke-width="2" d="M678.53,-215.03C688.34,-205.47 699.58,-193.01 707.12,-180 717.68,-161.8 724.73,-139.16 729.12,-121.26"/>
<polygon fill="grey" stroke="grey" stroke-width="2" points="732.51,-122.14 731.3,-111.61 725.68,-120.59 732.51,-122.14"/>
</g>
<!-- 9 -->
<g id="node10" class="node">
<title>9</title>
<path fill="none" stroke="#d85656" stroke-width="2" d="M686,-180C686,-180 600.25,-180 600.25,-180 594.25,-180 588.25,-174 588.25,-168 588.25,-168 588.25,-156 588.25,-156 588.25,-150 594.25,-144 600.25,-144 600.25,-144 686,-144 686,-144 692,-144 698,-150 698,-156 698,-156 698,-168 698,-168 698,-174 692,-180 686,-180"/>
<text text-anchor="middle" x="643.12" y="-158.12" font-family="sans" font-size="10.00">summarize_sumstats</text>
</g>
<!-- 3&#45;&gt;9 -->
<g id="edge19" class="edge">
<title>3&#45;&gt;9</title>
<path fill="none" stroke="grey" stroke-width="2" d="M654.34,-215.34C652.91,-208.67 651.24,-200.89 649.64,-193.39"/>
<polygon fill="grey" stroke="grey" stroke-width="2" points="653.11,-192.91 647.6,-183.86 646.27,-194.37 653.11,-192.91"/>
</g>
<!-- 13 -->
<g id="node14" class="node">
<title>13</title>
<path fill="none" stroke="#56c1d8" stroke-width="2" d="M430.12,-180C430.12,-180 378.12,-180 378.12,-180 372.12,-180 366.12,-174 366.12,-168 366.12,-168 366.12,-156 366.12,-156 366.12,-150 372.12,-144 378.12,-144 378.12,-144 430.12,-144 430.12,-144 436.12,-144 442.12,-150 442.12,-156 442.12,-156 442.12,-168 442.12,-168 442.12,-174 436.12,-180 430.12,-180"/>
<text text-anchor="middle" x="404.12" y="-158.12" font-family="sans" font-size="10.00">quality_check</text>
</g>
<!-- 3&#45;&gt;13 -->
<g id="edge27" class="edge">
<title>3&#45;&gt;13</title>
<path fill="none" stroke="grey" stroke-width="2" d="M604.12,-220.68C564.98,-211.42 510.59,-197.85 455.21,-181.12"/>
<polygon fill="grey" stroke="grey" stroke-width="2" points="456.49,-177.86 445.91,-178.28 454.44,-184.55 456.49,-177.86"/>
</g>
<!-- 4 -->
<g id="node5" class="node">
<title>4</title>
<path fill="none" stroke="#d8bc56" stroke-width="2" d="M710.75,-324C710.75,-324 605.5,-324 605.5,-324 599.5,-324 593.5,-318 593.5,-312 593.5,-312 593.5,-300 593.5,-300 593.5,-294 599.5,-288 605.5,-288 605.5,-288 710.75,-288 710.75,-288 716.75,-288 722.75,-294 722.75,-300 722.75,-300 722.75,-312 722.75,-312 722.75,-318 716.75,-324 710.75,-324"/>
<text text-anchor="middle" x="658.12" y="-307.75" font-family="sans" font-size="10.00">gwascatalog_wget</text>
<text text-anchor="middle" x="658.12" y="-296.5" font-family="sans" font-size="10.00">sumstat_id: GCST004772</text>
</g>
<!-- 4&#45;&gt;3 -->
<g id="edge13" class="edge">
<title>4&#45;&gt;3</title>
<path fill="none" stroke="grey" stroke-width="2" d="M658.12,-287.34C658.12,-280.75 658.12,-273.08 658.12,-265.67"/>
<polygon fill="grey" stroke="grey" stroke-width="2" points="661.63,-265.93 658.13,-255.93 654.63,-265.93 661.63,-265.93"/>
</g>
<!-- 4&#45;&gt;13 -->
<g id="edge26" class="edge">
<title>4&#45;&gt;13</title>
<path fill="none" stroke="grey" stroke-width="2" d="M625.96,-287.02C580.63,-261.68 497.86,-215.4 447.24,-187.11"/>
<polygon fill="grey" stroke="grey" stroke-width="2" points="449.11,-184.14 438.68,-182.32 445.7,-190.25 449.11,-184.14"/>
</g>
<!-- 15 -->
<g id="node16" class="node">
<title>15</title>
<path fill="none" stroke="#d88d56" stroke-width="2" d="M872.25,-252C872.25,-252 764,-252 764,-252 758,-252 752,-246 752,-240 752,-240 752,-228 752,-228 752,-222 758,-216 764,-216 764,-216 872.25,-216 872.25,-216 878.25,-216 884.25,-222 884.25,-228 884.25,-228 884.25,-240 884.25,-240 884.25,-246 878.25,-252 872.25,-252"/>
<text text-anchor="middle" x="818.12" y="-230.12" font-family="sans" font-size="10.00">create_snp_mapping_table</text>
</g>
<!-- 4&#45;&gt;15 -->
<g id="edge29" class="edge">
<title>4&#45;&gt;15</title>
<path fill="none" stroke="grey" stroke-width="2" d="M698.91,-287.15C719.15,-278.3 743.83,-267.51 765.47,-258.04"/>
<polygon fill="grey" stroke="grey" stroke-width="2" points="766.6,-261.36 774.36,-254.15 763.8,-254.95 766.6,-261.36"/>
</g>
<!-- 5&#45;&gt;0 -->
<g id="edge3" class="edge">
<title>5&#45;&gt;0</title>
<path fill="none" stroke="grey" stroke-width="2" d="M216.15,-143.33C211.75,-123.52 208.33,-91.63 225.12,-72 253.25,-39.13 379.69,-26 445.7,-21.31"/>
<polygon fill="grey" stroke="grey" stroke-width="2" points="445.67,-24.82 455.42,-20.66 445.2,-17.83 445.67,-24.82"/>
</g>
<!-- 6&#45;&gt;0 -->
<g id="edge4" class="edge">
<title>6&#45;&gt;0</title>
<path fill="none" stroke="grey" stroke-width="2" d="M701.62,-76.46C697.1,-74.9 692.52,-73.37 688.12,-72 632.68,-54.74 567.54,-38.33 526.54,-28.46"/>
<polygon fill="grey" stroke="grey" stroke-width="2" points="527.61,-25.12 517.07,-26.2 525.98,-31.93 527.61,-25.12"/>
</g>
<!-- 7 -->
<g id="node8" class="node">
<title>7</title>
<path fill="none" stroke="#56d8c1" stroke-width="2" d="M536.12,-108C536.12,-108 436.12,-108 436.12,-108 430.12,-108 424.12,-102 424.12,-96 424.12,-96 424.12,-84 424.12,-84 424.12,-78 430.12,-72 436.12,-72 436.12,-72 536.12,-72 536.12,-72 542.12,-72 548.12,-78 548.12,-84 548.12,-84 548.12,-96 548.12,-96 548.12,-102 542.12,-108 536.12,-108"/>
<text text-anchor="middle" x="486.12" y="-86.12" font-family="sans" font-size="10.00">create_min_pvalue_table</text>
</g>
<!-- 7&#45;&gt;0 -->
<g id="edge5" class="edge">
<title>7&#45;&gt;0</title>
<path fill="none" stroke="grey" stroke-width="2" d="M486.12,-71.34C486.12,-64.75 486.12,-57.08 486.12,-49.67"/>
<polygon fill="grey" stroke="grey" stroke-width="2" points="489.63,-49.93 486.13,-39.93 482.63,-49.93 489.63,-49.93"/>
</g>
<!-- 8&#45;&gt;0 -->
<g id="edge10" class="edge">
<title>8&#45;&gt;0</title>
<path fill="none" stroke="grey" stroke-width="2" d="M459.48,-144.33C442.21,-136.25 425.1,-124.58 415.12,-108 406.88,-94.29 407.95,-86.3 415.12,-72 422.11,-58.07 434.69,-46.86 447.34,-38.41"/>
<polygon fill="grey" stroke="grey" stroke-width="2" points="449.04,-41.47 455.75,-33.26 445.39,-35.49 449.04,-41.47"/>
</g>
<!-- 8&#45;&gt;7 -->
<g id="edge16" class="edge">
<title>8&#45;&gt;7</title>
<path fill="none" stroke="grey" stroke-width="2" d="M507.81,-143.34C504.98,-136.51 501.66,-128.5 498.48,-120.83"/>
<polygon fill="grey" stroke="grey" stroke-width="2" points="501.76,-119.6 494.7,-111.7 495.29,-122.28 501.76,-119.6"/>
</g>
<!-- 10 -->
<g id="node11" class="node">
<title>10</title>
<path fill="none" stroke="#59d856" stroke-width="2" d="M634,-108C634,-108 578.25,-108 578.25,-108 572.25,-108 566.25,-102 566.25,-96 566.25,-96 566.25,-84 566.25,-84 566.25,-78 572.25,-72 578.25,-72 578.25,-72 634,-72 634,-72 640,-72 646,-78 646,-84 646,-84 646,-96 646,-96 646,-102 640,-108 634,-108"/>
<text text-anchor="middle" x="606.12" y="-86.12" font-family="sans" font-size="10.00">create_if_table</text>
</g>
<!-- 8&#45;&gt;10 -->
<g id="edge20" class="edge">
<title>8&#45;&gt;10</title>
<path fill="none" stroke="grey" stroke-width="2" d="M538.09,-143.34C548.57,-135.27 561.18,-125.57 572.69,-116.72"/>
<polygon fill="grey" stroke="grey" stroke-width="2" points="574.66,-119.62 580.45,-110.75 570.39,-114.07 574.66,-119.62"/>
</g>
<!-- 9&#45;&gt;0 -->
<g id="edge11" class="edge">
<title>9&#45;&gt;0</title>
<path fill="none" stroke="grey" stroke-width="2" d="M652.37,-143.12C660.97,-123.71 670.35,-92.73 655.12,-72 625.92,-32.23 566.92,-21.49 526.96,-19.02"/>
<polygon fill="grey" stroke="grey" stroke-width="2" points="527.12,-15.52 516.98,-18.59 526.82,-22.52 527.12,-15.52"/>
</g>
<!-- 9&#45;&gt;7 -->
<g id="edge17" class="edge">
<title>9&#45;&gt;7</title>
<path fill="none" stroke="grey" stroke-width="2" d="M603.1,-143.15C583.34,-134.34 559.26,-123.61 538.09,-114.17"/>
<polygon fill="grey" stroke="grey" stroke-width="2" points="539.67,-111.04 529.11,-110.17 536.82,-117.44 539.67,-111.04"/>
</g>
<!-- 9&#45;&gt;10 -->
<g id="edge21" class="edge">
<title>9&#45;&gt;10</title>
<path fill="none" stroke="grey" stroke-width="2" d="M633.79,-143.34C630.09,-136.34 625.74,-128.12 621.6,-120.28"/>
<polygon fill="grey" stroke="grey" stroke-width="2" points="624.77,-118.78 617,-111.58 618.58,-122.05 624.77,-118.78"/>
</g>
<!-- 10&#45;&gt;0 -->
<g id="edge6" class="edge">
<title>10&#45;&gt;0</title>
<path fill="none" stroke="grey" stroke-width="2" d="M575.53,-71.15C560.07,-62.14 541.16,-51.1 524.71,-41.51"/>
<polygon fill="grey" stroke="grey" stroke-width="2" points="526.8,-38.68 516.4,-36.66 523.28,-44.72 526.8,-38.68"/>
</g>
<!-- 11 -->
<g id="node12" class="node">
<title>11</title>
<path fill="none" stroke="#568ad8" stroke-width="2" d="M356.38,-108C356.38,-108 245.88,-108 245.88,-108 239.88,-108 233.88,-102 233.88,-96 233.88,-96 233.88,-84 233.88,-84 233.88,-78 239.88,-72 245.88,-72 245.88,-72 356.38,-72 356.38,-72 362.38,-72 368.38,-78 368.38,-84 368.38,-84 368.38,-96 368.38,-96 368.38,-102 362.38,-108 356.38,-108"/>
<text text-anchor="middle" x="301.12" y="-86.12" font-family="sans" font-size="10.00">create_quality_check_table</text>
</g>
<!-- 11&#45;&gt;0 -->
<g id="edge7" class="edge">
<title>11&#45;&gt;0</title>
<path fill="none" stroke="grey" stroke-width="2" d="M348.29,-71.15C378.59,-59.69 417.53,-44.96 446.28,-34.08"/>
<polygon fill="grey" stroke="grey" stroke-width="2" points="447.37,-37.41 455.49,-30.59 444.9,-30.86 447.37,-37.41"/>
</g>
<!-- 12&#45;&gt;11 -->
<g id="edge22" class="edge">
<title>12&#45;&gt;11</title>
<path fill="none" stroke="grey" stroke-width="2" d="M307.85,-143.34C307.01,-136.75 306.02,-129.08 305.07,-121.67"/>
<polygon fill="grey" stroke="grey" stroke-width="2" points="308.56,-121.38 303.81,-111.9 301.62,-122.27 308.56,-121.38"/>
</g>
<!-- 13&#45;&gt;11 -->
<g id="edge23" class="edge">
<title>13&#45;&gt;11</title>
<path fill="none" stroke="grey" stroke-width="2" d="M377.87,-143.15C365.76,-134.93 351.18,-125.02 338,-116.06"/>
<polygon fill="grey" stroke="grey" stroke-width="2" points="340.08,-113.24 329.84,-110.51 336.14,-119.03 340.08,-113.24"/>
</g>
<!-- 14&#45;&gt;0 -->
<g id="edge8" class="edge">
<title>14&#45;&gt;0</title>
<path fill="none" stroke="grey" stroke-width="2" d="M132.86,-74.53C137.34,-73.65 141.8,-72.8 146.12,-72 253.91,-52.16 381.81,-33.54 445.65,-24.58"/>
<polygon fill="grey" stroke="grey" stroke-width="2" points="445.85,-28.08 455.27,-23.23 444.89,-21.15 445.85,-28.08"/>
</g>
<!-- 15&#45;&gt;0 -->
<g id="edge9" class="edge">
<title>15&#45;&gt;0</title>
<path fill="none" stroke="grey" stroke-width="2" d="M821.88,-215.16C827.69,-182.07 834.64,-111.01 797.12,-72 760.5,-33.92 602.46,-23.13 526.8,-20.13"/>
<polygon fill="grey" stroke="grey" stroke-width="2" points="527.25,-16.65 517.13,-19.78 527,-23.64 527.25,-16.65"/>
</g>
</g>
</svg>
