<?xml version="1.0" encoding="UTF-8" standalone="no"?>
<!DOCTYPE svg PUBLIC "-//W3C//DTD SVG 1.1//EN"
 "http://www.w3.org/Graphics/SVG/1.1/DTD/svg11.dtd">
<!-- Generated by graphviz version 12.2.1 (20241206.2353)
 -->
<!-- Title: snakemake_dag Pages: 1 -->
<svg width="812pt" height="332pt"
 viewBox="0.00 0.00 812.11 332.00" xmlns="http://www.w3.org/2000/svg" xmlns:xlink="http://www.w3.org/1999/xlink">
<g id="graph0" class="graph" transform="scale(1 1) rotate(0) translate(4 328)">
<title>snakemake_dag</title>
<polygon fill="white" stroke="none" points="-4,4 -4,-328 808.11,-328 808.11,4 -4,4"/>
<!-- 0 -->
<g id="node1" class="node">
<title>0</title>
<path fill="none" stroke="#d85656" stroke-width="2" d="M399.38,-36C399.38,-36 369.38,-36 369.38,-36 363.38,-36 357.38,-30 357.38,-24 357.38,-24 357.38,-12 357.38,-12 357.38,-6 363.38,0 369.38,0 369.38,0 399.38,0 399.38,0 405.38,0 411.38,-6 411.38,-12 411.38,-12 411.38,-24 411.38,-24 411.38,-30 405.38,-36 399.38,-36"/>
<text text-anchor="middle" x="384.38" y="-14.12" font-family="sans" font-size="10.00">all</text>
</g>
<!-- 1 -->
<g id="node2" class="node">
<title>1</title>
<path fill="none" stroke="#88d856" stroke-width="2" d="M94.75,-324C94.75,-324 12,-324 12,-324 6,-324 0,-318 0,-312 0,-312 0,-300 0,-300 0,-294 6,-288 12,-288 12,-288 94.75,-288 94.75,-288 100.75,-288 106.75,-294 106.75,-300 106.75,-300 106.75,-312 106.75,-312 106.75,-318 100.75,-324 94.75,-324"/>
<text text-anchor="middle" x="53.38" y="-307.75" font-family="sans" font-size="10.00">harmonize_sumstats</text>
<text text-anchor="middle" x="53.38" y="-296.5" font-family="sans" font-size="10.00">seqid: seq.3007.7</text>
</g>
<!-- 1&#45;&gt;0 -->
<g id="edge1" class="edge">
<title>1&#45;&gt;0</title>
<path fill="none" stroke="grey" stroke-width="2" d="M43.94,-287.32C21.57,-242.76 -28.25,-125.57 35.38,-72 81.34,-33.29 261.7,-22.79 343.57,-19.99"/>
<polygon fill="grey" stroke="grey" stroke-width="2" points="343.6,-23.49 353.49,-19.68 343.38,-16.49 343.6,-23.49"/>
</g>
<!-- 3 -->
<g id="node4" class="node">
<title>3</title>
<path fill="none" stroke="#59d856" stroke-width="2" d="M195.25,-252C195.25,-252 109.5,-252 109.5,-252 103.5,-252 97.5,-246 97.5,-240 97.5,-240 97.5,-228 97.5,-228 97.5,-222 103.5,-216 109.5,-216 109.5,-216 195.25,-216 195.25,-216 201.25,-216 207.25,-222 207.25,-228 207.25,-228 207.25,-240 207.25,-240 207.25,-246 201.25,-252 195.25,-252"/>
<text text-anchor="middle" x="152.38" y="-230.12" font-family="sans" font-size="10.00">summarize_sumstats</text>
</g>
<!-- 1&#45;&gt;3 -->
<g id="edge15" class="edge">
<title>1&#45;&gt;3</title>
<path fill="none" stroke="grey" stroke-width="2" d="M78.61,-287.15C90.13,-279.01 103.98,-269.22 116.55,-260.33"/>
<polygon fill="grey" stroke="grey" stroke-width="2" points="118.57,-263.19 124.71,-254.56 114.53,-257.48 118.57,-263.19"/>
</g>
<!-- 12 -->
<g id="node13" class="node">
<title>12</title>
<path fill="none" stroke="#d8bc56" stroke-width="2" d="M74.12,-180C74.12,-180 32.62,-180 32.62,-180 26.63,-180 20.62,-174 20.62,-168 20.62,-168 20.62,-156 20.62,-156 20.62,-150 26.62,-144 32.62,-144 32.62,-144 74.12,-144 74.12,-144 80.12,-144 86.12,-150 86.12,-156 86.12,-156 86.12,-168 86.12,-168 86.12,-174 80.12,-180 74.12,-180"/>
<text text-anchor="middle" x="53.38" y="-158.12" font-family="sans" font-size="10.00">bgzip_tabix</text>
</g>
<!-- 1&#45;&gt;12 -->
<g id="edge27" class="edge">
<title>1&#45;&gt;12</title>
<path fill="none" stroke="grey" stroke-width="2" d="M53.38,-287.02C53.38,-263.54 53.38,-222.11 53.38,-193.64"/>
<polygon fill="grey" stroke="grey" stroke-width="2" points="56.88,-193.87 53.38,-183.87 49.88,-193.87 56.88,-193.87"/>
</g>
<!-- 2 -->
<g id="node3" class="node">
<title>2</title>
<path fill="none" stroke="#88d856" stroke-width="2" d="M697.75,-324C697.75,-324 615,-324 615,-324 609,-324 603,-318 603,-312 603,-312 603,-300 603,-300 603,-294 609,-288 615,-288 615,-288 697.75,-288 697.75,-288 703.75,-288 709.75,-294 709.75,-300 709.75,-300 709.75,-312 709.75,-312 709.75,-318 703.75,-324 697.75,-324"/>
<text text-anchor="middle" x="656.38" y="-307.75" font-family="sans" font-size="10.00">harmonize_sumstats</text>
<text text-anchor="middle" x="656.38" y="-296.5" font-family="sans" font-size="10.00">seqid: seq.9267.2</text>
</g>
<!-- 2&#45;&gt;0 -->
<g id="edge2" class="edge">
<title>2&#45;&gt;0</title>
<path fill="none" stroke="grey" stroke-width="2" d="M658.81,-287.24C663.65,-244.01 669.5,-132.42 611.38,-72 585.99,-45.62 483.12,-30.06 424.96,-23.2"/>
<polygon fill="grey" stroke="grey" stroke-width="2" points="425.58,-19.74 415.25,-22.09 424.79,-26.7 425.58,-19.74"/>
</g>
<!-- 4 -->
<g id="node5" class="node">
<title>4</title>
<path fill="none" stroke="#59d856" stroke-width="2" d="M616.25,-252C616.25,-252 530.5,-252 530.5,-252 524.5,-252 518.5,-246 518.5,-240 518.5,-240 518.5,-228 518.5,-228 518.5,-222 524.5,-216 530.5,-216 530.5,-216 616.25,-216 616.25,-216 622.25,-216 628.25,-222 628.25,-228 628.25,-228 628.25,-240 628.25,-240 628.25,-246 622.25,-252 616.25,-252"/>
<text text-anchor="middle" x="573.38" y="-230.12" font-family="sans" font-size="10.00">summarize_sumstats</text>
</g>
<!-- 2&#45;&gt;4 -->
<g id="edge16" class="edge">
<title>2&#45;&gt;4</title>
<path fill="none" stroke="grey" stroke-width="2" d="M635.43,-287.34C626.07,-279.44 614.83,-269.96 604.51,-261.26"/>
<polygon fill="grey" stroke="grey" stroke-width="2" points="606.82,-258.62 596.92,-254.85 602.3,-263.98 606.82,-258.62"/>
</g>
<!-- 14 -->
<g id="node15" class="node">
<title>14</title>
<path fill="none" stroke="#d8bc56" stroke-width="2" d="M757.12,-180C757.12,-180 715.62,-180 715.62,-180 709.62,-180 703.62,-174 703.62,-168 703.62,-168 703.62,-156 703.62,-156 703.62,-150 709.62,-144 715.62,-144 715.62,-144 757.12,-144 757.12,-144 763.12,-144 769.12,-150 769.12,-156 769.12,-156 769.12,-168 769.12,-168 769.12,-174 763.12,-180 757.12,-180"/>
<text text-anchor="middle" x="736.38" y="-158.12" font-family="sans" font-size="10.00">bgzip_tabix</text>
</g>
<!-- 2&#45;&gt;14 -->
<g id="edge29" class="edge">
<title>2&#45;&gt;14</title>
<path fill="none" stroke="grey" stroke-width="2" d="M666.51,-287.02C679.97,-263.12 703.93,-220.59 719.98,-192.1"/>
<polygon fill="grey" stroke="grey" stroke-width="2" points="722.98,-193.91 724.84,-183.48 716.88,-190.47 722.98,-193.91"/>
</g>
<!-- 3&#45;&gt;0 -->
<g id="edge3" class="edge">
<title>3&#45;&gt;0</title>
<path fill="none" stroke="grey" stroke-width="2" d="M151.63,-215.27C151.74,-195.72 154.81,-164.33 171.38,-144 196.52,-113.14 220.07,-129.8 253.38,-108 273.11,-95.08 273.37,-85.97 292.38,-72 308.91,-59.84 328.45,-48.24 345.27,-39"/>
<polygon fill="grey" stroke="grey" stroke-width="2" points="346.59,-42.27 353.74,-34.45 343.28,-36.1 346.59,-42.27"/>
</g>
<!-- 5 -->
<g id="node6" class="node">
<title>5</title>
<path fill="none" stroke="#bed856" stroke-width="2" d="M292.38,-180C292.38,-180 192.38,-180 192.38,-180 186.38,-180 180.38,-174 180.38,-168 180.38,-168 180.38,-156 180.38,-156 180.38,-150 186.38,-144 192.38,-144 192.38,-144 292.38,-144 292.38,-144 298.38,-144 304.38,-150 304.38,-156 304.38,-156 304.38,-168 304.38,-168 304.38,-174 298.38,-180 292.38,-180"/>
<text text-anchor="middle" x="242.38" y="-158.12" font-family="sans" font-size="10.00">create_min_pvalue_table</text>
</g>
<!-- 3&#45;&gt;5 -->
<g id="edge17" class="edge">
<title>3&#45;&gt;5</title>
<path fill="none" stroke="grey" stroke-width="2" d="M175.09,-215.34C185.45,-207.27 197.93,-197.57 209.31,-188.72"/>
<polygon fill="grey" stroke="grey" stroke-width="2" points="211.22,-191.66 216.97,-182.76 206.93,-186.14 211.22,-191.66"/>
</g>
<!-- 6 -->
<g id="node7" class="node">
<title>6</title>
<path fill="none" stroke="#d88d56" stroke-width="2" d="M390.25,-180C390.25,-180 334.5,-180 334.5,-180 328.5,-180 322.5,-174 322.5,-168 322.5,-168 322.5,-156 322.5,-156 322.5,-150 328.5,-144 334.5,-144 334.5,-144 390.25,-144 390.25,-144 396.25,-144 402.25,-150 402.25,-156 402.25,-156 402.25,-168 402.25,-168 402.25,-174 396.25,-180 390.25,-180"/>
<text text-anchor="middle" x="362.38" y="-158.12" font-family="sans" font-size="10.00">create_if_table</text>
</g>
<!-- 3&#45;&gt;6 -->
<g id="edge19" class="edge">
<title>3&#45;&gt;6</title>
<path fill="none" stroke="grey" stroke-width="2" d="M207.59,-215.06C235.78,-205.85 270.91,-194.29 309.62,-181.25"/>
<polygon fill="grey" stroke="grey" stroke-width="2" points="310.53,-184.63 318.88,-178.12 308.29,-178 310.53,-184.63"/>
</g>
<!-- 9 -->
<g id="node10" class="node">
<title>9</title>
<path fill="none" stroke="#56d8c1" stroke-width="2" d="M232,-108C232,-108 192.75,-108 192.75,-108 186.75,-108 180.75,-102 180.75,-96 180.75,-96 180.75,-84 180.75,-84 180.75,-78 186.75,-72 192.75,-72 192.75,-72 232,-72 232,-72 238,-72 244,-78 244,-84 244,-84 244,-96 244,-96 244,-102 238,-108 232,-108"/>
<text text-anchor="middle" x="212.38" y="-86.12" font-family="sans" font-size="10.00">sync_plots</text>
</g>
<!-- 3&#45;&gt;9 -->
<g id="edge24" class="edge">
<title>3&#45;&gt;9</title>
<path fill="none" stroke="grey" stroke-width="2" d="M143.56,-215.28C135.59,-196.56 126.72,-166.68 138.38,-144 145.19,-130.74 157.03,-120.05 169.27,-111.84"/>
<polygon fill="grey" stroke="grey" stroke-width="2" points="170.73,-115.05 177.44,-106.85 167.08,-109.08 170.73,-115.05"/>
</g>
<!-- 4&#45;&gt;0 -->
<g id="edge4" class="edge">
<title>4&#45;&gt;0</title>
<path fill="none" stroke="grey" stroke-width="2" d="M582.59,-215.08C597.75,-182.81 623.18,-114.32 590.38,-72 570.3,-46.1 479.07,-30.64 424.98,-23.59"/>
<polygon fill="grey" stroke="grey" stroke-width="2" points="425.45,-20.12 415.09,-22.36 424.58,-27.07 425.45,-20.12"/>
</g>
<!-- 4&#45;&gt;5 -->
<g id="edge18" class="edge">
<title>4&#45;&gt;5</title>
<path fill="none" stroke="grey" stroke-width="2" d="M517.72,-222.22C467.78,-212.42 392.15,-197.27 317.52,-180.88"/>
<polygon fill="grey" stroke="grey" stroke-width="2" points="318.54,-177.52 308.02,-178.79 317.03,-184.36 318.54,-177.52"/>
</g>
<!-- 4&#45;&gt;6 -->
<g id="edge20" class="edge">
<title>4&#45;&gt;6</title>
<path fill="none" stroke="grey" stroke-width="2" d="M517.81,-215.09C489.44,-205.89 454.1,-194.33 415.18,-181.26"/>
<polygon fill="grey" stroke="grey" stroke-width="2" points="416.46,-178 405.87,-178.12 414.23,-184.63 416.46,-178"/>
</g>
<!-- 10 -->
<g id="node11" class="node">
<title>10</title>
<path fill="none" stroke="#56d8c1" stroke-width="2" d="M569,-108C569,-108 529.75,-108 529.75,-108 523.75,-108 517.75,-102 517.75,-96 517.75,-96 517.75,-84 517.75,-84 517.75,-78 523.75,-72 529.75,-72 529.75,-72 569,-72 569,-72 575,-72 581,-78 581,-84 581,-84 581,-96 581,-96 581,-102 575,-108 569,-108"/>
<text text-anchor="middle" x="549.38" y="-86.12" font-family="sans" font-size="10.00">sync_plots</text>
</g>
<!-- 4&#45;&gt;10 -->
<g id="edge25" class="edge">
<title>4&#45;&gt;10</title>
<path fill="none" stroke="grey" stroke-width="2" d="M571.45,-215.2C569.38,-197.18 565.8,-168.55 561.38,-144 560.04,-136.57 558.36,-128.61 556.69,-121.18"/>
<polygon fill="grey" stroke="grey" stroke-width="2" points="560.13,-120.48 554.45,-111.54 553.31,-122.07 560.13,-120.48"/>
</g>
<!-- 5&#45;&gt;0 -->
<g id="edge5" class="edge">
<title>5&#45;&gt;0</title>
<path fill="none" stroke="grey" stroke-width="2" d="M260.36,-143.02C284.9,-118.48 329.07,-74.3 357.54,-45.84"/>
<polygon fill="grey" stroke="grey" stroke-width="2" points="359.8,-48.52 364.4,-38.98 354.85,-43.58 359.8,-48.52"/>
</g>
<!-- 8 -->
<g id="node9" class="node">
<title>8</title>
<path fill="none" stroke="#568ad8" stroke-width="2" d="M437.62,-108C437.62,-108 393.12,-108 393.12,-108 387.12,-108 381.12,-102 381.12,-96 381.12,-96 381.12,-84 381.12,-84 381.12,-78 387.12,-72 393.12,-72 393.12,-72 437.62,-72 437.62,-72 443.62,-72 449.62,-78 449.62,-84 449.62,-84 449.62,-96 449.62,-96 449.62,-102 443.62,-108 437.62,-108"/>
<text text-anchor="middle" x="415.38" y="-86.12" font-family="sans" font-size="10.00">sync_tables</text>
</g>
<!-- 5&#45;&gt;8 -->
<g id="edge21" class="edge">
<title>5&#45;&gt;8</title>
<path fill="none" stroke="grey" stroke-width="2" d="M286.48,-143.15C311.51,-133.03 342.84,-120.35 368.35,-110.03"/>
<polygon fill="grey" stroke="grey" stroke-width="2" points="369.58,-113.31 377.54,-106.31 366.96,-106.82 369.58,-113.31"/>
</g>
<!-- 6&#45;&gt;0 -->
<g id="edge6" class="edge">
<title>6&#45;&gt;0</title>
<path fill="none" stroke="grey" stroke-width="2" d="M363.79,-143.19C365.36,-125.16 368.23,-96.53 372.38,-72 373.63,-64.56 375.27,-56.59 376.94,-49.15"/>
<polygon fill="grey" stroke="grey" stroke-width="2" points="380.32,-50.05 379.19,-39.52 373.51,-48.46 380.32,-50.05"/>
</g>
<!-- 6&#45;&gt;8 -->
<g id="edge22" class="edge">
<title>6&#45;&gt;8</title>
<path fill="none" stroke="grey" stroke-width="2" d="M375.75,-143.34C381.29,-136.01 387.86,-127.34 394.04,-119.18"/>
<polygon fill="grey" stroke="grey" stroke-width="2" points="396.75,-121.4 399.99,-111.32 391.17,-117.18 396.75,-121.4"/>
</g>
<!-- 7 -->
<g id="node8" class="node">
<title>7</title>
<path fill="none" stroke="#56d88a" stroke-width="2" d="M540.5,-180C540.5,-180 432.25,-180 432.25,-180 426.25,-180 420.25,-174 420.25,-168 420.25,-168 420.25,-156 420.25,-156 420.25,-150 426.25,-144 432.25,-144 432.25,-144 540.5,-144 540.5,-144 546.5,-144 552.5,-150 552.5,-156 552.5,-156 552.5,-168 552.5,-168 552.5,-174 546.5,-180 540.5,-180"/>
<text text-anchor="middle" x="486.38" y="-158.12" font-family="sans" font-size="10.00">create_snp_mapping_table</text>
</g>
<!-- 7&#45;&gt;0 -->
<g id="edge7" class="edge">
<title>7&#45;&gt;0</title>
<path fill="none" stroke="grey" stroke-width="2" d="M484.16,-143.11C481.07,-123.99 473.96,-93.51 458.38,-72 449.12,-59.23 435.84,-48.37 423.08,-39.86"/>
<polygon fill="grey" stroke="grey" stroke-width="2" points="425.01,-36.94 414.68,-34.61 421.3,-42.88 425.01,-36.94"/>
</g>
<!-- 7&#45;&gt;8 -->
<g id="edge23" class="edge">
<title>7&#45;&gt;8</title>
<path fill="none" stroke="grey" stroke-width="2" d="M468.46,-143.34C460.61,-135.6 451.24,-126.36 442.56,-117.81"/>
<polygon fill="grey" stroke="grey" stroke-width="2" points="445.27,-115.56 435.69,-111.03 440.35,-120.54 445.27,-115.56"/>
</g>
<!-- 8&#45;&gt;0 -->
<g id="edge8" class="edge">
<title>8&#45;&gt;0</title>
<path fill="none" stroke="grey" stroke-width="2" d="M407.55,-71.34C404.49,-64.43 400.9,-56.31 397.46,-48.56"/>
<polygon fill="grey" stroke="grey" stroke-width="2" points="400.78,-47.4 393.53,-39.67 394.38,-50.23 400.78,-47.4"/>
</g>
<!-- 9&#45;&gt;0 -->
<g id="edge9" class="edge">
<title>9&#45;&gt;0</title>
<path fill="none" stroke="grey" stroke-width="2" d="M244.73,-75.83C273.04,-64.31 314.26,-47.53 344.58,-35.19"/>
<polygon fill="grey" stroke="grey" stroke-width="2" points="345.69,-38.52 353.63,-31.51 343.05,-32.04 345.69,-38.52"/>
</g>
<!-- 10&#45;&gt;0 -->
<g id="edge10" class="edge">
<title>10&#45;&gt;0</title>
<path fill="none" stroke="grey" stroke-width="2" d="M516.78,-75.17C490.19,-63.89 452.52,-47.91 424.16,-35.88"/>
<polygon fill="grey" stroke="grey" stroke-width="2" points="425.6,-32.69 415.03,-32.01 422.87,-39.13 425.6,-32.69"/>
</g>
<!-- 11 -->
<g id="node12" class="node">
<title>11</title>
<path fill="none" stroke="#56c1d8" stroke-width="2" d="M150.25,-108C150.25,-108 70.5,-108 70.5,-108 64.5,-108 58.5,-102 58.5,-96 58.5,-96 58.5,-84 58.5,-84 58.5,-78 64.5,-72 70.5,-72 70.5,-72 150.25,-72 150.25,-72 156.25,-72 162.25,-78 162.25,-84 162.25,-84 162.25,-96 162.25,-96 162.25,-102 156.25,-108 150.25,-108"/>
<text text-anchor="middle" x="110.38" y="-86.12" font-family="sans" font-size="10.00">sync_outputs_folder</text>
</g>
<!-- 11&#45;&gt;0 -->
<g id="edge11" class="edge">
<title>11&#45;&gt;0</title>
<path fill="none" stroke="grey" stroke-width="2" d="M162.92,-74.26C165.78,-73.49 168.61,-72.73 171.38,-72 231.31,-56.19 301.08,-39.07 343.99,-28.69"/>
<polygon fill="grey" stroke="grey" stroke-width="2" points="344.56,-32.16 353.46,-26.41 342.92,-25.35 344.56,-32.16"/>
</g>
<!-- 12&#45;&gt;0 -->
<g id="edge13" class="edge">
<title>12&#45;&gt;0</title>
<path fill="none" stroke="grey" stroke-width="2" d="M46.18,-143.33C39.41,-123.53 32.6,-91.64 49.38,-72 86.87,-28.1 263.47,-20.36 344.07,-19.14"/>
<polygon fill="grey" stroke="grey" stroke-width="2" points="343.62,-22.64 353.58,-19.02 343.54,-15.64 343.62,-22.64"/>
</g>
<!-- 12&#45;&gt;11 -->
<g id="edge26" class="edge">
<title>12&#45;&gt;11</title>
<path fill="none" stroke="grey" stroke-width="2" d="M67.76,-143.34C73.79,-135.93 80.94,-127.14 87.65,-118.9"/>
<polygon fill="grey" stroke="grey" stroke-width="2" points="90.29,-121.21 93.89,-111.25 84.86,-116.79 90.29,-121.21"/>
</g>
<!-- 13 -->
<g id="node14" class="node">
<title>13</title>
<path fill="none" stroke="#56c1d8" stroke-width="2" d="M776.25,-108C776.25,-108 696.5,-108 696.5,-108 690.5,-108 684.5,-102 684.5,-96 684.5,-96 684.5,-84 684.5,-84 684.5,-78 690.5,-72 696.5,-72 696.5,-72 776.25,-72 776.25,-72 782.25,-72 788.25,-78 788.25,-84 788.25,-84 788.25,-96 788.25,-96 788.25,-102 782.25,-108 776.25,-108"/>
<text text-anchor="middle" x="736.38" y="-86.12" font-family="sans" font-size="10.00">sync_outputs_folder</text>
</g>
<!-- 13&#45;&gt;0 -->
<g id="edge12" class="edge">
<title>13&#45;&gt;0</title>
<path fill="none" stroke="grey" stroke-width="2" d="M683.86,-75.12C679.31,-74.03 674.77,-72.97 670.38,-72 583.37,-52.76 480.43,-34.86 424.86,-25.6"/>
<polygon fill="grey" stroke="grey" stroke-width="2" points="425.54,-22.16 415.1,-23.98 424.39,-29.07 425.54,-22.16"/>
</g>
<!-- 14&#45;&gt;0 -->
<g id="edge14" class="edge">
<title>14&#45;&gt;0</title>
<path fill="none" stroke="grey" stroke-width="2" d="M763.12,-143.03C787.67,-124.37 817.42,-94.78 797.38,-72 772.98,-44.27 524.36,-27.04 425.04,-21.22"/>
<polygon fill="grey" stroke="grey" stroke-width="2" points="425.53,-17.74 415.35,-20.66 425.13,-24.73 425.53,-17.74"/>
</g>
<!-- 14&#45;&gt;13 -->
<g id="edge28" class="edge">
<title>14&#45;&gt;13</title>
<path fill="none" stroke="grey" stroke-width="2" d="M736.38,-143.34C736.38,-136.75 736.38,-129.08 736.38,-121.67"/>
<polygon fill="grey" stroke="grey" stroke-width="2" points="739.88,-121.93 736.38,-111.93 732.88,-121.93 739.88,-121.93"/>
</g>
</g>
</svg>
