<?xml version="1.0" encoding="UTF-8" standalone="no"?>
<!DOCTYPE svg PUBLIC "-//W3C//DTD SVG 1.1//EN"
 "http://www.w3.org/Graphics/SVG/1.1/DTD/svg11.dtd">
<!-- Generated by graphviz version 12.2.1 (20241206.2353)
 -->
<!-- Title: snakemake_dag Pages: 1 -->
<svg width="1048pt" height="332pt"
 viewBox="0.00 0.00 1047.76 332.00" xmlns="http://www.w3.org/2000/svg" xmlns:xlink="http://www.w3.org/1999/xlink">
<g id="graph0" class="graph" transform="scale(1 1) rotate(0) translate(4 328)">
<title>snakemake_dag</title>
<polygon fill="white" stroke="none" points="-4,4 -4,-328 1043.76,-328 1043.76,4 -4,4"/>
<!-- 0 -->
<g id="node1" class="node">
<title>0</title>
<path fill="none" stroke="#d88556" stroke-width="2" d="M524.88,-36C524.88,-36 494.88,-36 494.88,-36 488.88,-36 482.88,-30 482.88,-24 482.88,-24 482.88,-12 482.88,-12 482.88,-6 488.88,0 494.88,0 494.88,0 524.88,0 524.88,0 530.88,0 536.88,-6 536.88,-12 536.88,-12 536.88,-24 536.88,-24 536.88,-30 530.88,-36 524.88,-36"/>
<text text-anchor="middle" x="509.88" y="-14.12" font-family="sans" font-size="10.00">all</text>
</g>
<!-- 1 -->
<g id="node2" class="node">
<title>1</title>
<path fill="none" stroke="#80d856" stroke-width="2" d="M258.88,-324C258.88,-324 164.88,-324 164.88,-324 158.88,-324 152.88,-318 152.88,-312 152.88,-312 152.88,-300 152.88,-300 152.88,-294 158.88,-288 164.88,-288 164.88,-288 258.88,-288 258.88,-288 264.88,-288 270.88,-294 270.88,-300 270.88,-300 270.88,-312 270.88,-312 270.88,-318 264.88,-324 258.88,-324"/>
<text text-anchor="middle" x="211.88" y="-307.75" font-family="sans" font-size="10.00">harmonize_sumstats</text>
<text text-anchor="middle" x="211.88" y="-296.5" font-family="sans" font-size="10.00">sumstat_id: seq.3007.7</text>
</g>
<!-- 1&#45;&gt;0 -->
<g id="edge1" class="edge">
<title>1&#45;&gt;0</title>
<path fill="none" stroke="grey" stroke-width="2" d="M202.09,-287.45C197.06,-277.41 191.44,-264.37 188.88,-252 175.59,-188.01 226.66,-72.2 226.88,-72 261.54,-39.77 399.78,-26.22 469.39,-21.35"/>
<polygon fill="grey" stroke="grey" stroke-width="2" points="469.58,-24.85 479.33,-20.69 469.12,-17.86 469.58,-24.85"/>
</g>
<!-- 3 -->
<g id="node4" class="node">
<title>3</title>
<path fill="none" stroke="#d6d856" stroke-width="2" d="M129.62,-180C129.62,-180 88.12,-180 88.12,-180 82.12,-180 76.12,-174 76.12,-168 76.12,-168 76.12,-156 76.12,-156 76.12,-150 82.12,-144 88.12,-144 88.12,-144 129.62,-144 129.62,-144 135.62,-144 141.62,-150 141.62,-156 141.62,-156 141.62,-168 141.62,-168 141.62,-174 135.62,-180 129.62,-180"/>
<text text-anchor="middle" x="108.88" y="-158.12" font-family="sans" font-size="10.00">bgzip_tabix</text>
</g>
<!-- 1&#45;&gt;3 -->
<g id="edge16" class="edge">
<title>1&#45;&gt;3</title>
<path fill="none" stroke="grey" stroke-width="2" d="M189.75,-287.09C178.72,-277.45 165.67,-264.9 155.88,-252 141.95,-233.66 129.9,-210.61 121.49,-192.57"/>
<polygon fill="grey" stroke="grey" stroke-width="2" points="124.7,-191.16 117.4,-183.48 118.32,-194.04 124.7,-191.16"/>
</g>
<!-- 6 -->
<g id="node7" class="node">
<title>6</title>
<path fill="none" stroke="#59d856" stroke-width="2" d="M295.75,-252C295.75,-252 210,-252 210,-252 204,-252 198,-246 198,-240 198,-240 198,-228 198,-228 198,-222 204,-216 210,-216 210,-216 295.75,-216 295.75,-216 301.75,-216 307.75,-222 307.75,-228 307.75,-228 307.75,-240 307.75,-240 307.75,-246 301.75,-252 295.75,-252"/>
<text text-anchor="middle" x="252.88" y="-230.12" font-family="sans" font-size="10.00">summarize_sumstats</text>
</g>
<!-- 1&#45;&gt;6 -->
<g id="edge20" class="edge">
<title>1&#45;&gt;6</title>
<path fill="none" stroke="grey" stroke-width="2" d="M222.22,-287.34C226.37,-280.26 231.25,-271.92 235.89,-264"/>
<polygon fill="grey" stroke="grey" stroke-width="2" points="238.83,-265.91 240.86,-255.51 232.79,-262.37 238.83,-265.91"/>
</g>
<!-- 10 -->
<g id="node11" class="node">
<title>10</title>
<path fill="none" stroke="#d85656" stroke-width="2" d="M767.88,-252C767.88,-252 715.88,-252 715.88,-252 709.88,-252 703.88,-246 703.88,-240 703.88,-240 703.88,-228 703.88,-228 703.88,-222 709.88,-216 715.88,-216 715.88,-216 767.88,-216 767.88,-216 773.88,-216 779.88,-222 779.88,-228 779.88,-228 779.88,-240 779.88,-240 779.88,-246 773.88,-252 767.88,-252"/>
<text text-anchor="middle" x="741.88" y="-230.12" font-family="sans" font-size="10.00">quality_check</text>
</g>
<!-- 1&#45;&gt;10 -->
<g id="edge26" class="edge">
<title>1&#45;&gt;10</title>
<path fill="none" stroke="grey" stroke-width="2" d="M271.75,-303C361.37,-299.01 535.62,-287.41 690.56,-252.7"/>
<polygon fill="grey" stroke="grey" stroke-width="2" points="691.19,-256.15 700.16,-250.5 689.63,-249.32 691.19,-256.15"/>
</g>
<!-- 2 -->
<g id="node3" class="node">
<title>2</title>
<path fill="none" stroke="#80d856" stroke-width="2" d="M915.88,-324C915.88,-324 821.88,-324 821.88,-324 815.88,-324 809.88,-318 809.88,-312 809.88,-312 809.88,-300 809.88,-300 809.88,-294 815.88,-288 821.88,-288 821.88,-288 915.88,-288 915.88,-288 921.88,-288 927.88,-294 927.88,-300 927.88,-300 927.88,-312 927.88,-312 927.88,-318 921.88,-324 915.88,-324"/>
<text text-anchor="middle" x="868.88" y="-307.75" font-family="sans" font-size="10.00">harmonize_sumstats</text>
<text text-anchor="middle" x="868.88" y="-296.5" font-family="sans" font-size="10.00">sumstat_id: seq.9267.2</text>
</g>
<!-- 2&#45;&gt;0 -->
<g id="edge2" class="edge">
<title>2&#45;&gt;0</title>
<path fill="none" stroke="grey" stroke-width="2" d="M875.95,-287.11C886.96,-256.32 904.77,-191.99 882.88,-144 862.6,-99.57 843.9,-93.14 799.88,-72 717.44,-32.42 608.81,-22.27 550.7,-19.75"/>
<polygon fill="grey" stroke="grey" stroke-width="2" points="550.89,-16.26 540.77,-19.39 550.63,-23.25 550.89,-16.26"/>
</g>
<!-- 4 -->
<g id="node5" class="node">
<title>4</title>
<path fill="none" stroke="#d6d856" stroke-width="2" d="M992.62,-180C992.62,-180 951.12,-180 951.12,-180 945.12,-180 939.12,-174 939.12,-168 939.12,-168 939.12,-156 939.12,-156 939.12,-150 945.12,-144 951.12,-144 951.12,-144 992.62,-144 992.62,-144 998.62,-144 1004.62,-150 1004.62,-156 1004.62,-156 1004.62,-168 1004.62,-168 1004.62,-174 998.62,-180 992.62,-180"/>
<text text-anchor="middle" x="971.88" y="-158.12" font-family="sans" font-size="10.00">bgzip_tabix</text>
</g>
<!-- 2&#45;&gt;4 -->
<g id="edge17" class="edge">
<title>2&#45;&gt;4</title>
<path fill="none" stroke="grey" stroke-width="2" d="M885.73,-287.47C895.05,-277.43 906.58,-264.4 915.88,-252 930.27,-232.8 944.65,-209.86 955.23,-192.07"/>
<polygon fill="grey" stroke="grey" stroke-width="2" points="958.18,-193.97 960.22,-183.57 952.14,-190.42 958.18,-193.97"/>
</g>
<!-- 7 -->
<g id="node8" class="node">
<title>7</title>
<path fill="none" stroke="#59d856" stroke-width="2" d="M673.75,-252C673.75,-252 588,-252 588,-252 582,-252 576,-246 576,-240 576,-240 576,-228 576,-228 576,-222 582,-216 588,-216 588,-216 673.75,-216 673.75,-216 679.75,-216 685.75,-222 685.75,-228 685.75,-228 685.75,-240 685.75,-240 685.75,-246 679.75,-252 673.75,-252"/>
<text text-anchor="middle" x="630.88" y="-230.12" font-family="sans" font-size="10.00">summarize_sumstats</text>
</g>
<!-- 2&#45;&gt;7 -->
<g id="edge21" class="edge">
<title>2&#45;&gt;7</title>
<path fill="none" stroke="grey" stroke-width="2" d="M809.12,-287.43C775.65,-277.58 733.77,-265.26 699.01,-255.04"/>
<polygon fill="grey" stroke="grey" stroke-width="2" points="700.05,-251.7 689.47,-252.23 698.07,-258.41 700.05,-251.7"/>
</g>
<!-- 11 -->
<g id="node12" class="node">
<title>11</title>
<path fill="none" stroke="#d85656" stroke-width="2" d="M861.88,-252C861.88,-252 809.88,-252 809.88,-252 803.88,-252 797.88,-246 797.88,-240 797.88,-240 797.88,-228 797.88,-228 797.88,-222 803.88,-216 809.88,-216 809.88,-216 861.88,-216 861.88,-216 867.88,-216 873.88,-222 873.88,-228 873.88,-228 873.88,-240 873.88,-240 873.88,-246 867.88,-252 861.88,-252"/>
<text text-anchor="middle" x="835.88" y="-230.12" font-family="sans" font-size="10.00">quality_check</text>
</g>
<!-- 2&#45;&gt;11 -->
<g id="edge27" class="edge">
<title>2&#45;&gt;11</title>
<path fill="none" stroke="grey" stroke-width="2" d="M860.55,-287.34C857.29,-280.43 853.46,-272.31 849.81,-264.56"/>
<polygon fill="grey" stroke="grey" stroke-width="2" points="853.04,-263.19 845.61,-255.64 846.7,-266.18 853.04,-263.19"/>
</g>
<!-- 3&#45;&gt;0 -->
<g id="edge3" class="edge">
<title>3&#45;&gt;0</title>
<path fill="none" stroke="grey" stroke-width="2" d="M113.12,-143.07C119.02,-122.4 131.79,-89.08 155.88,-72 205.58,-36.75 386.89,-24.41 468.99,-20.56"/>
<polygon fill="grey" stroke="grey" stroke-width="2" points="469.11,-24.06 478.94,-20.12 468.8,-17.06 469.11,-24.06"/>
</g>
<!-- 16 -->
<g id="node17" class="node">
<title>16</title>
<path fill="none" stroke="#56d882" stroke-width="2" d="M91.75,-108C91.75,-108 12,-108 12,-108 6,-108 0,-102 0,-96 0,-96 0,-84 0,-84 0,-78 6,-72 12,-72 12,-72 91.75,-72 91.75,-72 97.75,-72 103.75,-78 103.75,-84 103.75,-84 103.75,-96 103.75,-96 103.75,-102 97.75,-108 91.75,-108"/>
<text text-anchor="middle" x="51.88" y="-86.12" font-family="sans" font-size="10.00">sync_outputs_folder</text>
</g>
<!-- 3&#45;&gt;16 -->
<g id="edge34" class="edge">
<title>3&#45;&gt;16</title>
<path fill="none" stroke="grey" stroke-width="2" d="M94.49,-143.34C88.46,-135.93 81.31,-127.14 74.6,-118.9"/>
<polygon fill="grey" stroke="grey" stroke-width="2" points="77.39,-116.79 68.36,-111.25 71.96,-121.21 77.39,-116.79"/>
</g>
<!-- 4&#45;&gt;0 -->
<g id="edge4" class="edge">
<title>4&#45;&gt;0</title>
<path fill="none" stroke="grey" stroke-width="2" d="M998.28,-143.27C1023.02,-124.54 1053.35,-94.65 1032.88,-72 1000.68,-36.38 668.07,-23.51 550.65,-20.05"/>
<polygon fill="grey" stroke="grey" stroke-width="2" points="550.87,-16.56 540.77,-19.77 550.67,-23.56 550.87,-16.56"/>
</g>
<!-- 17 -->
<g id="node18" class="node">
<title>17</title>
<path fill="none" stroke="#56d882" stroke-width="2" d="M1011.75,-108C1011.75,-108 932,-108 932,-108 926,-108 920,-102 920,-96 920,-96 920,-84 920,-84 920,-78 926,-72 932,-72 932,-72 1011.75,-72 1011.75,-72 1017.75,-72 1023.75,-78 1023.75,-84 1023.75,-84 1023.75,-96 1023.75,-96 1023.75,-102 1017.75,-108 1011.75,-108"/>
<text text-anchor="middle" x="971.88" y="-86.12" font-family="sans" font-size="10.00">sync_outputs_folder</text>
</g>
<!-- 4&#45;&gt;17 -->
<g id="edge35" class="edge">
<title>4&#45;&gt;17</title>
<path fill="none" stroke="grey" stroke-width="2" d="M971.88,-143.34C971.88,-136.75 971.88,-129.08 971.88,-121.67"/>
<polygon fill="grey" stroke="grey" stroke-width="2" points="975.38,-121.93 971.88,-111.93 968.38,-121.93 975.38,-121.93"/>
</g>
<!-- 5 -->
<g id="node6" class="node">
<title>5</title>
<path fill="none" stroke="#56a9d8" stroke-width="2" d="M483.88,-180C483.88,-180 383.88,-180 383.88,-180 377.88,-180 371.88,-174 371.88,-168 371.88,-168 371.88,-156 371.88,-156 371.88,-150 377.88,-144 383.88,-144 383.88,-144 483.88,-144 483.88,-144 489.88,-144 495.88,-150 495.88,-156 495.88,-156 495.88,-168 495.88,-168 495.88,-174 489.88,-180 483.88,-180"/>
<text text-anchor="middle" x="433.88" y="-158.12" font-family="sans" font-size="10.00">create_min_pvalue_table</text>
</g>
<!-- 5&#45;&gt;0 -->
<g id="edge5" class="edge">
<title>5&#45;&gt;0</title>
<path fill="none" stroke="grey" stroke-width="2" d="M438.61,-143.19C443.95,-124.67 453.65,-95.19 466.88,-72 471.94,-63.13 478.47,-54.22 484.9,-46.3"/>
<polygon fill="grey" stroke="grey" stroke-width="2" points="487.41,-48.76 491.21,-38.87 482.07,-44.23 487.41,-48.76"/>
</g>
<!-- 13 -->
<g id="node14" class="node">
<title>13</title>
<path fill="none" stroke="#56d8a9" stroke-width="2" d="M532.12,-108C532.12,-108 487.62,-108 487.62,-108 481.62,-108 475.62,-102 475.62,-96 475.62,-96 475.62,-84 475.62,-84 475.62,-78 481.62,-72 487.62,-72 487.62,-72 532.12,-72 532.12,-72 538.12,-72 544.12,-78 544.12,-84 544.12,-84 544.12,-96 544.12,-96 544.12,-102 538.12,-108 532.12,-108"/>
<text text-anchor="middle" x="509.88" y="-86.12" font-family="sans" font-size="10.00">sync_tables</text>
</g>
<!-- 5&#45;&gt;13 -->
<g id="edge28" class="edge">
<title>5&#45;&gt;13</title>
<path fill="none" stroke="grey" stroke-width="2" d="M453.05,-143.34C461.54,-135.52 471.7,-126.16 481.07,-117.53"/>
<polygon fill="grey" stroke="grey" stroke-width="2" points="483.23,-120.3 488.21,-110.95 478.49,-115.15 483.23,-120.3"/>
</g>
<!-- 6&#45;&gt;0 -->
<g id="edge9" class="edge">
<title>6&#45;&gt;0</title>
<path fill="none" stroke="grey" stroke-width="2" d="M245.37,-215.13C233.03,-182.61 213.03,-113.34 246.88,-72 274.55,-38.2 402.87,-25.48 469.48,-21.09"/>
<polygon fill="grey" stroke="grey" stroke-width="2" points="469.53,-24.59 479.3,-20.48 469.1,-17.61 469.53,-24.59"/>
</g>
<!-- 6&#45;&gt;5 -->
<g id="edge18" class="edge">
<title>6&#45;&gt;5</title>
<path fill="none" stroke="grey" stroke-width="2" d="M299.02,-215.15C322.33,-206.14 350.86,-195.11 375.66,-185.51"/>
<polygon fill="grey" stroke="grey" stroke-width="2" points="376.62,-188.9 384.68,-182.03 374.09,-182.37 376.62,-188.9"/>
</g>
<!-- 8 -->
<g id="node9" class="node">
<title>8</title>
<path fill="none" stroke="#5682d8" stroke-width="2" d="M341.75,-180C341.75,-180 286,-180 286,-180 280,-180 274,-174 274,-168 274,-168 274,-156 274,-156 274,-150 280,-144 286,-144 286,-144 341.75,-144 341.75,-144 347.75,-144 353.75,-150 353.75,-156 353.75,-156 353.75,-168 353.75,-168 353.75,-174 347.75,-180 341.75,-180"/>
<text text-anchor="middle" x="313.88" y="-158.12" font-family="sans" font-size="10.00">create_if_table</text>
</g>
<!-- 6&#45;&gt;8 -->
<g id="edge22" class="edge">
<title>6&#45;&gt;8</title>
<path fill="none" stroke="grey" stroke-width="2" d="M268.27,-215.34C274.79,-207.85 282.55,-198.95 289.8,-190.63"/>
<polygon fill="grey" stroke="grey" stroke-width="2" points="292.36,-193.02 296.29,-183.18 287.08,-188.42 292.36,-193.02"/>
</g>
<!-- 14 -->
<g id="node15" class="node">
<title>14</title>
<path fill="none" stroke="#afd856" stroke-width="2" d="M307.5,-108C307.5,-108 268.25,-108 268.25,-108 262.25,-108 256.25,-102 256.25,-96 256.25,-96 256.25,-84 256.25,-84 256.25,-78 262.25,-72 268.25,-72 268.25,-72 307.5,-72 307.5,-72 313.5,-72 319.5,-78 319.5,-84 319.5,-84 319.5,-96 319.5,-96 319.5,-102 313.5,-108 307.5,-108"/>
<text text-anchor="middle" x="287.88" y="-86.12" font-family="sans" font-size="10.00">sync_plots</text>
</g>
<!-- 6&#45;&gt;14 -->
<g id="edge32" class="edge">
<title>6&#45;&gt;14</title>
<path fill="none" stroke="grey" stroke-width="2" d="M253.82,-215.32C255.13,-197.15 258.14,-168.18 264.88,-144 267.05,-136.2 270.14,-128.05 273.35,-120.55"/>
<polygon fill="grey" stroke="grey" stroke-width="2" points="276.53,-122.01 277.48,-111.46 270.15,-119.12 276.53,-122.01"/>
</g>
<!-- 7&#45;&gt;0 -->
<g id="edge10" class="edge">
<title>7&#45;&gt;0</title>
<path fill="none" stroke="grey" stroke-width="2" d="M642.7,-215.04C653.22,-196.65 665.43,-167.5 654.88,-144 633.5,-96.4 583.8,-60.17 548.56,-39.26"/>
<polygon fill="grey" stroke="grey" stroke-width="2" points="550.72,-36.47 540.31,-34.53 547.24,-42.54 550.72,-36.47"/>
</g>
<!-- 7&#45;&gt;5 -->
<g id="edge19" class="edge">
<title>7&#45;&gt;5</title>
<path fill="none" stroke="grey" stroke-width="2" d="M580.4,-215.06C554.79,-205.97 523.46,-194.83 496.34,-185.2"/>
<polygon fill="grey" stroke="grey" stroke-width="2" points="497.67,-181.95 487.07,-181.9 495.32,-188.55 497.67,-181.95"/>
</g>
<!-- 7&#45;&gt;8 -->
<g id="edge23" class="edge">
<title>7&#45;&gt;8</title>
<path fill="none" stroke="grey" stroke-width="2" d="M575.18,-224.3C523.38,-215.7 443.9,-201.2 366.97,-180.92"/>
<polygon fill="grey" stroke="grey" stroke-width="2" points="368.14,-177.61 357.57,-178.4 366.33,-184.38 368.14,-177.61"/>
</g>
<!-- 15 -->
<g id="node16" class="node">
<title>15</title>
<path fill="none" stroke="#afd856" stroke-width="2" d="M753.5,-108C753.5,-108 714.25,-108 714.25,-108 708.25,-108 702.25,-102 702.25,-96 702.25,-96 702.25,-84 702.25,-84 702.25,-78 708.25,-72 714.25,-72 714.25,-72 753.5,-72 753.5,-72 759.5,-72 765.5,-78 765.5,-84 765.5,-84 765.5,-96 765.5,-96 765.5,-102 759.5,-108 753.5,-108"/>
<text text-anchor="middle" x="733.88" y="-86.12" font-family="sans" font-size="10.00">sync_plots</text>
</g>
<!-- 7&#45;&gt;15 -->
<g id="edge33" class="edge">
<title>7&#45;&gt;15</title>
<path fill="none" stroke="grey" stroke-width="2" d="M653.46,-215.19C664.71,-205.57 677.99,-193.02 687.88,-180 701.74,-161.74 713.52,-138.69 721.69,-120.63"/>
<polygon fill="grey" stroke="grey" stroke-width="2" points="724.86,-122.1 725.65,-111.54 718.45,-119.3 724.86,-122.1"/>
</g>
<!-- 8&#45;&gt;0 -->
<g id="edge6" class="edge">
<title>8&#45;&gt;0</title>
<path fill="none" stroke="grey" stroke-width="2" d="M338.7,-143.02C373.16,-118.05 435.67,-72.76 474.86,-44.37"/>
<polygon fill="grey" stroke="grey" stroke-width="2" points="476.76,-47.32 482.8,-38.61 472.65,-41.65 476.76,-47.32"/>
</g>
<!-- 8&#45;&gt;13 -->
<g id="edge29" class="edge">
<title>8&#45;&gt;13</title>
<path fill="none" stroke="grey" stroke-width="2" d="M354.49,-146.5C386,-135.24 429.75,-119.62 462.8,-107.81"/>
<polygon fill="grey" stroke="grey" stroke-width="2" points="463.8,-111.17 472.04,-104.51 461.45,-104.58 463.8,-111.17"/>
</g>
<!-- 9 -->
<g id="node10" class="node">
<title>9</title>
<path fill="none" stroke="#56d8d8" stroke-width="2" d="M862.12,-180C862.12,-180 751.62,-180 751.62,-180 745.62,-180 739.62,-174 739.62,-168 739.62,-168 739.62,-156 739.62,-156 739.62,-150 745.62,-144 751.62,-144 751.62,-144 862.12,-144 862.12,-144 868.12,-144 874.12,-150 874.12,-156 874.12,-156 874.12,-168 874.12,-168 874.12,-174 868.12,-180 862.12,-180"/>
<text text-anchor="middle" x="806.88" y="-158.12" font-family="sans" font-size="10.00">create_quality_check_table</text>
</g>
<!-- 9&#45;&gt;0 -->
<g id="edge7" class="edge">
<title>9&#45;&gt;0</title>
<path fill="none" stroke="grey" stroke-width="2" d="M805.54,-143.07C803.02,-122.71 795.77,-90.01 774.88,-72 741.71,-43.41 616.05,-28.34 550.39,-22.27"/>
<polygon fill="grey" stroke="grey" stroke-width="2" points="551.01,-18.81 540.74,-21.41 550.39,-25.78 551.01,-18.81"/>
</g>
<!-- 9&#45;&gt;13 -->
<g id="edge30" class="edge">
<title>9&#45;&gt;13</title>
<path fill="none" stroke="grey" stroke-width="2" d="M738.74,-144.94C683.24,-131.86 606.32,-113.73 557.32,-102.18"/>
<polygon fill="grey" stroke="grey" stroke-width="2" points="558.37,-98.83 547.84,-99.95 556.77,-105.65 558.37,-98.83"/>
</g>
<!-- 10&#45;&gt;9 -->
<g id="edge24" class="edge">
<title>10&#45;&gt;9</title>
<path fill="none" stroke="grey" stroke-width="2" d="M758.28,-215.34C765.31,-207.77 773.68,-198.75 781.48,-190.35"/>
<polygon fill="grey" stroke="grey" stroke-width="2" points="783.95,-192.83 788.19,-183.12 778.82,-188.07 783.95,-192.83"/>
</g>
<!-- 11&#45;&gt;9 -->
<g id="edge25" class="edge">
<title>11&#45;&gt;9</title>
<path fill="none" stroke="grey" stroke-width="2" d="M828.56,-215.34C825.73,-208.51 822.41,-200.5 819.23,-192.83"/>
<polygon fill="grey" stroke="grey" stroke-width="2" points="822.51,-191.6 815.45,-183.7 816.04,-194.28 822.51,-191.6"/>
</g>
<!-- 12 -->
<g id="node13" class="node">
<title>12</title>
<path fill="none" stroke="#d8ac56" stroke-width="2" d="M634,-180C634,-180 525.75,-180 525.75,-180 519.75,-180 513.75,-174 513.75,-168 513.75,-168 513.75,-156 513.75,-156 513.75,-150 519.75,-144 525.75,-144 525.75,-144 634,-144 634,-144 640,-144 646,-150 646,-156 646,-156 646,-168 646,-168 646,-174 640,-180 634,-180"/>
<text text-anchor="middle" x="579.88" y="-158.12" font-family="sans" font-size="10.00">create_snp_mapping_table</text>
</g>
<!-- 12&#45;&gt;0 -->
<g id="edge8" class="edge">
<title>12&#45;&gt;0</title>
<path fill="none" stroke="grey" stroke-width="2" d="M576.59,-143.16C572.7,-124.61 565.14,-95.1 552.88,-72 548.21,-63.22 541.99,-54.51 535.73,-46.76"/>
<polygon fill="grey" stroke="grey" stroke-width="2" points="538.42,-44.52 529.28,-39.17 533.09,-49.06 538.42,-44.52"/>
</g>
<!-- 12&#45;&gt;13 -->
<g id="edge31" class="edge">
<title>12&#45;&gt;13</title>
<path fill="none" stroke="grey" stroke-width="2" d="M562.21,-143.34C554.56,-135.69 545.43,-126.56 536.95,-118.08"/>
<polygon fill="grey" stroke="grey" stroke-width="2" points="539.46,-115.64 529.92,-111.04 534.51,-120.59 539.46,-115.64"/>
</g>
<!-- 13&#45;&gt;0 -->
<g id="edge11" class="edge">
<title>13&#45;&gt;0</title>
<path fill="none" stroke="grey" stroke-width="2" d="M509.88,-71.34C509.88,-64.75 509.88,-57.08 509.88,-49.67"/>
<polygon fill="grey" stroke="grey" stroke-width="2" points="513.38,-49.93 509.88,-39.93 506.38,-49.93 513.38,-49.93"/>
</g>
<!-- 14&#45;&gt;0 -->
<g id="edge12" class="edge">
<title>14&#45;&gt;0</title>
<path fill="none" stroke="grey" stroke-width="2" d="M320.16,-78.82C359.8,-66.32 427.05,-45.12 469.92,-31.6"/>
<polygon fill="grey" stroke="grey" stroke-width="2" points="470.74,-35.01 479.23,-28.66 468.64,-28.33 470.74,-35.01"/>
</g>
<!-- 15&#45;&gt;0 -->
<g id="edge13" class="edge">
<title>15&#45;&gt;0</title>
<path fill="none" stroke="grey" stroke-width="2" d="M701.3,-76.67C696.81,-75.05 692.24,-73.45 687.88,-72 641.02,-56.38 586.5,-40.48 550.27,-30.22"/>
<polygon fill="grey" stroke="grey" stroke-width="2" points="551.29,-26.87 540.71,-27.53 549.39,-33.61 551.29,-26.87"/>
</g>
<!-- 16&#45;&gt;0 -->
<g id="edge14" class="edge">
<title>16&#45;&gt;0</title>
<path fill="none" stroke="grey" stroke-width="2" d="M104.7,-74.81C109.15,-73.79 113.58,-72.84 117.88,-72 245.14,-47.1 397.94,-30.1 469.36,-22.89"/>
<polygon fill="grey" stroke="grey" stroke-width="2" points="469.51,-26.39 479.11,-21.92 468.82,-19.42 469.51,-26.39"/>
</g>
<!-- 17&#45;&gt;0 -->
<g id="edge15" class="edge">
<title>17&#45;&gt;0</title>
<path fill="none" stroke="grey" stroke-width="2" d="M919.05,-74.8C914.61,-73.79 910.17,-72.84 905.88,-72 777,-46.87 622.19,-29.93 550.27,-22.8"/>
<polygon fill="grey" stroke="grey" stroke-width="2" points="550.73,-19.33 540.44,-21.84 550.05,-26.3 550.73,-19.33"/>
</g>
</g>
</svg>
