<?xml version="1.0" encoding="UTF-8" standalone="no"?>
<!DOCTYPE svg PUBLIC "-//W3C//DTD SVG 1.1//EN"
 "http://www.w3.org/Graphics/SVG/1.1/DTD/svg11.dtd">
<!-- Generated by graphviz version 12.2.1 (20241206.2353)
 -->
<!-- Title: snakemake_dag Pages: 1 -->
<svg width="958pt" height="332pt"
 viewBox="0.00 0.00 957.83 332.00" xmlns="http://www.w3.org/2000/svg" xmlns:xlink="http://www.w3.org/1999/xlink">
<g id="graph0" class="graph" transform="scale(1 1) rotate(0) translate(4 328)">
<title>snakemake_dag</title>
<polygon fill="white" stroke="none" points="-4,4 -4,-328 953.83,-328 953.83,4 -4,4"/>
<!-- 0 -->
<g id="node1" class="node">
<title>0</title>
<path fill="none" stroke="#56d8c1" stroke-width="2" d="M449.95,-36C449.95,-36 419.95,-36 419.95,-36 413.95,-36 407.95,-30 407.95,-24 407.95,-24 407.95,-12 407.95,-12 407.95,-6 413.95,0 419.95,0 419.95,0 449.95,0 449.95,0 455.95,0 461.95,-6 461.95,-12 461.95,-12 461.95,-24 461.95,-24 461.95,-30 455.95,-36 449.95,-36"/>
<text text-anchor="middle" x="434.95" y="-14.12" font-family="sans" font-size="10.00">all</text>
</g>
<!-- 1 -->
<g id="node2" class="node">
<title>1</title>
<path fill="none" stroke="#56d88a" stroke-width="2" d="M166.95,-324C166.95,-324 72.95,-324 72.95,-324 66.95,-324 60.95,-318 60.95,-312 60.95,-312 60.95,-300 60.95,-300 60.95,-294 66.95,-288 72.95,-288 72.95,-288 166.95,-288 166.95,-288 172.95,-288 178.95,-294 178.95,-300 178.95,-300 178.95,-312 178.95,-312 178.95,-318 172.95,-324 166.95,-324"/>
<text text-anchor="middle" x="119.95" y="-307.75" font-family="sans" font-size="10.00">harmonize_sumstats</text>
<text text-anchor="middle" x="119.95" y="-296.5" font-family="sans" font-size="10.00">sumstat_id: seq.3007.7</text>
</g>
<!-- 1&#45;&gt;0 -->
<g id="edge1" class="edge">
<title>1&#45;&gt;0</title>
<path fill="none" stroke="grey" stroke-width="2" d="M100.51,-287.19C57,-245.27 -39.91,-138.83 18.95,-72 43.56,-44.05 294.54,-26.92 394.34,-21.17"/>
<polygon fill="grey" stroke="grey" stroke-width="2" points="394.3,-24.68 404.09,-20.62 393.91,-17.69 394.3,-24.68"/>
</g>
<!-- 3 -->
<g id="node4" class="node">
<title>3</title>
<path fill="none" stroke="#59d856" stroke-width="2" d="M140.7,-180C140.7,-180 99.2,-180 99.2,-180 93.2,-180 87.2,-174 87.2,-168 87.2,-168 87.2,-156 87.2,-156 87.2,-150 93.2,-144 99.2,-144 99.2,-144 140.7,-144 140.7,-144 146.7,-144 152.7,-150 152.7,-156 152.7,-156 152.7,-168 152.7,-168 152.7,-174 146.7,-180 140.7,-180"/>
<text text-anchor="middle" x="119.95" y="-158.12" font-family="sans" font-size="10.00">bgzip_tabix</text>
</g>
<!-- 1&#45;&gt;3 -->
<g id="edge15" class="edge">
<title>1&#45;&gt;3</title>
<path fill="none" stroke="grey" stroke-width="2" d="M119.95,-287.02C119.95,-263.54 119.95,-222.11 119.95,-193.64"/>
<polygon fill="grey" stroke="grey" stroke-width="2" points="123.45,-193.87 119.95,-183.87 116.45,-193.87 123.45,-193.87"/>
</g>
<!-- 6 -->
<g id="node7" class="node">
<title>6</title>
<path fill="none" stroke="#d85656" stroke-width="2" d="M273.83,-252C273.83,-252 188.08,-252 188.08,-252 182.08,-252 176.08,-246 176.08,-240 176.08,-240 176.08,-228 176.08,-228 176.08,-222 182.08,-216 188.08,-216 188.08,-216 273.83,-216 273.83,-216 279.83,-216 285.83,-222 285.83,-228 285.83,-228 285.83,-240 285.83,-240 285.83,-246 279.83,-252 273.83,-252"/>
<text text-anchor="middle" x="230.95" y="-230.12" font-family="sans" font-size="10.00">summarize_sumstats</text>
</g>
<!-- 1&#45;&gt;6 -->
<g id="edge19" class="edge">
<title>1&#45;&gt;6</title>
<path fill="none" stroke="grey" stroke-width="2" d="M148.25,-287.15C161.56,-278.76 177.64,-268.62 192.07,-259.52"/>
<polygon fill="grey" stroke="grey" stroke-width="2" points="193.55,-262.72 200.14,-254.43 189.82,-256.8 193.55,-262.72"/>
</g>
<!-- 2 -->
<g id="node3" class="node">
<title>2</title>
<path fill="none" stroke="#56d88a" stroke-width="2" d="M628.95,-324C628.95,-324 534.95,-324 534.95,-324 528.95,-324 522.95,-318 522.95,-312 522.95,-312 522.95,-300 522.95,-300 522.95,-294 528.95,-288 534.95,-288 534.95,-288 628.95,-288 628.95,-288 634.95,-288 640.95,-294 640.95,-300 640.95,-300 640.95,-312 640.95,-312 640.95,-318 634.95,-324 628.95,-324"/>
<text text-anchor="middle" x="581.95" y="-307.75" font-family="sans" font-size="10.00">harmonize_sumstats</text>
<text text-anchor="middle" x="581.95" y="-296.5" font-family="sans" font-size="10.00">sumstat_id: seq.9267.2</text>
</g>
<!-- 2&#45;&gt;0 -->
<g id="edge2" class="edge">
<title>2&#45;&gt;0</title>
<path fill="none" stroke="grey" stroke-width="2" d="M521.98,-293.65C462.33,-278.83 373.97,-246.48 332.95,-180 303.29,-131.92 358.57,-76.35 398.68,-44.68"/>
<polygon fill="grey" stroke="grey" stroke-width="2" points="400.78,-47.48 406.59,-38.62 396.52,-41.92 400.78,-47.48"/>
</g>
<!-- 4 -->
<g id="node5" class="node">
<title>4</title>
<path fill="none" stroke="#59d856" stroke-width="2" d="M861.7,-180C861.7,-180 820.2,-180 820.2,-180 814.2,-180 808.2,-174 808.2,-168 808.2,-168 808.2,-156 808.2,-156 808.2,-150 814.2,-144 820.2,-144 820.2,-144 861.7,-144 861.7,-144 867.7,-144 873.7,-150 873.7,-156 873.7,-156 873.7,-168 873.7,-168 873.7,-174 867.7,-180 861.7,-180"/>
<text text-anchor="middle" x="840.95" y="-158.12" font-family="sans" font-size="10.00">bgzip_tabix</text>
</g>
<!-- 2&#45;&gt;4 -->
<g id="edge16" class="edge">
<title>2&#45;&gt;4</title>
<path fill="none" stroke="grey" stroke-width="2" d="M614.75,-287.02C661.07,-261.62 745.73,-215.21 797.31,-186.93"/>
<polygon fill="grey" stroke="grey" stroke-width="2" points="798.67,-190.17 805.76,-182.29 795.31,-184.03 798.67,-190.17"/>
</g>
<!-- 7 -->
<g id="node8" class="node">
<title>7</title>
<path fill="none" stroke="#d85656" stroke-width="2" d="M624.83,-252C624.83,-252 539.08,-252 539.08,-252 533.08,-252 527.08,-246 527.08,-240 527.08,-240 527.08,-228 527.08,-228 527.08,-222 533.08,-216 539.08,-216 539.08,-216 624.83,-216 624.83,-216 630.83,-216 636.83,-222 636.83,-228 636.83,-228 636.83,-240 636.83,-240 636.83,-246 630.83,-252 624.83,-252"/>
<text text-anchor="middle" x="581.95" y="-230.12" font-family="sans" font-size="10.00">summarize_sumstats</text>
</g>
<!-- 2&#45;&gt;7 -->
<g id="edge20" class="edge">
<title>2&#45;&gt;7</title>
<path fill="none" stroke="grey" stroke-width="2" d="M581.95,-287.34C581.95,-280.75 581.95,-273.08 581.95,-265.67"/>
<polygon fill="grey" stroke="grey" stroke-width="2" points="585.45,-265.93 581.95,-255.93 578.45,-265.93 585.45,-265.93"/>
</g>
<!-- 3&#45;&gt;0 -->
<g id="edge3" class="edge">
<title>3&#45;&gt;0</title>
<path fill="none" stroke="grey" stroke-width="2" d="M126.77,-143.23C135.6,-122.72 153,-89.55 178.95,-72 244.97,-27.34 340.88,-19.01 394.61,-18.18"/>
<polygon fill="grey" stroke="grey" stroke-width="2" points="394.31,-21.69 404.29,-18.13 394.27,-14.69 394.31,-21.69"/>
</g>
<!-- 13 -->
<g id="node14" class="node">
<title>13</title>
<path fill="none" stroke="#88d856" stroke-width="2" d="M119.83,-108C119.83,-108 40.08,-108 40.08,-108 34.08,-108 28.08,-102 28.08,-96 28.08,-96 28.08,-84 28.08,-84 28.08,-78 34.08,-72 40.08,-72 40.08,-72 119.83,-72 119.83,-72 125.83,-72 131.83,-78 131.83,-84 131.83,-84 131.83,-96 131.83,-96 131.83,-102 125.83,-108 119.83,-108"/>
<text text-anchor="middle" x="79.95" y="-86.12" font-family="sans" font-size="10.00">sync_outputs_folder</text>
</g>
<!-- 3&#45;&gt;13 -->
<g id="edge28" class="edge">
<title>3&#45;&gt;13</title>
<path fill="none" stroke="grey" stroke-width="2" d="M109.86,-143.34C105.81,-136.26 101.05,-127.92 96.52,-120"/>
<polygon fill="grey" stroke="grey" stroke-width="2" points="99.68,-118.48 91.68,-111.53 93.6,-121.95 99.68,-118.48"/>
</g>
<!-- 4&#45;&gt;0 -->
<g id="edge4" class="edge">
<title>4&#45;&gt;0</title>
<path fill="none" stroke="grey" stroke-width="2" d="M836.71,-143.06C830.82,-122.38 818.06,-89.06 793.95,-72 743.34,-36.2 558.39,-24.12 475.55,-20.45"/>
<polygon fill="grey" stroke="grey" stroke-width="2" points="475.87,-16.96 465.73,-20.04 475.58,-23.95 475.87,-16.96"/>
</g>
<!-- 14 -->
<g id="node15" class="node">
<title>14</title>
<path fill="none" stroke="#88d856" stroke-width="2" d="M937.83,-108C937.83,-108 858.08,-108 858.08,-108 852.08,-108 846.08,-102 846.08,-96 846.08,-96 846.08,-84 846.08,-84 846.08,-78 852.08,-72 858.08,-72 858.08,-72 937.83,-72 937.83,-72 943.83,-72 949.83,-78 949.83,-84 949.83,-84 949.83,-96 949.83,-96 949.83,-102 943.83,-108 937.83,-108"/>
<text text-anchor="middle" x="897.95" y="-86.12" font-family="sans" font-size="10.00">sync_outputs_folder</text>
</g>
<!-- 4&#45;&gt;14 -->
<g id="edge29" class="edge">
<title>4&#45;&gt;14</title>
<path fill="none" stroke="grey" stroke-width="2" d="M855.33,-143.34C861.36,-135.93 868.52,-127.14 875.23,-118.9"/>
<polygon fill="grey" stroke="grey" stroke-width="2" points="877.86,-121.21 881.46,-111.25 872.43,-116.79 877.86,-121.21"/>
</g>
<!-- 5 -->
<g id="node6" class="node">
<title>5</title>
<path fill="none" stroke="#bed856" stroke-width="2" d="M453.95,-180C453.95,-180 353.95,-180 353.95,-180 347.95,-180 341.95,-174 341.95,-168 341.95,-168 341.95,-156 341.95,-156 341.95,-150 347.95,-144 353.95,-144 353.95,-144 453.95,-144 453.95,-144 459.95,-144 465.95,-150 465.95,-156 465.95,-156 465.95,-168 465.95,-168 465.95,-174 459.95,-180 453.95,-180"/>
<text text-anchor="middle" x="403.95" y="-158.12" font-family="sans" font-size="10.00">create_min_pvalue_table</text>
</g>
<!-- 5&#45;&gt;0 -->
<g id="edge5" class="edge">
<title>5&#45;&gt;0</title>
<path fill="none" stroke="grey" stroke-width="2" d="M407.88,-143.02C413.02,-119.44 422.13,-77.73 428.35,-49.25"/>
<polygon fill="grey" stroke="grey" stroke-width="2" points="431.7,-50.31 430.41,-39.8 424.86,-48.82 431.7,-50.31"/>
</g>
<!-- 10 -->
<g id="node11" class="node">
<title>10</title>
<path fill="none" stroke="#56c1d8" stroke-width="2" d="M544.2,-108C544.2,-108 499.7,-108 499.7,-108 493.7,-108 487.7,-102 487.7,-96 487.7,-96 487.7,-84 487.7,-84 487.7,-78 493.7,-72 499.7,-72 499.7,-72 544.2,-72 544.2,-72 550.2,-72 556.2,-78 556.2,-84 556.2,-84 556.2,-96 556.2,-96 556.2,-102 550.2,-108 544.2,-108"/>
<text text-anchor="middle" x="521.95" y="-86.12" font-family="sans" font-size="10.00">sync_tables</text>
</g>
<!-- 5&#45;&gt;10 -->
<g id="edge23" class="edge">
<title>5&#45;&gt;10</title>
<path fill="none" stroke="grey" stroke-width="2" d="M434.03,-143.15C448.32,-134.68 465.61,-124.42 481.06,-115.25"/>
<polygon fill="grey" stroke="grey" stroke-width="2" points="482.51,-118.47 489.32,-110.36 478.93,-112.45 482.51,-118.47"/>
</g>
<!-- 6&#45;&gt;0 -->
<g id="edge8" class="edge">
<title>6&#45;&gt;0</title>
<path fill="none" stroke="grey" stroke-width="2" d="M234.44,-215.24C241.73,-182.6 261.54,-112.69 303.95,-72 328.97,-47.99 366.3,-34.34 394.72,-26.92"/>
<polygon fill="grey" stroke="grey" stroke-width="2" points="395.23,-30.4 404.13,-24.65 393.59,-23.59 395.23,-30.4"/>
</g>
<!-- 6&#45;&gt;5 -->
<g id="edge17" class="edge">
<title>6&#45;&gt;5</title>
<path fill="none" stroke="grey" stroke-width="2" d="M275.05,-215.15C297.13,-206.22 324.11,-195.31 347.66,-185.77"/>
<polygon fill="grey" stroke="grey" stroke-width="2" points="348.86,-189.06 356.82,-182.07 346.24,-182.58 348.86,-189.06"/>
</g>
<!-- 8 -->
<g id="node9" class="node">
<title>8</title>
<path fill="none" stroke="#568ad8" stroke-width="2" d="M551.83,-180C551.83,-180 496.08,-180 496.08,-180 490.08,-180 484.08,-174 484.08,-168 484.08,-168 484.08,-156 484.08,-156 484.08,-150 490.08,-144 496.08,-144 496.08,-144 551.83,-144 551.83,-144 557.83,-144 563.83,-150 563.83,-156 563.83,-156 563.83,-168 563.83,-168 563.83,-174 557.83,-180 551.83,-180"/>
<text text-anchor="middle" x="523.95" y="-158.12" font-family="sans" font-size="10.00">create_if_table</text>
</g>
<!-- 6&#45;&gt;8 -->
<g id="edge21" class="edge">
<title>6&#45;&gt;8</title>
<path fill="none" stroke="grey" stroke-width="2" d="M286.65,-222.88C333.6,-213.91 402.72,-199.67 470.89,-180.98"/>
<polygon fill="grey" stroke="grey" stroke-width="2" points="471.55,-184.43 480.24,-178.37 469.67,-177.69 471.55,-184.43"/>
</g>
<!-- 11 -->
<g id="node12" class="node">
<title>11</title>
<path fill="none" stroke="#d88d56" stroke-width="2" d="M239.58,-108C239.58,-108 200.33,-108 200.33,-108 194.33,-108 188.33,-102 188.33,-96 188.33,-96 188.33,-84 188.33,-84 188.33,-78 194.33,-72 200.33,-72 200.33,-72 239.58,-72 239.58,-72 245.58,-72 251.58,-78 251.58,-84 251.58,-84 251.58,-96 251.58,-96 251.58,-102 245.58,-108 239.58,-108"/>
<text text-anchor="middle" x="219.95" y="-86.12" font-family="sans" font-size="10.00">sync_plots</text>
</g>
<!-- 6&#45;&gt;11 -->
<g id="edge26" class="edge">
<title>6&#45;&gt;11</title>
<path fill="none" stroke="grey" stroke-width="2" d="M229.56,-215.02C227.74,-191.54 224.53,-150.11 222.32,-121.64"/>
<polygon fill="grey" stroke="grey" stroke-width="2" points="225.83,-121.56 221.57,-111.86 218.85,-122.1 225.83,-121.56"/>
</g>
<!-- 7&#45;&gt;0 -->
<g id="edge9" class="edge">
<title>7&#45;&gt;0</title>
<path fill="none" stroke="grey" stroke-width="2" d="M637.56,-221.55C677.96,-211.97 727.62,-197.15 739.95,-180 767.98,-141.03 770.85,-108.73 739.95,-72 706.58,-32.33 550.3,-22.35 475.3,-19.84"/>
<polygon fill="grey" stroke="grey" stroke-width="2" points="475.84,-16.36 465.74,-19.56 475.64,-23.35 475.84,-16.36"/>
</g>
<!-- 7&#45;&gt;5 -->
<g id="edge18" class="edge">
<title>7&#45;&gt;5</title>
<path fill="none" stroke="grey" stroke-width="2" d="M536.57,-215.15C513.75,-206.18 485.85,-195.21 461.53,-185.64"/>
<polygon fill="grey" stroke="grey" stroke-width="2" points="462.96,-182.44 452.37,-182.04 460.4,-188.96 462.96,-182.44"/>
</g>
<!-- 7&#45;&gt;8 -->
<g id="edge22" class="edge">
<title>7&#45;&gt;8</title>
<path fill="none" stroke="grey" stroke-width="2" d="M567.31,-215.34C561.18,-207.93 553.9,-199.14 547.07,-190.9"/>
<polygon fill="grey" stroke="grey" stroke-width="2" points="549.79,-188.7 540.71,-183.23 544.4,-193.17 549.79,-188.7"/>
</g>
<!-- 12 -->
<g id="node13" class="node">
<title>12</title>
<path fill="none" stroke="#d88d56" stroke-width="2" d="M718.58,-108C718.58,-108 679.33,-108 679.33,-108 673.33,-108 667.33,-102 667.33,-96 667.33,-96 667.33,-84 667.33,-84 667.33,-78 673.33,-72 679.33,-72 679.33,-72 718.58,-72 718.58,-72 724.58,-72 730.58,-78 730.58,-84 730.58,-84 730.58,-96 730.58,-96 730.58,-102 724.58,-108 718.58,-108"/>
<text text-anchor="middle" x="698.95" y="-86.12" font-family="sans" font-size="10.00">sync_plots</text>
</g>
<!-- 7&#45;&gt;12 -->
<g id="edge27" class="edge">
<title>7&#45;&gt;12</title>
<path fill="none" stroke="grey" stroke-width="2" d="M637.8,-227.21C668.37,-220.87 703.82,-207.63 722.95,-180 735.21,-162.3 727.95,-138.62 718.31,-120.14"/>
<polygon fill="grey" stroke="grey" stroke-width="2" points="721.35,-118.4 713.32,-111.48 715.28,-121.9 721.35,-118.4"/>
</g>
<!-- 8&#45;&gt;0 -->
<g id="edge6" class="edge">
<title>8&#45;&gt;0</title>
<path fill="none" stroke="grey" stroke-width="2" d="M506.95,-143.23C497.99,-133.33 487.17,-120.51 478.95,-108 466.55,-89.13 455.32,-66.27 447.31,-48.44"/>
<polygon fill="grey" stroke="grey" stroke-width="2" points="450.62,-47.28 443.4,-39.52 444.21,-50.09 450.62,-47.28"/>
</g>
<!-- 8&#45;&gt;10 -->
<g id="edge24" class="edge">
<title>8&#45;&gt;10</title>
<path fill="none" stroke="grey" stroke-width="2" d="M523.45,-143.34C523.26,-136.75 523.04,-129.08 522.83,-121.67"/>
<polygon fill="grey" stroke="grey" stroke-width="2" points="526.33,-121.82 522.55,-111.93 519.34,-122.02 526.33,-121.82"/>
</g>
<!-- 9 -->
<g id="node10" class="node">
<title>9</title>
<path fill="none" stroke="#d8bc56" stroke-width="2" d="M702.08,-180C702.08,-180 593.83,-180 593.83,-180 587.83,-180 581.83,-174 581.83,-168 581.83,-168 581.83,-156 581.83,-156 581.83,-150 587.83,-144 593.83,-144 593.83,-144 702.08,-144 702.08,-144 708.08,-144 714.08,-150 714.08,-156 714.08,-156 714.08,-168 714.08,-168 714.08,-174 708.08,-180 702.08,-180"/>
<text text-anchor="middle" x="647.95" y="-158.12" font-family="sans" font-size="10.00">create_snp_mapping_table</text>
</g>
<!-- 9&#45;&gt;0 -->
<g id="edge7" class="edge">
<title>9&#45;&gt;0</title>
<path fill="none" stroke="grey" stroke-width="2" d="M635.09,-143.12C620.15,-123.42 593.82,-91.91 564.95,-72 537.32,-52.95 501.81,-39.06 474.88,-30.29"/>
<polygon fill="grey" stroke="grey" stroke-width="2" points="476.28,-27.06 465.69,-27.41 474.18,-33.74 476.28,-27.06"/>
</g>
<!-- 9&#45;&gt;10 -->
<g id="edge25" class="edge">
<title>9&#45;&gt;10</title>
<path fill="none" stroke="grey" stroke-width="2" d="M615.83,-143.15C600.43,-134.6 581.75,-124.22 565.13,-114.99"/>
<polygon fill="grey" stroke="grey" stroke-width="2" points="567.1,-112.08 556.66,-110.28 563.7,-118.2 567.1,-112.08"/>
</g>
<!-- 10&#45;&gt;0 -->
<g id="edge10" class="edge">
<title>10&#45;&gt;0</title>
<path fill="none" stroke="grey" stroke-width="2" d="M500,-71.34C490.08,-63.36 478.16,-53.77 467.25,-44.99"/>
<polygon fill="grey" stroke="grey" stroke-width="2" points="469.54,-42.34 459.56,-38.8 465.16,-47.8 469.54,-42.34"/>
</g>
<!-- 11&#45;&gt;0 -->
<g id="edge11" class="edge">
<title>11&#45;&gt;0</title>
<path fill="none" stroke="grey" stroke-width="2" d="M252.55,-76.72C257.04,-75.1 261.6,-73.49 265.95,-72 309.69,-57.07 360.32,-41.4 394.68,-31.01"/>
<polygon fill="grey" stroke="grey" stroke-width="2" points="395.54,-34.41 404.1,-28.17 393.52,-27.7 395.54,-34.41"/>
</g>
<!-- 12&#45;&gt;0 -->
<g id="edge12" class="edge">
<title>12&#45;&gt;0</title>
<path fill="none" stroke="grey" stroke-width="2" d="M666.58,-80.42C618.35,-67.63 527.68,-43.59 475.23,-29.68"/>
<polygon fill="grey" stroke="grey" stroke-width="2" points="476.25,-26.33 465.69,-27.15 474.46,-33.1 476.25,-26.33"/>
</g>
<!-- 13&#45;&gt;0 -->
<g id="edge13" class="edge">
<title>13&#45;&gt;0</title>
<path fill="none" stroke="grey" stroke-width="2" d="M132.47,-75.12C137.02,-74.02 141.56,-72.97 145.95,-72 234.08,-52.59 338.42,-34.7 394.48,-25.49"/>
<polygon fill="grey" stroke="grey" stroke-width="2" points="395.03,-28.95 404.34,-23.88 393.9,-22.04 395.03,-28.95"/>
</g>
<!-- 14&#45;&gt;0 -->
<g id="edge14" class="edge">
<title>14&#45;&gt;0</title>
<path fill="none" stroke="grey" stroke-width="2" d="M845.12,-74.8C840.68,-73.79 836.25,-72.84 831.95,-72 702.75,-46.83 547.55,-29.9 475.45,-22.79"/>
<polygon fill="grey" stroke="grey" stroke-width="2" points="475.87,-19.32 465.58,-21.83 475.2,-26.29 475.87,-19.32"/>
</g>
</g>
</svg>
