<?xml version="1.0" encoding="UTF-8" standalone="no"?>
<!DOCTYPE svg PUBLIC "-//W3C//DTD SVG 1.1//EN"
 "http://www.w3.org/Graphics/SVG/1.1/DTD/svg11.dtd">
<!-- Generated by graphviz version 12.2.1 (20241206.2353)
 -->
<!-- Title: snakemake_dag Pages: 1 -->
<svg width="852pt" height="332pt"
 viewBox="0.00 0.00 851.88 332.00" xmlns="http://www.w3.org/2000/svg" xmlns:xlink="http://www.w3.org/1999/xlink">
<g id="graph0" class="graph" transform="scale(1 1) rotate(0) translate(4 328)">
<title>snakemake_dag</title>
<polygon fill="white" stroke="none" points="-4,4 -4,-328 847.88,-328 847.88,4 -4,4"/>
<!-- 0 -->
<g id="node1" class="node">
<title>0</title>
<path fill="none" stroke="#d88d56" stroke-width="2" d="M390.75,-36C390.75,-36 360.75,-36 360.75,-36 354.75,-36 348.75,-30 348.75,-24 348.75,-24 348.75,-12 348.75,-12 348.75,-6 354.75,0 360.75,0 360.75,0 390.75,0 390.75,0 396.75,0 402.75,-6 402.75,-12 402.75,-12 402.75,-24 402.75,-24 402.75,-30 396.75,-36 390.75,-36"/>
<text text-anchor="middle" x="375.75" y="-14.12" font-family="sans" font-size="10.00">all</text>
</g>
<!-- 1 -->
<g id="node2" class="node">
<title>1</title>
<path fill="none" stroke="#d8bc56" stroke-width="2" d="M183.12,-252C183.12,-252 100.38,-252 100.38,-252 94.38,-252 88.38,-246 88.38,-240 88.38,-240 88.38,-228 88.38,-228 88.38,-222 94.38,-216 100.38,-216 100.38,-216 183.12,-216 183.12,-216 189.12,-216 195.12,-222 195.12,-228 195.12,-228 195.12,-240 195.12,-240 195.12,-246 189.12,-252 183.12,-252"/>
<text text-anchor="middle" x="141.75" y="-230.12" font-family="sans" font-size="10.00">harmonize_sumstats</text>
</g>
<!-- 1&#45;&gt;0 -->
<g id="edge1" class="edge">
<title>1&#45;&gt;0</title>
<path fill="none" stroke="grey" stroke-width="2" d="M134.58,-215.23C122.47,-181.94 102.76,-110.11 140.75,-72 167.65,-45.01 275.32,-29.59 335.15,-22.94"/>
<polygon fill="grey" stroke="grey" stroke-width="2" points="335.26,-26.45 344.83,-21.91 334.52,-19.49 335.26,-26.45"/>
</g>
<!-- 5 -->
<g id="node6" class="node">
<title>5</title>
<path fill="none" stroke="#56d88a" stroke-width="2" d="M53.5,-180C53.5,-180 12,-180 12,-180 6,-180 0,-174 0,-168 0,-168 0,-156 0,-156 0,-150 6,-144 12,-144 12,-144 53.5,-144 53.5,-144 59.5,-144 65.5,-150 65.5,-156 65.5,-156 65.5,-168 65.5,-168 65.5,-174 59.5,-180 53.5,-180"/>
<text text-anchor="middle" x="32.75" y="-158.12" font-family="sans" font-size="10.00">bgzip_tabix</text>
</g>
<!-- 1&#45;&gt;5 -->
<g id="edge13" class="edge">
<title>1&#45;&gt;5</title>
<path fill="none" stroke="grey" stroke-width="2" d="M113.96,-215.15C101.02,-206.84 85.41,-196.82 71.35,-187.79"/>
<polygon fill="grey" stroke="grey" stroke-width="2" points="73.34,-184.91 63.03,-182.45 69.56,-190.8 73.34,-184.91"/>
</g>
<!-- 8 -->
<g id="node9" class="node">
<title>8</title>
<path fill="none" stroke="#56d8c1" stroke-width="2" d="M231.62,-180C231.62,-180 145.88,-180 145.88,-180 139.88,-180 133.88,-174 133.88,-168 133.88,-168 133.88,-156 133.88,-156 133.88,-150 139.88,-144 145.88,-144 145.88,-144 231.62,-144 231.62,-144 237.62,-144 243.62,-150 243.62,-156 243.62,-156 243.62,-168 243.62,-168 243.62,-174 237.62,-180 231.62,-180"/>
<text text-anchor="middle" x="188.75" y="-158.12" font-family="sans" font-size="10.00">summarize_sumstats</text>
</g>
<!-- 1&#45;&gt;8 -->
<g id="edge17" class="edge">
<title>1&#45;&gt;8</title>
<path fill="none" stroke="grey" stroke-width="2" d="M153.61,-215.34C158.47,-208.1 164.22,-199.53 169.65,-191.45"/>
<polygon fill="grey" stroke="grey" stroke-width="2" points="172.37,-193.67 175.04,-183.41 166.56,-189.77 172.37,-193.67"/>
</g>
<!-- 12 -->
<g id="node13" class="node">
<title>12</title>
<path fill="none" stroke="#568ad8" stroke-width="2" d="M465.75,-180C465.75,-180 413.75,-180 413.75,-180 407.75,-180 401.75,-174 401.75,-168 401.75,-168 401.75,-156 401.75,-156 401.75,-150 407.75,-144 413.75,-144 413.75,-144 465.75,-144 465.75,-144 471.75,-144 477.75,-150 477.75,-156 477.75,-156 477.75,-168 477.75,-168 477.75,-174 471.75,-180 465.75,-180"/>
<text text-anchor="middle" x="439.75" y="-158.12" font-family="sans" font-size="10.00">quality_check</text>
</g>
<!-- 1&#45;&gt;12 -->
<g id="edge23" class="edge">
<title>1&#45;&gt;12</title>
<path fill="none" stroke="grey" stroke-width="2" d="M195.65,-223.86C244.04,-215.16 317.17,-200.78 388.54,-181.01"/>
<polygon fill="grey" stroke="grey" stroke-width="2" points="389.31,-184.43 397.99,-178.34 387.42,-177.69 389.31,-184.43"/>
</g>
<!-- 2 -->
<g id="node3" class="node">
<title>2</title>
<path fill="none" stroke="#d85656" stroke-width="2" d="M188.75,-324C188.75,-324 94.75,-324 94.75,-324 88.75,-324 82.75,-318 82.75,-312 82.75,-312 82.75,-300 82.75,-300 82.75,-294 88.75,-288 94.75,-288 94.75,-288 188.75,-288 188.75,-288 194.75,-288 200.75,-294 200.75,-300 200.75,-300 200.75,-312 200.75,-312 200.75,-318 194.75,-324 188.75,-324"/>
<text text-anchor="middle" x="141.75" y="-307.75" font-family="sans" font-size="10.00">pre_filtering</text>
<text text-anchor="middle" x="141.75" y="-296.5" font-family="sans" font-size="10.00">sumstat_id: seq.3007.7</text>
</g>
<!-- 2&#45;&gt;1 -->
<g id="edge11" class="edge">
<title>2&#45;&gt;1</title>
<path fill="none" stroke="grey" stroke-width="2" d="M141.75,-287.34C141.75,-280.75 141.75,-273.08 141.75,-265.67"/>
<polygon fill="grey" stroke="grey" stroke-width="2" points="145.25,-265.93 141.75,-255.93 138.25,-265.93 145.25,-265.93"/>
</g>
<!-- 3 -->
<g id="node4" class="node">
<title>3</title>
<path fill="none" stroke="#d8bc56" stroke-width="2" d="M608.12,-252C608.12,-252 525.38,-252 525.38,-252 519.38,-252 513.38,-246 513.38,-240 513.38,-240 513.38,-228 513.38,-228 513.38,-222 519.38,-216 525.38,-216 525.38,-216 608.12,-216 608.12,-216 614.12,-216 620.12,-222 620.12,-228 620.12,-228 620.12,-240 620.12,-240 620.12,-246 614.12,-252 608.12,-252"/>
<text text-anchor="middle" x="566.75" y="-230.12" font-family="sans" font-size="10.00">harmonize_sumstats</text>
</g>
<!-- 3&#45;&gt;0 -->
<g id="edge2" class="edge">
<title>3&#45;&gt;0</title>
<path fill="none" stroke="grey" stroke-width="2" d="M575.46,-215.07C589.74,-182.78 613.47,-114.26 580.75,-72 560.83,-46.28 470.46,-30.79 416.58,-23.68"/>
<polygon fill="grey" stroke="grey" stroke-width="2" points="417.09,-20.22 406.73,-22.43 416.21,-27.16 417.09,-20.22"/>
</g>
<!-- 6 -->
<g id="node7" class="node">
<title>6</title>
<path fill="none" stroke="#56d88a" stroke-width="2" d="M681.5,-108C681.5,-108 640,-108 640,-108 634,-108 628,-102 628,-96 628,-96 628,-84 628,-84 628,-78 634,-72 640,-72 640,-72 681.5,-72 681.5,-72 687.5,-72 693.5,-78 693.5,-84 693.5,-84 693.5,-96 693.5,-96 693.5,-102 687.5,-108 681.5,-108"/>
<text text-anchor="middle" x="660.75" y="-86.12" font-family="sans" font-size="10.00">bgzip_tabix</text>
</g>
<!-- 3&#45;&gt;6 -->
<g id="edge14" class="edge">
<title>3&#45;&gt;6</title>
<path fill="none" stroke="grey" stroke-width="2" d="M584.43,-215.26C593.77,-205.36 605.07,-192.54 613.75,-180 626.78,-161.18 638.78,-138.32 647.4,-120.48"/>
<polygon fill="grey" stroke="grey" stroke-width="2" points="650.52,-122.05 651.62,-111.51 644.19,-119.07 650.52,-122.05"/>
</g>
<!-- 9 -->
<g id="node10" class="node">
<title>9</title>
<path fill="none" stroke="#56d8c1" stroke-width="2" d="M371.62,-180C371.62,-180 285.88,-180 285.88,-180 279.88,-180 273.88,-174 273.88,-168 273.88,-168 273.88,-156 273.88,-156 273.88,-150 279.88,-144 285.88,-144 285.88,-144 371.62,-144 371.62,-144 377.62,-144 383.62,-150 383.62,-156 383.62,-156 383.62,-168 383.62,-168 383.62,-174 377.62,-180 371.62,-180"/>
<text text-anchor="middle" x="328.75" y="-158.12" font-family="sans" font-size="10.00">summarize_sumstats</text>
</g>
<!-- 3&#45;&gt;9 -->
<g id="edge18" class="edge">
<title>3&#45;&gt;9</title>
<path fill="none" stroke="grey" stroke-width="2" d="M512.45,-217.03C478.06,-206.91 433.31,-193.75 396.59,-182.95"/>
<polygon fill="grey" stroke="grey" stroke-width="2" points="397.96,-179.71 387.38,-180.24 395.98,-186.42 397.96,-179.71"/>
</g>
<!-- 13 -->
<g id="node14" class="node">
<title>13</title>
<path fill="none" stroke="#568ad8" stroke-width="2" d="M559.75,-180C559.75,-180 507.75,-180 507.75,-180 501.75,-180 495.75,-174 495.75,-168 495.75,-168 495.75,-156 495.75,-156 495.75,-150 501.75,-144 507.75,-144 507.75,-144 559.75,-144 559.75,-144 565.75,-144 571.75,-150 571.75,-156 571.75,-156 571.75,-168 571.75,-168 571.75,-174 565.75,-180 559.75,-180"/>
<text text-anchor="middle" x="533.75" y="-158.12" font-family="sans" font-size="10.00">quality_check</text>
</g>
<!-- 3&#45;&gt;13 -->
<g id="edge24" class="edge">
<title>3&#45;&gt;13</title>
<path fill="none" stroke="grey" stroke-width="2" d="M558.42,-215.34C555.16,-208.43 551.34,-200.31 547.68,-192.56"/>
<polygon fill="grey" stroke="grey" stroke-width="2" points="550.91,-191.19 543.48,-183.64 544.58,-194.18 550.91,-191.19"/>
</g>
<!-- 4 -->
<g id="node5" class="node">
<title>4</title>
<path fill="none" stroke="#d85656" stroke-width="2" d="M613.75,-324C613.75,-324 519.75,-324 519.75,-324 513.75,-324 507.75,-318 507.75,-312 507.75,-312 507.75,-300 507.75,-300 507.75,-294 513.75,-288 519.75,-288 519.75,-288 613.75,-288 613.75,-288 619.75,-288 625.75,-294 625.75,-300 625.75,-300 625.75,-312 625.75,-312 625.75,-318 619.75,-324 613.75,-324"/>
<text text-anchor="middle" x="566.75" y="-307.75" font-family="sans" font-size="10.00">pre_filtering</text>
<text text-anchor="middle" x="566.75" y="-296.5" font-family="sans" font-size="10.00">sumstat_id: seq.9267.2</text>
</g>
<!-- 4&#45;&gt;3 -->
<g id="edge12" class="edge">
<title>4&#45;&gt;3</title>
<path fill="none" stroke="grey" stroke-width="2" d="M566.75,-287.34C566.75,-280.75 566.75,-273.08 566.75,-265.67"/>
<polygon fill="grey" stroke="grey" stroke-width="2" points="570.25,-265.93 566.75,-255.93 563.25,-265.93 570.25,-265.93"/>
</g>
<!-- 5&#45;&gt;0 -->
<g id="edge3" class="edge">
<title>5&#45;&gt;0</title>
<path fill="none" stroke="grey" stroke-width="2" d="M37.08,-143.19C43.06,-122.63 55.91,-89.42 79.75,-72 119.84,-42.7 263.81,-27.68 335.13,-21.9"/>
<polygon fill="grey" stroke="grey" stroke-width="2" points="335.25,-25.4 344.94,-21.13 334.7,-18.42 335.25,-25.4"/>
</g>
<!-- 6&#45;&gt;0 -->
<g id="edge4" class="edge">
<title>6&#45;&gt;0</title>
<path fill="none" stroke="grey" stroke-width="2" d="M627.03,-76.22C622.59,-74.71 618.08,-73.26 613.75,-72 545.2,-52.06 463.68,-35.39 416.03,-26.34"/>
<polygon fill="grey" stroke="grey" stroke-width="2" points="416.98,-22.95 406.5,-24.55 415.68,-29.83 416.98,-22.95"/>
</g>
<!-- 7 -->
<g id="node8" class="node">
<title>7</title>
<path fill="none" stroke="#56c1d8" stroke-width="2" d="M271.75,-108C271.75,-108 171.75,-108 171.75,-108 165.75,-108 159.75,-102 159.75,-96 159.75,-96 159.75,-84 159.75,-84 159.75,-78 165.75,-72 171.75,-72 171.75,-72 271.75,-72 271.75,-72 277.75,-72 283.75,-78 283.75,-84 283.75,-84 283.75,-96 283.75,-96 283.75,-102 277.75,-108 271.75,-108"/>
<text text-anchor="middle" x="221.75" y="-86.12" font-family="sans" font-size="10.00">create_min_pvalue_table</text>
</g>
<!-- 7&#45;&gt;0 -->
<g id="edge5" class="edge">
<title>7&#45;&gt;0</title>
<path fill="none" stroke="grey" stroke-width="2" d="M261.01,-71.15C284.12,-60.65 313.27,-47.4 336.4,-36.89"/>
<polygon fill="grey" stroke="grey" stroke-width="2" points="337.81,-40.09 345.46,-32.77 334.91,-33.72 337.81,-40.09"/>
</g>
<!-- 8&#45;&gt;0 -->
<g id="edge9" class="edge">
<title>8&#45;&gt;0</title>
<path fill="none" stroke="grey" stroke-width="2" d="M170.93,-143.15C154.05,-124.05 133.65,-93.6 150.75,-72 173.34,-43.47 276.86,-28.76 335.3,-22.61"/>
<polygon fill="grey" stroke="grey" stroke-width="2" points="335.46,-26.11 345.06,-21.63 334.76,-19.15 335.46,-26.11"/>
</g>
<!-- 8&#45;&gt;7 -->
<g id="edge15" class="edge">
<title>8&#45;&gt;7</title>
<path fill="none" stroke="grey" stroke-width="2" d="M197.08,-143.34C200.34,-136.43 204.16,-128.31 207.82,-120.56"/>
<polygon fill="grey" stroke="grey" stroke-width="2" points="210.92,-122.18 212.02,-111.64 204.59,-119.19 210.92,-122.18"/>
</g>
<!-- 10 -->
<g id="node11" class="node">
<title>10</title>
<path fill="none" stroke="#bed856" stroke-width="2" d="M369.62,-108C369.62,-108 313.88,-108 313.88,-108 307.88,-108 301.88,-102 301.88,-96 301.88,-96 301.88,-84 301.88,-84 301.88,-78 307.88,-72 313.88,-72 313.88,-72 369.62,-72 369.62,-72 375.62,-72 381.62,-78 381.62,-84 381.62,-84 381.62,-96 381.62,-96 381.62,-102 375.62,-108 369.62,-108"/>
<text text-anchor="middle" x="341.75" y="-86.12" font-family="sans" font-size="10.00">create_if_table</text>
</g>
<!-- 8&#45;&gt;10 -->
<g id="edge19" class="edge">
<title>8&#45;&gt;10</title>
<path fill="none" stroke="grey" stroke-width="2" d="M227.75,-143.15C246.92,-134.38 270.26,-123.71 290.82,-114.3"/>
<polygon fill="grey" stroke="grey" stroke-width="2" points="292.16,-117.54 299.8,-110.19 289.25,-111.17 292.16,-117.54"/>
</g>
<!-- 9&#45;&gt;0 -->
<g id="edge10" class="edge">
<title>9&#45;&gt;0</title>
<path fill="none" stroke="grey" stroke-width="2" d="M359.23,-143.23C371.42,-134.35 384.11,-122.4 390.75,-108 399.3,-89.45 395.25,-66.71 389.22,-48.86"/>
<polygon fill="grey" stroke="grey" stroke-width="2" points="392.55,-47.78 385.71,-39.69 386.01,-50.28 392.55,-47.78"/>
</g>
<!-- 9&#45;&gt;7 -->
<g id="edge16" class="edge">
<title>9&#45;&gt;7</title>
<path fill="none" stroke="grey" stroke-width="2" d="M301.47,-143.15C288.77,-134.84 273.45,-124.82 259.64,-115.79"/>
<polygon fill="grey" stroke="grey" stroke-width="2" points="261.8,-113.02 251.51,-110.47 257.96,-118.87 261.8,-113.02"/>
</g>
<!-- 9&#45;&gt;10 -->
<g id="edge20" class="edge">
<title>9&#45;&gt;10</title>
<path fill="none" stroke="grey" stroke-width="2" d="M332.03,-143.34C333.25,-136.75 334.68,-129.08 336.05,-121.67"/>
<polygon fill="grey" stroke="grey" stroke-width="2" points="339.49,-122.35 337.87,-111.88 332.61,-121.07 339.49,-122.35"/>
</g>
<!-- 10&#45;&gt;0 -->
<g id="edge6" class="edge">
<title>10&#45;&gt;0</title>
<path fill="none" stroke="grey" stroke-width="2" d="M350.33,-71.34C353.69,-64.43 357.63,-56.31 361.39,-48.56"/>
<polygon fill="grey" stroke="grey" stroke-width="2" points="364.51,-50.15 365.73,-39.62 358.21,-47.09 364.51,-50.15"/>
</g>
<!-- 11 -->
<g id="node12" class="node">
<title>11</title>
<path fill="none" stroke="#59d856" stroke-width="2" d="M560,-108C560,-108 449.5,-108 449.5,-108 443.5,-108 437.5,-102 437.5,-96 437.5,-96 437.5,-84 437.5,-84 437.5,-78 443.5,-72 449.5,-72 449.5,-72 560,-72 560,-72 566,-72 572,-78 572,-84 572,-84 572,-96 572,-96 572,-102 566,-108 560,-108"/>
<text text-anchor="middle" x="504.75" y="-86.12" font-family="sans" font-size="10.00">create_quality_check_table</text>
</g>
<!-- 11&#45;&gt;0 -->
<g id="edge7" class="edge">
<title>11&#45;&gt;0</title>
<path fill="none" stroke="grey" stroke-width="2" d="M471.86,-71.15C454.47,-61.72 433.01,-50.07 414.78,-40.18"/>
<polygon fill="grey" stroke="grey" stroke-width="2" points="416.46,-37.11 406,-35.42 413.12,-43.26 416.46,-37.11"/>
</g>
<!-- 12&#45;&gt;11 -->
<g id="edge21" class="edge">
<title>12&#45;&gt;11</title>
<path fill="none" stroke="grey" stroke-width="2" d="M456.15,-143.34C463.18,-135.77 471.55,-126.75 479.35,-118.35"/>
<polygon fill="grey" stroke="grey" stroke-width="2" points="481.83,-120.83 486.07,-111.12 476.7,-116.07 481.83,-120.83"/>
</g>
<!-- 13&#45;&gt;11 -->
<g id="edge22" class="edge">
<title>13&#45;&gt;11</title>
<path fill="none" stroke="grey" stroke-width="2" d="M526.43,-143.34C523.6,-136.51 520.29,-128.5 517.11,-120.83"/>
<polygon fill="grey" stroke="grey" stroke-width="2" points="520.39,-119.6 513.33,-111.7 513.92,-122.28 520.39,-119.6"/>
</g>
<!-- 14 -->
<g id="node15" class="node">
<title>14</title>
<path fill="none" stroke="#88d856" stroke-width="2" d="M831.88,-108C831.88,-108 723.62,-108 723.62,-108 717.62,-108 711.62,-102 711.62,-96 711.62,-96 711.62,-84 711.62,-84 711.62,-78 717.62,-72 723.62,-72 723.62,-72 831.88,-72 831.88,-72 837.88,-72 843.88,-78 843.88,-84 843.88,-84 843.88,-96 843.88,-96 843.88,-102 837.88,-108 831.88,-108"/>
<text text-anchor="middle" x="777.75" y="-86.12" font-family="sans" font-size="10.00">create_snp_mapping_table</text>
</g>
<!-- 14&#45;&gt;0 -->
<g id="edge8" class="edge">
<title>14&#45;&gt;0</title>
<path fill="none" stroke="grey" stroke-width="2" d="M710.73,-73.59C708.04,-73.04 705.37,-72.51 702.75,-72 599.92,-52.03 477.89,-33.65 416.03,-24.7"/>
<polygon fill="grey" stroke="grey" stroke-width="2" points="416.81,-21.28 406.41,-23.32 415.81,-28.21 416.81,-21.28"/>
</g>
</g>
</svg>
